<?xml version="1.0" encoding="UTF-8" standalone="no"?>
<!DOCTYPE svg PUBLIC "-//W3C//DTD SVG 1.1//EN" "http://www.w3.org/Graphics/SVG/1.1/DTD/svg11.dtd">
<svg width="100%" height="100%" viewBox="0 0 350 150" version="1.1" xmlns="http://www.w3.org/2000/svg" xmlns:xlink="http://www.w3.org/1999/xlink" xml:space="preserve" xmlns:serif="http://www.serif.com/" style="fill-rule:evenodd;clip-rule:evenodd;stroke-linejoin:round;stroke-miterlimit:2;">
    <g transform="matrix(0.660671,0,0,0.660671,100.389,32.8705)">
        <text x="186.173px" y="82.521px" style="font-family:'Helvetica-Bold', 'Helvetica';font-weight:700;font-size:51.971px;fill:rgb(51,51,51);">OPTICS</text>
    </g>
    <g transform="matrix(0.696511,0,0,0.696511,-115.263,0)">
        <g transform="matrix(1,0,0,1,165.486,0)">
            <path d="M8.973,9.389L17.78,9.389L17.78,38.303L8.973,38.303L8.973,9.389ZM0.166,84.582L8.973,84.582L8.973,46.944L17.78,46.944L17.78,78.35C17.78,80.427 18.694,82.837 19.691,84.582L28.748,84.582C27.585,82.504 26.587,80.677 26.587,78.35L26.587,50.35C26.587,45.199 24.76,43.454 22.683,42.623C24.843,41.46 26.587,39.881 26.587,35.893L26.587,9.306C26.587,4.487 22.683,0.582 17.78,0.582L8.807,0.831C3.905,0.831 0,4.736 0,9.555L0,36.142L0.166,84.582Z" style="fill:rgb(91,134,190);fill-rule:nonzero;"/>
        </g>
        <g transform="matrix(1,0,0,1,165.486,0)">
            <path d="M43.288,26.504L52.095,26.504L52.095,77.187L43.288,77.187L43.288,26.504ZM34.481,73.531C34.481,80.843 40.463,86.825 47.774,86.825C55.086,86.825 61.068,80.843 61.068,73.531L61.068,30.243C61.068,22.932 55.086,16.95 47.774,16.95C40.463,16.95 34.481,22.932 34.481,30.243L34.481,73.531Z" style="fill:rgb(91,134,190);fill-rule:nonzero;"/>
        </g>
        <g transform="matrix(1,0,0,1,165.486,0)">
            <path d="M69.377,0C71.786,0.083 73.947,1.08 75.608,2.659C77.27,4.237 78.267,6.481 78.267,8.89L78.267,86.077L69.377,86.077L69.377,0Z" style="fill:rgb(91,134,190);fill-rule:nonzero;"/>
        </g>
        <g transform="matrix(1,0,0,1,165.486,0)">
            <path d="M96.214,26.504L105.021,26.504L105.021,47.442L96.214,47.442L96.214,26.504ZM87.407,73.531C87.407,80.843 93.389,86.825 100.701,86.825C108.012,86.825 113.994,80.843 113.994,73.531L113.994,68.38L105.187,68.38L105.187,77.187L96.38,77.187L96.38,56.332L114.077,56.332L114.077,30.243C114.077,22.932 108.095,16.95 100.784,16.95C93.472,16.95 87.49,22.932 87.49,30.243L87.49,73.531L87.407,73.531Z" style="fill:rgb(91,134,190);fill-rule:nonzero;"/>
        </g>
        <g transform="matrix(1,0,0,1,165.486,0)">
            <path d="M121.472,0.748L129.614,0.748L134.849,16.036C136.261,20.356 137.757,24.76 139.003,29.08L139.252,29.08C140.581,24.76 141.994,20.356 143.406,16.036L148.724,0.748L156.866,0.748L156.866,86.077L148.059,86.077L148.059,47.11C148.059,39.3 148.558,28.083 149.056,21.436L148.724,21.436C145.733,31.822 142.409,40.795 139.252,50.101L139.003,50.101C135.929,40.795 132.522,31.822 129.531,21.436L129.282,21.436C129.78,28.166 130.279,39.383 130.279,47.11L130.279,86.077L121.472,86.077L121.472,0.748Z" style="fill:rgb(91,134,190);fill-rule:nonzero;"/>
        </g>
        <g transform="matrix(1,0,0,1,165.486,0)">
            <path d="M174.065,26.504L182.873,26.504L182.873,77.187L174.065,77.187L174.065,26.504ZM165.258,73.531C165.258,80.843 171.24,86.825 178.552,86.825C185.864,86.825 191.846,80.843 191.846,73.531L191.846,30.243C191.846,22.932 185.864,16.95 178.552,16.95C171.24,16.95 165.258,22.932 165.258,30.243L165.258,73.531Z" style="fill:rgb(91,134,190);fill-rule:nonzero;"/>
        </g>
        <g transform="matrix(1,0,0,1,165.486,0)">
            <path d="M208.961,26.505L217.768,26.505L217.768,77.187L208.961,77.187L208.961,26.505ZM226.742,0.748L217.852,0.748L217.852,17.697L209.044,17.697C204.142,17.697 200.237,21.602 200.237,26.505L200.237,77.187C200.237,82.089 204.142,85.994 209.044,85.994L226.742,85.994L226.742,0.748Z" style="fill:rgb(91,134,190);fill-rule:nonzero;"/>
        </g>
        <g transform="matrix(1,0,0,1,165.486,0)">
            <path d="M243.857,26.504L252.665,26.504L252.665,47.442L243.857,47.442L243.857,26.504ZM235.05,73.531C235.05,80.843 241.032,86.825 248.344,86.825C255.656,86.825 261.638,80.843 261.638,73.531L261.638,68.38L252.831,68.38L252.831,77.187L244.024,77.187L244.024,56.332L261.721,56.332L261.721,30.243C261.721,22.932 255.739,16.95 248.427,16.95C241.116,16.95 235.133,22.932 235.133,30.243L235.133,73.531L235.05,73.531Z" style="fill:rgb(91,134,190);fill-rule:nonzero;"/>
        </g>
        <g transform="matrix(1,0,0,1,165.486,0)">
            <path d="M269.947,0C272.356,0.083 274.516,1.08 276.178,2.659C277.84,4.237 278.837,6.481 278.837,8.89L278.837,86.077L270.03,86.077L270.03,0L269.947,0Z" style="fill:rgb(91,134,190);fill-rule:nonzero;"/>
        </g>
        <g transform="matrix(1,0,0,1,165.486,0)">
            <path d="M130.611,103.858L130.611,91.062L121.804,91.062L121.804,103.691L113.08,103.691L113.08,112.415L121.804,112.415L121.804,206.469C121.804,208.878 122.801,211.122 124.463,212.7C126.125,214.279 128.285,215.193 130.694,215.359L130.694,112.748L139.501,112.748L139.501,103.858L130.611,103.858Z" style="fill:rgb(91,134,190);fill-rule:nonzero;"/>
        </g>
        <g transform="matrix(1,0,0,1,165.486,0)">
            <path d="M38.968,112.748L30.077,112.748L30.077,133.686L38.884,133.686C43.786,133.686 47.692,137.591 47.692,142.493L47.692,159.691C47.692,167.003 41.709,172.985 34.398,172.985C27.086,172.985 21.104,167.003 21.104,159.691L21.104,154.54L29.911,154.54L29.911,163.347L38.718,163.347L38.718,142.41L30.077,142.41C25.175,142.41 21.27,138.505 21.27,133.602L21.27,116.404C21.27,109.092 27.252,103.11 34.564,103.11C41.876,103.11 47.858,109.092 47.858,116.404L47.858,121.555L38.968,121.555L38.968,112.748Z" style="fill:rgb(51,51,51);fill-rule:nonzero;"/>
        </g>
        <g transform="matrix(1,0,0,1,165.486,0)">
            <path d="M63.977,112.748L72.784,112.748L72.784,163.43L63.977,163.43L63.977,112.748ZM55.086,159.691C55.086,167.003 61.069,172.985 68.38,172.985C75.692,172.985 81.674,167.003 81.674,159.691L81.674,116.404C81.674,109.092 75.692,103.11 68.38,103.11C61.069,103.11 55.086,109.092 55.086,116.404L55.086,159.691Z" style="fill:rgb(51,51,51);fill-rule:nonzero;"/>
        </g>
        <g transform="matrix(1,0,0,1,165.486,0)">
            <path d="M89.152,125.709L84.831,125.709L84.831,116.902L89.152,116.902L89.152,99.953C89.152,95.051 93.057,91.146 97.959,91.146L109.923,91.146L109.923,99.953L98.042,99.953L98.042,116.902L106.766,116.902L106.766,125.709L98.042,125.709L98.042,163.015C98.042,165.424 97.045,167.668 95.383,169.246C93.721,170.825 91.561,171.739 89.152,171.905L89.152,125.709Z" style="fill:rgb(51,51,51);fill-rule:nonzero;"/>
        </g>
        <g transform="matrix(1,0,0,1,165.486,0)">
            <path d="M191.846,163.43C191.846,168.332 187.941,172.237 183.039,172.237L147.644,172.237L147.644,103.858L156.451,103.858L156.451,163.43L165.258,163.43L165.258,103.858L174.065,103.858L174.065,163.43L182.873,163.43L182.873,103.858L191.68,103.858L191.68,163.43L191.846,163.43Z" style="fill:rgb(51,51,51);fill-rule:nonzero;"/>
        </g>
        <g transform="matrix(1,0,0,1,165.486,0)">
            <path d="M207.383,130.777L216.19,130.777L216.19,163.43L207.383,163.43L207.383,130.777ZM225.08,112.748C225.08,107.846 221.175,103.941 216.273,103.941L200.487,103.941L200.487,112.748L216.273,112.748L216.273,121.97L207.466,121.97C202.564,121.97 198.659,125.875 198.659,130.777L198.659,163.43C198.659,168.332 202.564,172.237 207.466,172.237L225.163,172.237L225.163,112.748L225.08,112.748Z" style="fill:rgb(51,51,51);fill-rule:nonzero;"/>
        </g>
        <g transform="matrix(1,0,0,1,165.486,0)">
            <path d="M231.395,112.748C231.395,107.846 235.3,103.941 240.202,103.941L249.009,103.941L249.009,112.748L240.202,112.748L240.202,172.32L231.395,172.32L231.395,112.748Z" style="fill:rgb(51,51,51);fill-rule:nonzero;"/>
        </g>
        <g transform="matrix(1,0,0,1,165.486,0)">
            <path d="M262.303,112.665L271.11,112.665L271.11,133.603L262.303,133.603L262.303,112.665ZM253.496,159.608C253.496,166.92 259.478,172.902 266.789,172.902C274.101,172.902 280.083,166.92 280.083,159.608L280.083,154.457L271.276,154.457L271.276,163.264L262.469,163.264L262.469,142.327L280,142.327L280,116.321C280,109.009 274.018,103.027 266.706,103.027C259.395,103.027 253.413,109.009 253.413,116.321L253.413,159.608L253.496,159.608Z" style="fill:rgb(51,51,51);fill-rule:nonzero;"/>
        </g>
    </g>
</svg>
