<?xml version="1.0" standalone="no"?>
<svg xmlns="http://www.w3.org/2000/svg" xmlns:xlink="http://www.w3.org/1999/xlink" width="922pt" height="260pt" viewBox="0.00 0.00 921.61 260.00">
<g id="graph0" class="graph" transform="translate(4,256) scale(1)" data-name="dependencies">

<polygon fill="white" stroke="none" points="-4,4 -4,-256 917.61,-256 917.61,4 -4,4"/>
<!-- Tokens &amp; Base -->
<g id="node1" class="node" pointer-events="visible" data-name="Tokens &amp; Base">

<polygon fill="none" stroke="black" points="391.32,-36 288.68,-36 288.68,0 391.32,0 391.32,-36"/>
<text text-anchor="middle" x="340" y="-13.8" font-family="Helvetica,Arial,sans-serif" font-size="14.00">Tokens &amp; Base</text>
</g>
<!-- Alert -->
<g id="node2" class="node" pointer-events="visible" data-name="Alert">

<polygon fill="none" stroke="black" points="54,-180 0,-180 0,-144 54,-144 54,-180"/>
<text text-anchor="middle" x="27" y="-157.8" font-family="Helvetica,Arial,sans-serif" font-size="14.00">Alert</text>
</g>
<!-- Alert&#45;&gt;Tokens &amp; Base -->
<g id="edge1" class="edge" data-name="Alert-&gt;Tokens &amp; Base">

<path fill="none" stroke="black" d="M25.45,-143.59C24.68,-123.41 26.82,-90.58 46,-72 78.16,-40.85 200.65,-27.61 277.01,-22.29"/>
<polygon fill="black" stroke="black" points="277.13,-25.79 286.87,-21.63 276.66,-18.81 277.13,-25.79"/>
</g>
<!-- Icon -->
<g id="node3" class="node" pointer-events="visible" data-name="Icon">

<polygon fill="none" stroke="black" points="109,-108 55,-108 55,-72 109,-72 109,-108"/>
<text text-anchor="middle" x="82" y="-85.8" font-family="Helvetica,Arial,sans-serif" font-size="14.00">Icon</text>
</g>
<!-- Alert&#45;&gt;Icon -->
<g id="edge2" class="edge" data-name="Alert-&gt;Icon">

<path fill="none" stroke="black" d="M40.6,-143.7C46.92,-135.64 54.58,-125.89 61.59,-116.98"/>
<polygon fill="black" stroke="black" points="64.2,-119.32 67.63,-109.29 58.7,-115 64.2,-119.32"/>
</g>
<!-- Icon&#45;&gt;Tokens &amp; Base -->
<g id="edge19" class="edge" data-name="Icon-&gt;Tokens &amp; Base">

<path fill="none" stroke="black" d="M109.13,-77.07C113.71,-75.25 118.46,-73.49 123,-72 174.2,-55.24 233.72,-41.07 277.47,-31.6"/>
<polygon fill="black" stroke="black" points="277.99,-35.07 287.04,-29.56 276.53,-28.23 277.99,-35.07"/>
</g>
<!-- Badge -->
<g id="node4" class="node" pointer-events="visible" data-name="Badge">

<polygon fill="none" stroke="black" points="126,-180 72,-180 72,-144 126,-144 126,-180"/>
<text text-anchor="middle" x="99" y="-157.8" font-family="Helvetica,Arial,sans-serif" font-size="14.00">Badge</text>
</g>
<!-- Badge&#45;&gt;Tokens &amp; Base -->
<g id="edge3" class="edge" data-name="Badge-&gt;Tokens &amp; Base">

<path fill="none" stroke="black" d="M106.67,-143.6C116.44,-123.44 135.19,-90.62 161,-72 195.18,-47.34 240.82,-34.05 277.47,-26.95"/>
<polygon fill="black" stroke="black" points="277.83,-30.45 287.04,-25.21 276.57,-23.56 277.83,-30.45"/>
</g>
<!-- Badge&#45;&gt;Icon -->
<g id="edge4" class="edge" data-name="Badge-&gt;Icon">

<path fill="none" stroke="black" d="M94.8,-143.7C93.01,-136.32 90.87,-127.52 88.86,-119.25"/>
<polygon fill="black" stroke="black" points="92.27,-118.47 86.51,-109.58 85.47,-120.12 92.27,-118.47"/>
</g>
<!-- Button -->
<g id="node5" class="node" pointer-events="visible" data-name="Button">

<polygon fill="none" stroke="black" points="236.12,-180 181.88,-180 181.88,-144 236.12,-144 236.12,-180"/>
<text text-anchor="middle" x="209" y="-157.8" font-family="Helvetica,Arial,sans-serif" font-size="14.00">Button</text>
</g>
<!-- Button&#45;&gt;Tokens &amp; Base -->
<g id="edge5" class="edge" data-name="Button-&gt;Tokens &amp; Base">

<path fill="none" stroke="black" d="M213.62,-143.5C219.44,-124.15 231.06,-92.95 250,-72 260.86,-59.99 275.1,-49.9 289.04,-41.87"/>
<polygon fill="black" stroke="black" points="290.66,-44.97 297.75,-37.11 287.3,-38.83 290.66,-44.97"/>
</g>
<!-- Button&#45;&gt;Icon -->
<g id="edge6" class="edge" data-name="Button-&gt;Icon">

<path fill="none" stroke="black" d="M181.44,-145.81C163.18,-135.74 139,-122.42 119.06,-111.42"/>
<polygon fill="black" stroke="black" points="120.84,-108.41 110.39,-106.65 117.46,-114.54 120.84,-108.41"/>
</g>
<!-- Button Group -->
<g id="node6" class="node" pointer-events="visible" data-name="Button Group">

<polygon fill="none" stroke="black" points="200.89,-252 107.11,-252 107.11,-216 200.89,-216 200.89,-252"/>
<text text-anchor="middle" x="154" y="-229.8" font-family="Helvetica,Arial,sans-serif" font-size="14.00">Button Group</text>
</g>
<!-- Button Group&#45;&gt;Tokens &amp; Base -->
<g id="edge7" class="edge" data-name="Button Group-&gt;Tokens &amp; Base">

<path fill="none" stroke="black" d="M155.61,-215.63C157.78,-197.22 162.66,-167.58 173,-144 188.75,-108.09 193.79,-97.01 224,-72 239.83,-58.9 259.42,-48.33 277.98,-40.18"/>
<polygon fill="black" stroke="black" points="279.18,-43.47 287.05,-36.37 276.47,-37.01 279.18,-43.47"/>
</g>
<!-- Button Group&#45;&gt;Button -->
<g id="edge8" class="edge" data-name="Button Group-&gt;Button">

<path fill="none" stroke="black" d="M167.6,-215.7C173.92,-207.64 181.58,-197.89 188.59,-188.98"/>
<polygon fill="black" stroke="black" points="191.2,-191.32 194.63,-181.29 185.7,-187 191.2,-191.32"/>
</g>
<!-- Sidebar -->
<g id="node7" class="node" pointer-events="visible" data-name="Sidebar">

<polygon fill="none" stroke="black" points="277.27,-252 218.73,-252 218.73,-216 277.27,-216 277.27,-252"/>
<text text-anchor="middle" x="248" y="-229.8" font-family="Helvetica,Arial,sans-serif" font-size="14.00">Sidebar</text>
</g>
<!-- Sidebar&#45;&gt;Tokens &amp; Base -->
<g id="edge9" class="edge" data-name="Sidebar-&gt;Tokens &amp; Base">

<path fill="none" stroke="black" d="M254.44,-215.83C261.27,-197.82 272.49,-168.76 283,-144 297.36,-110.15 315.1,-71.73 326.94,-46.53"/>
<polygon fill="black" stroke="black" points="330.03,-48.17 331.13,-37.63 323.7,-45.18 330.03,-48.17"/>
</g>
<!-- Sidebar&#45;&gt;Button -->
<g id="edge10" class="edge" data-name="Sidebar-&gt;Button">

<path fill="none" stroke="black" d="M238.36,-215.7C234.06,-207.98 228.9,-198.71 224.11,-190.11"/>
<polygon fill="black" stroke="black" points="227.19,-188.46 219.27,-181.43 221.08,-191.87 227.19,-188.46"/>
</g>
<!-- Pagination -->
<g id="node8" class="node" pointer-events="visible" data-name="Pagination">

<polygon fill="none" stroke="black" points="370.88,-252 295.12,-252 295.12,-216 370.88,-216 370.88,-252"/>
<text text-anchor="middle" x="333" y="-229.8" font-family="Helvetica,Arial,sans-serif" font-size="14.00">Pagination</text>
</g>
<!-- Pagination&#45;&gt;Button -->
<g id="edge11" class="edge" data-name="Pagination-&gt;Button">

<path fill="none" stroke="black" d="M302.03,-215.52C285.04,-205.93 263.86,-193.97 246.01,-183.89"/>
<polygon fill="black" stroke="black" points="247.95,-180.97 237.52,-179.1 244.51,-187.07 247.95,-180.97"/>
</g><g id="edge13" class="edge" data-name="Pagination-&gt;Tokens &amp; Base" data-comment="Pagination-&gt;Button">

<path fill="none" stroke="black" d="M342.13,-215.88C347.01,-205.76 352.51,-192.51 355,-180 364.19,-133.9 354.94,-79.23 347.44,-46.92"/>
<polygon fill="black" stroke="black" points="350.93,-46.44 345.16,-37.56 344.13,-48.1 350.93,-46.44"/>
</g>
<!-- Pagination&#45;&gt;Button -->

<!-- Avatar -->
<g id="node10" class="node" pointer-events="visible" data-name="Avatar">

<polygon fill="none" stroke="black" points="422.09,-108 367.91,-108 367.91,-72 422.09,-72 422.09,-108"/>
<text text-anchor="middle" x="395" y="-85.8" font-family="Helvetica,Arial,sans-serif" font-size="14.00">Avatar</text>
</g><g id="edge12" class="edge" data-name="Pagination-&gt;Form" data-comment="Avatar">

<path fill="none" stroke="black" d="M329.54,-215.7C328.06,-208.32 326.3,-199.52 324.65,-191.25"/>
<polygon fill="black" stroke="black" points="328.11,-190.71 322.72,-181.59 321.25,-192.08 328.11,-190.71"/>
</g>
<!-- Avatar&#45;&gt;Tokens &amp; Base -->
<g id="edge14" class="edge" data-name="Avatar-&gt;Tokens &amp; Base">

<path fill="none" stroke="black" d="M381.4,-71.7C375.08,-63.64 367.42,-53.89 360.41,-44.98"/>
<polygon fill="black" stroke="black" points="363.3,-43 354.37,-37.29 357.8,-47.32 363.3,-43"/>
</g>
<!-- Card -->
<g id="node11" class="node" pointer-events="visible" data-name="Card">

<polygon fill="none" stroke="black" points="494,-108 440,-108 440,-72 494,-72 494,-108"/>
<text text-anchor="middle" x="467" y="-85.8" font-family="Helvetica,Arial,sans-serif" font-size="14.00">Card</text>
</g>
<!-- Card&#45;&gt;Tokens &amp; Base -->
<g id="edge15" class="edge" data-name="Card-&gt;Tokens &amp; Base">

<path fill="none" stroke="black" d="M439.76,-73.98C422.83,-64.65 400.73,-52.47 381.64,-41.95"/>
<polygon fill="black" stroke="black" points="383.45,-38.95 373.01,-37.19 380.07,-45.08 383.45,-38.95"/>
</g>
<!-- Confirm Dialog -->
<g id="node12" class="node" pointer-events="visible" data-name="Confirm Dialog">

<polygon fill="none" stroke="black" points="617.54,-108 512.46,-108 512.46,-72 617.54,-72 617.54,-108"/>
<text text-anchor="middle" x="565" y="-85.8" font-family="Helvetica,Arial,sans-serif" font-size="14.00">Confirm Dialog</text>
</g>
<!-- Confirm Dialog&#45;&gt;Tokens &amp; Base -->
<g id="edge16" class="edge" data-name="Confirm Dialog-&gt;Tokens &amp; Base">

<path fill="none" stroke="black" d="M511.96,-72.5C479.14,-62.29 436.83,-49.13 402.4,-38.41"/>
<polygon fill="black" stroke="black" points="403.55,-35.11 392.96,-35.48 401.47,-41.79 403.55,-35.11"/>
</g>
<!-- Divider -->
<g id="node13" class="node" pointer-events="visible" data-name="Divider">

<polygon fill="none" stroke="black" points="694.27,-108 635.73,-108 635.73,-72 694.27,-72 694.27,-108"/>
<text text-anchor="middle" x="665" y="-85.8" font-family="Helvetica,Arial,sans-serif" font-size="14.00">Divider</text>
</g>
<!-- Divider&#45;&gt;Tokens &amp; Base -->
<g id="edge17" class="edge" data-name="Divider-&gt;Tokens &amp; Base">

<path fill="none" stroke="black" d="M635.39,-74.95C632.59,-73.86 629.76,-72.86 627,-72 551.71,-48.57 461.89,-34.04 403.04,-26.25"/>
<polygon fill="black" stroke="black" points="403.56,-22.79 393.2,-24.98 402.66,-29.73 403.56,-22.79"/>
</g>
<!-- Form -->
<g id="node9" class="node" pointer-events="visible" data-name="Form">

<polygon fill="none" stroke="black" points="346,-180 292,-180 292,-144 346,-144 346,-180"/>
<text text-anchor="middle" x="319" y="-157.8" font-family="Helvetica,Arial,sans-serif" font-size="14.00">Form</text>
</g>
<!-- Form&#45;&gt;Tokens &amp; Base -->
<g id="edge18" class="edge" data-name="Form-&gt;Tokens &amp; Base">

<path fill="none" stroke="black" d="M319.44,-143.83C320.11,-125.82 321.79,-96.75 326,-72 327.37,-63.93 329.4,-55.3 331.49,-47.4"/>
<polygon fill="black" stroke="black" points="334.81,-48.52 334.12,-37.95 328.07,-46.64 334.81,-48.52"/>
</g>
<!-- Modal -->
<g id="node14" class="node" pointer-events="visible" data-name="Modal">

<polygon fill="none" stroke="black" points="766,-108 712,-108 712,-72 766,-72 766,-108"/>
<text text-anchor="middle" x="739" y="-85.8" font-family="Helvetica,Arial,sans-serif" font-size="14.00">Modal</text>
</g>
<!-- Modal&#45;&gt;Tokens &amp; Base -->
<g id="edge20" class="edge" data-name="Modal-&gt;Tokens &amp; Base">

<path fill="none" stroke="black" d="M711.81,-75.14C708.89,-73.96 705.91,-72.88 703,-72 600.56,-41.09 476.23,-27.92 402.86,-22.52"/>
<polygon fill="black" stroke="black" points="403.27,-19.04 393.05,-21.83 402.78,-26.03 403.27,-19.04"/>
</g>
<!-- Table -->
<g id="node15" class="node" pointer-events="visible" data-name="Table">

<polygon fill="none" stroke="black" points="838,-108 784,-108 784,-72 838,-72 838,-108"/>
<text text-anchor="middle" x="811" y="-85.8" font-family="Helvetica,Arial,sans-serif" font-size="14.00">Table</text>
</g>
<!-- Table&#45;&gt;Tokens &amp; Base -->
<g id="edge21" class="edge" data-name="Table-&gt;Tokens &amp; Base">

<path fill="none" stroke="black" d="M783.84,-75.07C780.9,-73.9 777.92,-72.84 775,-72 646.25,-34.81 488.72,-23.71 402.98,-20.4"/>
<polygon fill="black" stroke="black" points="403.25,-16.9 393.13,-20.04 403,-23.9 403.25,-16.9"/>
</g>
<!-- Tooltip -->
<g id="node16" class="node" pointer-events="visible" data-name="Tooltip">

<polygon fill="none" stroke="black" points="913.72,-108 856.28,-108 856.28,-72 913.72,-72 913.72,-108"/>
<text text-anchor="middle" x="885" y="-85.8" font-family="Helvetica,Arial,sans-serif" font-size="14.00">Tooltip</text>
</g>
<!-- Tooltip&#45;&gt;Tokens &amp; Base -->
<!-- Tooltip&#45;&gt;Tokens &amp; Base -->
<g id="edge22" class="edge" data-name="Tooltip-&gt;Tokens &amp; Base">

<path fill="none" stroke="black" d="M855.88,-74.87C852.92,-73.77 849.93,-72.79 847,-72 691.15,-30.14 500.11,-21.02 403.06,-19.24"/>
<polygon fill="black" stroke="black" points="403.27,-15.74 393.22,-19.08 403.16,-22.74 403.27,-15.74"/>
</g>

</g>
</svg>