<?xml version="1.0" standalone="no"?>
<svg xmlns="http://www.w3.org/2000/svg" xmlns:xlink="http://www.w3.org/1999/xlink" width="1015pt" height="260pt" viewBox="0.00 0.00 1015.16 260.00">
<g id="graph0" class="graph" transform="translate(4,256) scale(1)" data-name="dependencies">

<polygon fill="white" stroke="none" points="-4,4 -4,-256 1011.16,-256 1011.16,4 -4,4"/>
<!-- Tokens &amp; Base -->
<g id="node1" class="node" pointer-events="visible" data-name="Tokens &amp; Base">

<polygon fill="none" stroke="black" points="465.86,-36 363.23,-36 363.23,0 465.86,0 465.86,-36"/>
<text text-anchor="middle" x="414.54" y="-13.8" font-family="Helvetica,Arial,sans-serif" font-size="14.00">Tokens &amp; Base</text>
</g>
<!-- Alert -->
<g id="node4" class="node" pointer-events="visible" data-name="Alert">

<polygon fill="none" stroke="black" points="147.54,-180 93.54,-180 93.54,-144 147.54,-144 147.54,-180"/>
<text text-anchor="middle" x="120.54" y="-157.8" font-family="Helvetica,Arial,sans-serif" font-size="14.00">Alert</text>
</g><g id="node2" class="node" pointer-events="visible" data-name="Accordion" data-comment="Alert">

<polygon fill="none" stroke="black" points="75.13,-180 -0.04,-180 -0.04,-144 75.13,-144 75.13,-180"/>
<text text-anchor="middle" x="37.54" y="-157.8" font-family="Helvetica,Arial,sans-serif" font-size="14.00">Accordion</text>
</g>
<!-- Alert&#45;&gt;Tokens &amp; Base -->
<g id="edge3" class="edge" data-name="Alert-&gt;Tokens &amp; Base">

<path fill="none" stroke="black" d="M116.51,-143.51C113.04,-123.58 111,-91.27 128.54,-72 157.77,-39.9 276.73,-27.01 351.72,-22.01"/>
<polygon fill="black" stroke="black" points="351.63,-25.52 361.39,-21.39 351.19,-18.54 351.63,-25.52"/>
</g><g id="edge1" class="edge" data-name="Accordion-&gt;Tokens &amp; Base" data-comment="Alert-&gt;Tokens &amp; Base">

<path fill="none" stroke="black" d="M46.77,-143.78C58.78,-123.15 81.81,-89.23 111.54,-72 151.37,-48.92 274.97,-32.89 351.45,-24.88"/>
<polygon fill="black" stroke="black" points="351.75,-28.37 361.34,-23.87 351.03,-21.41 351.75,-28.37"/>
</g>
<!-- Icon -->
<g id="node3" class="node" pointer-events="visible" data-name="Icon">

<polygon fill="none" stroke="black" points="191.54,-108 137.54,-108 137.54,-72 191.54,-72 191.54,-108"/>
<text text-anchor="middle" x="164.54" y="-85.8" font-family="Helvetica,Arial,sans-serif" font-size="14.00">Icon</text>
</g>
<!-- Alert&#45;&gt;Icon -->
<g id="edge4" class="edge" data-name="Alert-&gt;Icon">

<path fill="none" stroke="black" d="M131.42,-143.7C136.32,-135.9 142.23,-126.51 147.68,-117.83"/>
<polygon fill="black" stroke="black" points="150.63,-119.71 152.99,-109.39 144.7,-115.99 150.63,-119.71"/>
</g><g id="edge2" class="edge" data-name="Accordion-&gt;Icon" data-comment="Alert-&gt;Icon">

<path fill="none" stroke="black" d="M69.26,-143.52C86.79,-133.86 108.66,-121.8 127.03,-111.68"/>
<polygon fill="black" stroke="black" points="128.71,-114.75 135.78,-106.86 125.33,-108.62 128.71,-114.75"/>
</g>
<!-- Icon&#45;&gt;Tokens &amp; Base -->
<g id="edge21" class="edge" data-name="Icon-&gt;Tokens &amp; Base">

<path fill="none" stroke="black" d="M191.68,-77.1C196.27,-75.28 201.01,-73.51 205.54,-72 253.87,-55.95 309.85,-41.99 351.7,-32.43"/>
<polygon fill="black" stroke="black" points="352.38,-35.87 361.37,-30.25 350.84,-29.04 352.38,-35.87"/>
</g>
<!-- Badge -->
<g id="node5" class="node" pointer-events="visible" data-name="Badge">

<polygon fill="none" stroke="black" points="219.54,-180 165.54,-180 165.54,-144 219.54,-144 219.54,-180"/>
<text text-anchor="middle" x="192.54" y="-157.8" font-family="Helvetica,Arial,sans-serif" font-size="14.00">Badge</text>
</g>
<!-- Badge&#45;&gt;Tokens &amp; Base -->
<g id="edge5" class="edge" data-name="Badge-&gt;Tokens &amp; Base">

<path fill="none" stroke="black" d="M198.07,-143.67C205.35,-123.58 220.06,-90.82 243.54,-72 274.41,-47.27 316.83,-34.03 351.7,-26.97"/>
<polygon fill="black" stroke="black" points="352.07,-30.46 361.24,-25.17 350.77,-23.58 352.07,-30.46"/>
</g>
<!-- Badge&#45;&gt;Icon -->
<g id="edge6" class="edge" data-name="Badge-&gt;Icon">

<path fill="none" stroke="black" d="M185.62,-143.7C182.61,-136.15 178.99,-127.12 175.62,-118.68"/>
<polygon fill="black" stroke="black" points="178.91,-117.49 171.95,-109.51 172.41,-120.09 178.91,-117.49"/>
</g>
<!-- Button -->
<g id="node6" class="node" pointer-events="visible" data-name="Button">

<polygon fill="none" stroke="black" points="329.66,-180 275.43,-180 275.43,-144 329.66,-144 329.66,-180"/>
<text text-anchor="middle" x="302.54" y="-157.8" font-family="Helvetica,Arial,sans-serif" font-size="14.00">Button</text>
</g>
<!-- Button&#45;&gt;Tokens &amp; Base -->
<g id="edge7" class="edge" data-name="Button-&gt;Tokens &amp; Base">

<path fill="none" stroke="black" d="M307.71,-143.53C313.95,-124.48 325.88,-93.82 343.54,-72 352.47,-60.98 364.17,-51.02 375.5,-42.79"/>
<polygon fill="black" stroke="black" points="377.39,-45.74 383.61,-37.16 373.4,-39.99 377.39,-45.74"/>
</g>
<!-- Button&#45;&gt;Icon -->
<g id="edge8" class="edge" data-name="Button-&gt;Icon">

<path fill="none" stroke="black" d="M274.95,-147C253.94,-136.35 224.81,-121.57 201.74,-109.87"/>
<polygon fill="black" stroke="black" points="203.47,-106.82 192.97,-105.42 200.31,-113.06 203.47,-106.82"/>
</g><g id="edge16" class="edge" data-name="Avatar-&gt;Tokens &amp; Base" data-comment="Button-&gt;Icon">

<path fill="none" stroke="black" d="M470.25,-71.7C461.45,-63.37 450.72,-53.22 441.05,-44.07"/>
<polygon fill="black" stroke="black" points="443.65,-41.72 433.98,-37.39 438.84,-46.8 443.65,-41.72"/>
</g>
<!-- Button Group -->
<g id="node7" class="node" pointer-events="visible" data-name="Button Group">

<polygon fill="none" stroke="black" points="294.44,-252 200.65,-252 200.65,-216 294.44,-216 294.44,-252"/>
<text text-anchor="middle" x="247.54" y="-229.8" font-family="Helvetica,Arial,sans-serif" font-size="14.00">Button Group</text>
</g>
<!-- Button Group&#45;&gt;Tokens &amp; Base -->
<g id="edge9" class="edge" data-name="Button Group-&gt;Tokens &amp; Base">

<path fill="none" stroke="black" d="M249.07,-215.6C251.17,-197.15 255.99,-167.49 266.54,-144 282.84,-107.76 289.74,-98.28 319.54,-72 332.91,-60.22 349.32,-49.92 364.73,-41.62"/>
<polygon fill="black" stroke="black" points="366.06,-44.87 373.32,-37.15 362.83,-38.66 366.06,-44.87"/>
</g>
<!-- Button Group&#45;&gt;Button -->
<g id="edge10" class="edge" data-name="Button Group-&gt;Button">

<path fill="none" stroke="black" d="M261.14,-215.7C267.47,-207.64 275.13,-197.89 282.13,-188.98"/>
<polygon fill="black" stroke="black" points="284.74,-191.32 288.17,-181.29 279.24,-187 284.74,-191.32"/>
</g>
<!-- Sidebar -->
<g id="node8" class="node" pointer-events="visible" data-name="Sidebar">

<polygon fill="none" stroke="black" points="370.81,-252 312.28,-252 312.28,-216 370.81,-216 370.81,-252"/>
<text text-anchor="middle" x="341.54" y="-229.8" font-family="Helvetica,Arial,sans-serif" font-size="14.00">Sidebar</text>
</g>
<!-- Sidebar&#45;&gt;Tokens &amp; Base -->
<g id="edge11" class="edge" data-name="Sidebar-&gt;Tokens &amp; Base">

<path fill="none" stroke="black" d="M347.4,-215.85C359.97,-178.99 389.67,-91.92 405.01,-46.96"/>
<polygon fill="black" stroke="black" points="408.26,-48.26 408.18,-37.66 401.64,-46 408.26,-48.26"/>
</g>
<!-- Sidebar&#45;&gt;Button -->
<g id="edge12" class="edge" data-name="Sidebar-&gt;Button">

<path fill="none" stroke="black" d="M331.9,-215.7C327.61,-207.98 322.44,-198.71 317.65,-190.11"/>
<polygon fill="black" stroke="black" points="320.74,-188.46 312.81,-181.43 314.62,-191.87 320.74,-188.46"/>
</g>
<!-- Pagination -->
<g id="node9" class="node" pointer-events="visible" data-name="Pagination">

<polygon fill="none" stroke="black" points="464.43,-252 388.66,-252 388.66,-216 464.43,-216 464.43,-252"/>
<text text-anchor="middle" x="426.54" y="-229.8" font-family="Helvetica,Arial,sans-serif" font-size="14.00">Pagination</text>
</g>
<!-- Pagination&#45;&gt;Tokens &amp; Base -->
<g id="edge15" class="edge" data-name="Pagination-&gt;Tokens &amp; Base">

<path fill="none" stroke="black" d="M421.55,-215.5C418.89,-205.25 415.89,-192 414.54,-180 409.4,-133.94 410.92,-80 412.63,-47.71"/>
<polygon fill="black" stroke="black" points="416.11,-48.16 413.19,-37.97 409.12,-47.75 416.11,-48.16"/>
</g>
<!-- Pagination&#45;&gt;Button -->
<g id="edge13" class="edge" data-name="Pagination-&gt;Button">

<path fill="none" stroke="black" d="M395.57,-215.52C378.59,-205.93 357.41,-193.97 339.55,-183.89"/>
<polygon fill="black" stroke="black" points="341.5,-180.97 331.07,-179.1 338.06,-187.07 341.5,-180.97"/>
</g>
<!-- Form -->
<g id="node10" class="node" pointer-events="visible" data-name="Form">

<polygon fill="none" stroke="black" points="477.54,-180 423.54,-180 423.54,-144 477.54,-144 477.54,-180"/>
<text text-anchor="middle" x="450.54" y="-157.8" font-family="Helvetica,Arial,sans-serif" font-size="14.00">Form</text>
</g>
<!-- Pagination&#45;&gt;Form -->
<g id="edge14" class="edge" data-name="Pagination-&gt;Form">

<path fill="none" stroke="black" d="M432.48,-215.7C435.04,-208.24 438.09,-199.32 440.96,-190.97"/>
<polygon fill="black" stroke="black" points="444.26,-192.13 444.19,-181.54 437.64,-189.86 444.26,-192.13"/>
</g>
<!-- Form&#45;&gt;Tokens &amp; Base -->
<g id="edge20" class="edge" data-name="Form-&gt;Tokens &amp; Base">

<path fill="none" stroke="black" d="M446.13,-143.59C440.02,-119.5 428.93,-75.75 421.65,-47.03"/>
<polygon fill="black" stroke="black" points="425.11,-46.41 419.25,-37.58 418.32,-48.13 425.11,-46.41"/>
</g>
<!-- Avatar -->
<g id="node11" class="node" pointer-events="visible" data-name="Avatar">

<polygon fill="none" stroke="black" points="515.63,-108 461.46,-108 461.46,-72 515.63,-72 515.63,-108"/>
<text text-anchor="middle" x="488.54" y="-85.8" font-family="Helvetica,Arial,sans-serif" font-size="14.00">Avatar</text>
</g>
<!-- Avatar&#45;&gt;Tokens &amp; Base -->

<!-- Card -->
<g id="node12" class="node" pointer-events="visible" data-name="Card">

<polygon fill="none" stroke="black" points="587.54,-108 533.54,-108 533.54,-72 587.54,-72 587.54,-108"/>
<text text-anchor="middle" x="560.54" y="-85.8" font-family="Helvetica,Arial,sans-serif" font-size="14.00">Card</text>
</g>
<!-- Card&#45;&gt;Tokens &amp; Base -->
<g id="edge17" class="edge" data-name="Card-&gt;Tokens &amp; Base">

<path fill="none" stroke="black" d="M533.08,-75.83C512.86,-66.14 484.88,-52.72 461.19,-41.36"/>
<polygon fill="black" stroke="black" points="462.88,-38.29 452.35,-37.13 459.85,-44.61 462.88,-38.29"/>
</g>
<!-- Confirm Dialog -->
<g id="node13" class="node" pointer-events="visible" data-name="Confirm Dialog">

<polygon fill="none" stroke="black" points="711.09,-108 606,-108 606,-72 711.09,-72 711.09,-108"/>
<text text-anchor="middle" x="658.54" y="-85.8" font-family="Helvetica,Arial,sans-serif" font-size="14.00">Confirm Dialog</text>
</g>
<!-- Confirm Dialog&#45;&gt;Tokens &amp; Base -->
<g id="edge18" class="edge" data-name="Confirm Dialog-&gt;Tokens &amp; Base">

<path fill="none" stroke="black" d="M605.6,-73.81C567.81,-62.97 516.83,-48.34 477.04,-36.93"/>
<polygon fill="black" stroke="black" points="478.16,-33.61 467.59,-34.22 476.23,-40.34 478.16,-33.61"/>
</g>
<!-- Divider -->
<g id="node14" class="node" pointer-events="visible" data-name="Divider">

<polygon fill="none" stroke="black" points="787.81,-108 729.28,-108 729.28,-72 787.81,-72 787.81,-108"/>
<text text-anchor="middle" x="758.54" y="-85.8" font-family="Helvetica,Arial,sans-serif" font-size="14.00">Divider</text>
</g>
<!-- Divider&#45;&gt;Tokens &amp; Base -->
<g id="edge19" class="edge" data-name="Divider-&gt;Tokens &amp; Base">

<path fill="none" stroke="black" d="M728.94,-74.92C726.14,-73.84 723.31,-72.84 720.54,-72 638.5,-46.97 540.24,-32.58 477.62,-25.27"/>
<polygon fill="black" stroke="black" points="478.19,-21.82 467.85,-24.16 477.39,-28.77 478.19,-21.82"/>
</g>
<!-- Modal -->
<g id="node15" class="node" pointer-events="visible" data-name="Modal">

<polygon fill="none" stroke="black" points="859.54,-108 805.54,-108 805.54,-72 859.54,-72 859.54,-108"/>
<text text-anchor="middle" x="832.54" y="-85.8" font-family="Helvetica,Arial,sans-serif" font-size="14.00">Modal</text>
</g>
<!-- Modal&#45;&gt;Tokens &amp; Base -->
<g id="edge22" class="edge" data-name="Modal-&gt;Tokens &amp; Base">

<path fill="none" stroke="black" d="M805.37,-75.12C802.44,-73.94 799.46,-72.87 796.54,-72 687.29,-39.45 554.39,-26.76 477.63,-21.9"/>
<polygon fill="black" stroke="black" points="477.96,-18.42 467.77,-21.31 477.54,-25.4 477.96,-18.42"/>
</g>
<!-- Table -->
<g id="node16" class="node" pointer-events="visible" data-name="Table">

<polygon fill="none" stroke="black" points="931.54,-108 877.54,-108 877.54,-72 931.54,-72 931.54,-108"/>
<text text-anchor="middle" x="904.54" y="-85.8" font-family="Helvetica,Arial,sans-serif" font-size="14.00">Table</text>
</g>
<!-- Table&#45;&gt;Tokens &amp; Base -->
<!-- Table&#45;&gt;Tokens &amp; Base -->
<g id="edge23" class="edge" data-name="Table-&gt;Tokens &amp; Base">

<path fill="none" stroke="black" d="M877.39,-75.06C874.45,-73.89 871.47,-72.84 868.54,-72 732.92,-33.19 566.73,-22.72 477.83,-19.95"/>
<polygon fill="black" stroke="black" points="477.94,-16.45 467.84,-19.67 477.74,-23.45 477.94,-16.45"/>
</g>
<!-- Tooltip -->

<!-- Tooltip -->
<g id="node17" class="node" pointer-events="visible" data-name="Tooltip">

<polygon fill="none" stroke="black" points="1007.27,-108 949.82,-108 949.82,-72 1007.27,-72 1007.27,-108"/>
<text text-anchor="middle" x="978.54" y="-85.8" font-family="Helvetica,Arial,sans-serif" font-size="14.00">Tooltip</text>
</g>
<!-- Tooltip&#45;&gt;Tokens &amp; Base -->

<!-- Tooltip&#45;&gt;Tokens &amp; Base -->
<g id="edge24" class="edge" data-name="Tooltip-&gt;Tokens &amp; Base">

<path fill="none" stroke="black" d="M949.43,-74.86C946.47,-73.76 943.48,-72.78 940.54,-72 777.61,-28.56 577.62,-20.17 477.69,-18.9"/>
<polygon fill="black" stroke="black" points="477.85,-15.4 467.81,-18.8 477.77,-22.4 477.85,-15.4"/>
</g>

</g>
</svg>