<?xml version="1.0" standalone="no"?>
<svg xmlns="http://www.w3.org/2000/svg" xmlns:xlink="http://www.w3.org/1999/xlink" width="679pt" height="260pt" viewBox="0.00 0.00 679 260.00">
<g id="graph0" class="graph" transform="translate(4,256) scale(1)" data-name="dependencies">

<polygon fill="white" stroke="none" points="-4,4 -4,-256 675,-256 675,4 -4,4"/>
<!-- Tokens -->
<g id="node1" class="node" pointer-events="visible" data-name="Tokens &amp; Base" data-comment="Tokens">

<polygon fill="none" stroke="black" points="300.32,-36 197.68,-36 197.68,0 300.32,0 300.32,-36"/>
<text text-anchor="middle" x="249" y="-13.8" font-family="Helvetica,Arial,sans-serif" font-size="14.00">Tokens &amp; Base</text>
</g>
<!-- Alert -->
<g id="node2" class="node" pointer-events="visible" data-name="Alert">

<polygon fill="none" stroke="black" points="54,-180 0,-180 0,-144 54,-144 54,-180"/>
<text text-anchor="middle" x="27" y="-157.8" font-family="Helvetica,Arial,sans-serif" font-size="14.00">Alert</text>
</g>
<!-- Alert&#45;&gt;Tokens -->
<g id="edge1" class="edge" data-name="Alert-&gt;Tokens &amp; Base" data-comment="Alert-&gt;Tokens">

<path fill="none" stroke="black" d="M25.24,-143.51C24.25,-123.58 25.92,-91.28 44,-72 63.33,-51.39 133.36,-36.42 186.23,-27.75"/>
<polygon fill="black" stroke="black" points="186.75,-31.21 196.07,-26.18 185.65,-24.3 186.75,-31.21"/>
</g>
<!-- Icon -->
<g id="node3" class="node" pointer-events="visible" data-name="Icon">

<polygon fill="none" stroke="black" points="107,-108 53,-108 53,-72 107,-72 107,-108"/>
<text text-anchor="middle" x="80" y="-85.8" font-family="Helvetica,Arial,sans-serif" font-size="14.00">Icon</text>
</g>
<!-- Alert&#45;&gt;Icon -->
<g id="edge2" class="edge" data-name="Alert-&gt;Icon">

<path fill="none" stroke="black" d="M40.1,-143.7C46.13,-135.73 53.42,-126.1 60.11,-117.26"/>
<polygon fill="black" stroke="black" points="62.89,-119.4 66.14,-109.31 57.31,-115.17 62.89,-119.4"/>
</g>
<!-- Icon&#45;&gt;Tokens -->
<g id="edge14" class="edge" data-name="Icon-&gt;Tokens &amp; Base" data-comment="Icon-&gt;Tokens">

<path fill="none" stroke="black" d="M107.35,-77.66C111.91,-75.77 116.59,-73.83 121,-72 145.74,-61.75 173.18,-50.38 196.29,-40.82"/>
<polygon fill="black" stroke="black" points="197.61,-44.06 205.51,-37 194.94,-37.59 197.61,-44.06"/>
</g>
<!-- Badge -->
<g id="node4" class="node" pointer-events="visible" data-name="Badge">

<polygon fill="none" stroke="black" points="127,-180 73,-180 73,-144 127,-144 127,-180"/>
<text text-anchor="middle" x="100" y="-157.8" font-family="Helvetica,Arial,sans-serif" font-size="14.00">Badge</text>
</g>
<!-- Badge&#45;&gt;Tokens -->
<g id="edge3" class="edge" data-name="Badge-&gt;Tokens &amp; Base" data-comment="Badge-&gt;Tokens">

<path fill="none" stroke="black" d="M108.47,-143.59C118.49,-124.31 136.67,-93.17 159,-72 171.29,-60.34 186.6,-50.13 201.09,-41.87"/>
<polygon fill="black" stroke="black" points="202.53,-45.07 209.61,-37.19 199.16,-38.94 202.53,-45.07"/>
</g>
<!-- Badge&#45;&gt;Icon -->
<g id="edge4" class="edge" data-name="Badge-&gt;Icon">

<path fill="none" stroke="black" d="M95.06,-143.7C92.92,-136.24 90.38,-127.32 87.99,-118.97"/>
<polygon fill="black" stroke="black" points="91.42,-118.21 85.3,-109.56 84.68,-120.14 91.42,-118.21"/>
</g>
<!-- Button -->
<g id="node5" class="node" pointer-events="visible" data-name="Button">

<polygon fill="none" stroke="black" points="237.12,-180 182.88,-180 182.88,-144 237.12,-144 237.12,-180"/>
<text text-anchor="middle" x="210" y="-157.8" font-family="Helvetica,Arial,sans-serif" font-size="14.00">Button</text>
</g>
<!-- Button&#45;&gt;Tokens -->
<g id="edge5" class="edge" data-name="Button-&gt;Tokens &amp; Base" data-comment="Button-&gt;Tokens">

<path fill="none" stroke="black" d="M214.78,-143.59C221.4,-119.5 233.41,-75.75 241.3,-47.03"/>
<polygon fill="black" stroke="black" points="244.63,-48.14 243.9,-37.57 237.88,-46.29 244.63,-48.14"/>
</g>
<!-- Button&#45;&gt;Icon -->
<g id="edge6" class="edge" data-name="Button-&gt;Icon">

<path fill="none" stroke="black" d="M182.43,-146.15C163.43,-135.92 137.96,-122.21 117.17,-111.01"/>
<polygon fill="black" stroke="black" points="118.88,-107.96 108.42,-106.3 115.56,-114.12 118.88,-107.96"/>
</g>
<!-- Button Group -->
<g id="node6" class="node" pointer-events="visible" data-name="Button Group">

<polygon fill="none" stroke="black" points="209.89,-252 116.11,-252 116.11,-216 209.89,-216 209.89,-252"/>
<text text-anchor="middle" x="163" y="-229.8" font-family="Helvetica,Arial,sans-serif" font-size="14.00">Button Group</text>
</g>
<!-- Button Group&#45;&gt;Tokens -->
<g id="edge7" class="edge" data-name="Button Group-&gt;Tokens &amp; Base" data-comment="Button Group-&gt;Tokens">

<path fill="none" stroke="black" d="M163.03,-215.8C163.54,-197.51 165.74,-167.99 174,-144 186.6,-107.41 210.91,-69.93 228.45,-45.68"/>
<polygon fill="black" stroke="black" points="231.24,-47.79 234.36,-37.66 225.61,-43.63 231.24,-47.79"/>
</g>
<!-- Button Group&#45;&gt;Button -->
<g id="edge8" class="edge" data-name="Button Group-&gt;Button">

<path fill="none" stroke="black" d="M174.62,-215.7C179.91,-207.81 186.3,-198.3 192.18,-189.55"/>
<polygon fill="black" stroke="black" points="195,-191.61 197.67,-181.36 189.19,-187.71 195,-191.61"/>
</g>
<!-- Sidebar -->
<g id="node7" class="node" pointer-events="visible" data-name="Sidebar">

<polygon fill="none" stroke="black" points="290.27,-252 231.73,-252 231.73,-216 290.27,-216 290.27,-252"/>
<text text-anchor="middle" x="261" y="-229.8" font-family="Helvetica,Arial,sans-serif" font-size="14.00">Sidebar</text>
</g>
<!-- Sidebar&#45;&gt;Tokens -->
<g id="edge9" class="edge" data-name="Sidebar-&gt;Tokens &amp; Base" data-comment="Sidebar-&gt;Tokens">

<path fill="none" stroke="black" d="M260.04,-215.85C257.98,-179.14 253.13,-92.66 250.6,-47.53"/>
<polygon fill="black" stroke="black" points="254.11,-47.53 250.05,-37.74 247.12,-47.92 254.11,-47.53"/>
</g>
<!-- Sidebar&#45;&gt;Button -->
<g id="edge10" class="edge" data-name="Sidebar-&gt;Button">

<path fill="none" stroke="black" d="M248.39,-215.7C242.59,-207.73 235.57,-198.1 229.14,-189.26"/>
<polygon fill="black" stroke="black" points="232.07,-187.35 223.35,-181.33 226.41,-191.47 232.07,-187.35"/>
</g>
<!-- Card -->
<g id="node8" class="node" pointer-events="visible" data-name="Card">

<polygon fill="none" stroke="black" points="331,-108 277,-108 277,-72 331,-72 331,-108"/>
<text text-anchor="middle" x="304" y="-85.8" font-family="Helvetica,Arial,sans-serif" font-size="14.00">Card</text>
</g>
<!-- Card&#45;&gt;Tokens -->
<g id="edge11" class="edge" data-name="Card-&gt;Tokens &amp; Base" data-comment="Card-&gt;Tokens">

<path fill="none" stroke="black" d="M290.4,-71.7C284.08,-63.64 276.42,-53.89 269.41,-44.98"/>
<polygon fill="black" stroke="black" points="272.3,-43 263.37,-37.29 266.8,-47.32 272.3,-43"/>
</g>
<!-- Confirm Dialog -->
<g id="node9" class="node" pointer-events="visible" data-name="Confirm Dialog">

<polygon fill="none" stroke="black" points="454.54,-108 349.46,-108 349.46,-72 454.54,-72 454.54,-108"/>
<text text-anchor="middle" x="402" y="-85.8" font-family="Helvetica,Arial,sans-serif" font-size="14.00">Confirm Dialog</text>
</g>
<!-- Confirm Dialog&#45;&gt;Tokens -->
<g id="edge12" class="edge" data-name="Confirm Dialog-&gt;Tokens &amp; Base" data-comment="Confirm Dialog-&gt;Tokens">

<path fill="none" stroke="black" d="M363.79,-71.52C343.63,-62.29 318.69,-50.89 297.22,-41.06"/>
<polygon fill="black" stroke="black" points="298.92,-37.99 288.37,-37.01 296.01,-44.35 298.92,-37.99"/>
</g>
<!-- Form -->
<g id="node10" class="node" pointer-events="visible" data-name="Form">

<polygon fill="none" stroke="black" points="527,-108 473,-108 473,-72 527,-72 527,-108"/>
<text text-anchor="middle" x="500" y="-85.8" font-family="Helvetica,Arial,sans-serif" font-size="14.00">Form</text>
</g>
<!-- Form&#45;&gt;Tokens -->
<g id="edge13" class="edge" data-name="Form-&gt;Tokens &amp; Base" data-comment="Form-&gt;Tokens">

<path fill="none" stroke="black" d="M472.72,-75.43C469.81,-74.19 466.87,-73.02 464,-72 413.95,-54.22 355.31,-40.19 311.92,-31.05"/>
<polygon fill="black" stroke="black" points="312.65,-27.63 302.15,-29.02 311.23,-34.48 312.65,-27.63"/>
</g>
<!-- Modal -->
<g id="node11" class="node" pointer-events="visible" data-name="Modal">

<polygon fill="none" stroke="black" points="599,-108 545,-108 545,-72 599,-72 599,-108"/>
<text text-anchor="middle" x="572" y="-85.8" font-family="Helvetica,Arial,sans-serif" font-size="14.00">Modal</text>
</g>
<!-- Modal&#45;&gt;Tokens -->
<g id="edge15" class="edge" data-name="Modal-&gt;Tokens &amp; Base" data-comment="Modal-&gt;Tokens">

<path fill="none" stroke="black" d="M544.78,-75.25C541.86,-74.05 538.89,-72.93 536,-72 460.95,-47.8 371.09,-33.44 312.15,-25.89"/>
<polygon fill="black" stroke="black" points="312.65,-22.43 302.29,-24.66 311.78,-29.38 312.65,-22.43"/>
</g>
<!-- Table -->
<g id="node12" class="node" pointer-events="visible" data-name="Table">

<polygon fill="none" stroke="black" points="671,-108 617,-108 617,-72 671,-72 671,-108"/>
<text text-anchor="middle" x="644" y="-85.8" font-family="Helvetica,Arial,sans-serif" font-size="14.00">Table</text>
</g>
<!-- Table&#45;&gt;Tokens -->
<g id="edge16" class="edge" data-name="Table-&gt;Tokens &amp; Base" data-comment="Table-&gt;Tokens">

<path fill="none" stroke="black" d="M616.81,-75.15C613.88,-73.96 610.91,-72.88 608,-72 506.97,-41.43 384.42,-28.17 311.79,-22.66"/>
<polygon fill="black" stroke="black" points="312.31,-19.19 302.08,-21.95 311.8,-26.17 312.31,-19.19"/>
</g>
</g>
</svg>