<svg width="280" height="216" viewBox="0 0 280 216" fill="none" xmlns="http://www.w3.org/2000/svg">
<path d="M8.97329 9.38866H17.7804V38.3026H8.97329V9.38866ZM0.166172 84.5815H8.97329V46.9436H17.7804V78.3501C17.7804 80.4272 18.6944 82.8367 19.6914 84.5815H28.7478C27.5846 82.5044 26.5875 80.6765 26.5875 78.3501V50.3501C26.5875 45.1987 24.7596 43.4539 22.6825 42.6231C24.8427 41.4599 26.5875 39.8812 26.5875 35.8931V9.30558C26.5875 4.48659 22.6825 0.581543 17.7804 0.581543L8.80712 0.830801C3.90504 0.830801 0 4.73585 0 9.55484V36.1424L0.166172 84.5815Z" fill="#5B86BE"/>
<path d="M43.2876 26.5044H52.0947V77.1868H43.2876V26.5044ZM34.4805 73.5311C34.4805 80.8426 40.4627 86.8248 47.7742 86.8248C55.0858 86.8248 61.068 80.8426 61.068 73.5311V30.2432C61.068 22.9317 55.0858 16.9495 47.7742 16.9495C40.4627 16.9495 34.4805 22.9317 34.4805 30.2432V73.5311Z" fill="#5B86BE"/>
<path d="M69.377 0C71.7864 0.0830861 73.9467 1.08012 75.6084 2.65875C77.2701 4.23739 78.2672 6.48071 78.2672 8.89021V86.0771H69.377V0Z" fill="#5B86BE"/>
<path d="M96.2139 26.5044H105.021V47.442H96.2139V26.5044ZM87.4067 73.5311C87.4067 80.8426 93.3889 86.8248 100.701 86.8248C108.012 86.8248 113.994 80.8426 113.994 73.5311V68.3797H105.187V77.1868H96.38V56.3323H114.077V30.2432C114.077 22.9317 108.095 16.9495 100.784 16.9495C93.472 16.9495 87.4898 22.9317 87.4898 30.2432V73.5311H87.4067Z" fill="#5B86BE"/>
<path d="M121.472 0.747803H129.614L134.849 16.0356C136.261 20.3561 137.757 24.7597 139.003 29.0801H139.252C140.581 24.7597 141.994 20.3561 143.406 16.0356L148.724 0.747803H156.866V86.0772H148.059V47.1098C148.059 39.2997 148.558 28.0831 149.056 21.4362H148.724C145.733 31.822 142.409 40.7953 139.252 50.1009H139.003C135.929 40.7953 132.522 31.822 129.531 21.4362H129.282C129.78 28.1662 130.279 39.3828 130.279 47.1098V86.0772H121.472V0.747803Z" fill="#5B86BE"/>
<path d="M174.065 26.5044H182.873V77.1868H174.065V26.5044ZM165.258 73.5311C165.258 80.8426 171.24 86.8248 178.552 86.8248C185.864 86.8248 191.846 80.8426 191.846 73.5311V30.2432C191.846 22.9317 185.864 16.9495 178.552 16.9495C171.24 16.9495 165.258 22.9317 165.258 30.2432V73.5311Z" fill="#5B86BE"/>
<path d="M208.961 26.5045H217.768V77.187H208.961V26.5045ZM226.659 0.747803H217.852V17.6974H209.044C204.142 17.6974 200.237 21.6024 200.237 26.5045V77.187C200.237 82.089 204.142 85.9941 209.044 85.9941H226.742V0.747803H226.659Z" fill="#5B86BE"/>
<path d="M243.857 26.5044H252.665V47.442H243.857V26.5044ZM235.05 73.5311C235.05 80.8426 241.032 86.8248 248.344 86.8248C255.656 86.8248 261.638 80.8426 261.638 73.5311V68.3797H252.831V77.1868H244.024V56.3323H261.721V30.2432C261.721 22.9317 255.739 16.9495 248.427 16.9495C241.116 16.9495 235.133 22.9317 235.133 30.2432V73.5311H235.05Z" fill="#5B86BE"/>
<path d="M269.947 0C272.356 0.0830861 274.516 1.08012 276.178 2.65875C277.84 4.23739 278.837 6.48071 278.837 8.89021V86.0771H270.03V0H269.947Z" fill="#5B86BE"/>
<path d="M130.611 103.858V91.0623H121.804V103.691H113.08V112.415H121.804V206.469C121.804 208.878 122.801 211.122 124.463 212.7C126.125 214.279 128.285 215.193 130.694 215.359V112.748H139.501V103.858H130.611Z" fill="#5B86BE"/>
<path d="M38.9675 112.748H30.0773V133.686H38.8844C43.7865 133.686 47.6915 137.591 47.6915 142.493V159.691C47.6915 167.003 41.7093 172.985 34.3978 172.985C27.0862 172.985 21.104 167.003 21.104 159.691V154.54H29.9111V163.347H38.7182V142.41H30.0773C25.1752 142.41 21.2702 138.505 21.2702 133.602V116.404C21.2702 109.092 27.2524 103.11 34.5639 103.11C41.8755 103.11 47.8577 109.092 47.8577 116.404V121.555H38.9675V112.748Z" fill="#333333"/>
<path d="M63.9766 112.748H72.7838V163.43H63.9766V112.748ZM55.0864 159.691C55.0864 167.003 61.0686 172.985 68.3802 172.985C75.6918 172.985 81.674 167.003 81.674 159.691V116.404C81.674 109.092 75.6918 103.11 68.3802 103.11C61.0686 103.11 55.0864 109.092 55.0864 116.404V159.691Z" fill="#333333"/>
<path d="M89.1515 125.709H84.8311V116.902H89.1515V99.9526C89.1515 95.0506 93.0566 91.1455 97.9587 91.1455H109.923V99.9526H98.0417V116.902H106.766V125.709H98.0417V163.015C98.0417 165.424 97.0447 167.668 95.383 169.246C93.7213 170.825 91.561 171.739 89.1515 171.905V125.709Z" fill="#333333"/>
<path d="M191.846 163.43C191.846 168.332 187.941 172.237 183.039 172.237H147.644V103.858H156.451V163.43H165.258V103.858H174.065V163.43H182.873V103.858H191.68V163.43H191.846Z" fill="#333333"/>
<path d="M207.383 130.777H216.19V163.43H207.383V130.777ZM225.08 112.748C225.08 107.846 221.175 103.941 216.273 103.941H200.487V112.748H216.273V121.97H207.466C202.564 121.97 198.659 125.875 198.659 130.777V163.43C198.659 168.332 202.564 172.237 207.466 172.237H225.163V112.748H225.08Z" fill="#333333"/>
<path d="M231.395 112.748C231.395 107.846 235.3 103.941 240.202 103.941H249.009V112.748H240.202V172.32H231.395V112.748Z" fill="#333333"/>
<path d="M262.303 112.665H271.11V133.603H262.303V112.665ZM253.496 159.608C253.496 166.92 259.478 172.902 266.789 172.902C274.101 172.902 280.083 166.92 280.083 159.608V154.457H271.276V163.264H262.469V142.327H280V116.321C280 109.009 274.018 103.027 266.706 103.027C259.395 103.027 253.413 109.009 253.413 116.321V159.608H253.496Z" fill="#333333"/>
</svg>
