<?xml version="1.0" standalone="no"?>
<svg xmlns="http://www.w3.org/2000/svg" xmlns:xlink="http://www.w3.org/1999/xlink" width="755pt" height="260pt" viewBox="0.00 0.00 754.61 260.00">
<g id="graph0" class="graph" transform="translate(4,256) scale(1)" data-name="dependencies">

<polygon fill="white" stroke="none" points="-4,4 -4,-256 750.61,-256 750.61,4 -4,4" style=""/>
<!-- Tokens &amp; Base -->
<g id="node1" class="node" pointer-events="visible" data-name="Tokens &amp; Base">

<polygon fill="none" stroke="black" points="327.32,-36 224.68,-36 224.68,0 327.32,0 327.32,-36" style=""/>
<text text-anchor="middle" x="276" y="-13.8" font-family="Helvetica,Arial,sans-serif" font-size="14.00" style="">Tokens &amp; Base</text>
</g>
<!-- Alert -->
<g id="node2" class="node" pointer-events="visible" data-name="Alert">

<polygon fill="none" stroke="black" points="54,-180 0,-180 0,-144 54,-144 54,-180" style=""/>
<text text-anchor="middle" x="27" y="-157.8" font-family="Helvetica,Arial,sans-serif" font-size="14.00" style="">Alert</text>
</g>
<!-- Alert&#45;&gt;Tokens &amp; Base -->
<g id="edge1" class="edge" data-name="Alert-&gt;Tokens &amp; Base">

<path fill="none" stroke="black" d="M25.16,-143.78C24.05,-123.79 25.54,-91.13 44,-72 67.04,-48.12 152.52,-33.34 213.01,-25.64" style=""/>
<polygon fill="black" stroke="black" points="213.37,-29.12 222.86,-24.43 212.51,-22.18 213.37,-29.12" style=""/>
</g>
<!-- Icon -->
<g id="node3" class="node" pointer-events="visible" data-name="Icon">

<polygon fill="none" stroke="black" points="107,-108 53,-108 53,-72 107,-72 107,-108" style=""/>
<text text-anchor="middle" x="80" y="-85.8" font-family="Helvetica,Arial,sans-serif" font-size="14.00" style="">Icon</text>
</g>
<!-- Alert&#45;&gt;Icon -->
<g id="edge2" class="edge" data-name="Alert-&gt;Icon">

<path fill="none" stroke="black" d="M40.1,-143.7C46.13,-135.73 53.42,-126.1 60.11,-117.26" style=""/>
<polygon fill="black" stroke="black" points="62.89,-119.4 66.14,-109.31 57.31,-115.17 62.89,-119.4" style=""/>
</g>
<!-- Icon&#45;&gt;Tokens &amp; Base -->
<g id="edge14" class="edge" data-name="Icon-&gt;Tokens &amp; Base">

<path fill="none" stroke="black" d="M107.25,-77.42C111.82,-75.56 116.53,-73.69 121,-72 151.31,-60.55 185.35,-48.79 213.79,-39.27" style=""/>
<polygon fill="black" stroke="black" points="214.58,-42.69 222.96,-36.21 212.36,-36.05 214.58,-42.69" style=""/>
</g>
<!-- Badge -->
<g id="node4" class="node" pointer-events="visible" data-name="Badge">

<polygon fill="none" stroke="black" points="127,-180 73,-180 73,-144 127,-144 127,-180" style=""/>
<text text-anchor="middle" x="100" y="-157.8" font-family="Helvetica,Arial,sans-serif" font-size="14.00" style="">Badge</text>
</g>
<!-- Badge&#45;&gt;Tokens &amp; Base -->
<g id="edge3" class="edge" data-name="Badge-&gt;Tokens &amp; Base">

<path fill="none" stroke="black" d="M107.72,-143.84C117.29,-124.21 135.29,-92.19 159,-72 174.97,-58.4 195.01,-47.64 213.96,-39.46" style=""/>
<polygon fill="black" stroke="black" points="215.03,-42.81 222.95,-35.76 212.37,-36.34 215.03,-42.81" style=""/>
</g>
<!-- Badge&#45;&gt;Icon -->
<g id="edge4" class="edge" data-name="Badge-&gt;Icon">

<path fill="none" stroke="black" d="M95.06,-143.7C92.92,-136.24 90.38,-127.32 87.99,-118.97" style=""/>
<polygon fill="black" stroke="black" points="91.42,-118.21 85.3,-109.56 84.68,-120.14 91.42,-118.21" style=""/>
</g>
<!-- Button -->
<g id="node5" class="node" pointer-events="visible" data-name="Button">

<polygon fill="none" stroke="black" points="237.12,-180 182.88,-180 182.88,-144 237.12,-144 237.12,-180" style=""/>
<text text-anchor="middle" x="210" y="-157.8" font-family="Helvetica,Arial,sans-serif" font-size="14.00" style="">Button</text>
</g>
<!-- Button&#45;&gt;Tokens &amp; Base -->
<g id="edge5" class="edge" data-name="Button-&gt;Tokens &amp; Base">

<path fill="none" stroke="black" d="M212.85,-143.55C216.32,-125.06 223.24,-95.37 235,-72 239.71,-62.64 246.18,-53.3 252.59,-45.13" style=""/>
<polygon fill="black" stroke="black" points="255.11,-47.58 258.75,-37.63 249.7,-43.14 255.11,-47.58" style=""/>
</g>
<!-- Button&#45;&gt;Icon -->
<g id="edge6" class="edge" data-name="Button-&gt;Icon">

<path fill="none" stroke="black" d="M182.43,-146.15C163.43,-135.92 137.96,-122.21 117.17,-111.01" style=""/>
<polygon fill="black" stroke="black" points="118.88,-107.96 108.42,-106.3 115.56,-114.12 118.88,-107.96" style=""/>
</g>
<!-- Button Group -->
<g id="node6" class="node" pointer-events="visible" data-name="Button Group">

<polygon fill="none" stroke="black" points="209.89,-252 116.11,-252 116.11,-216 209.89,-216 209.89,-252" style=""/>
<text text-anchor="middle" x="163" y="-229.8" font-family="Helvetica,Arial,sans-serif" font-size="14.00" style="">Button Group</text>
</g>
<!-- Button Group&#45;&gt;Tokens &amp; Base -->
<g id="edge7" class="edge" data-name="Button Group-&gt;Tokens &amp; Base">

<path fill="none" stroke="black" d="M162.99,-215.78C163.47,-197.49 165.64,-167.96 174,-144 186.36,-108.59 194.14,-100.94 218,-72 226.24,-62.01 236.34,-52.14 245.8,-43.67" style=""/>
<polygon fill="black" stroke="black" points="247.84,-46.53 253.08,-37.33 243.24,-41.26 247.84,-46.53" style=""/>
</g>
<!-- Button Group&#45;&gt;Button -->
<g id="edge8" class="edge" data-name="Button Group-&gt;Button">

<path fill="none" stroke="black" d="M174.62,-215.7C179.91,-207.81 186.3,-198.3 192.18,-189.55" style=""/>
<polygon fill="black" stroke="black" points="195,-191.61 197.67,-181.36 189.19,-187.71 195,-191.61" style=""/>
</g>
<!-- Sidebar -->
<g id="node7" class="node" pointer-events="visible" data-name="Sidebar">

<polygon fill="none" stroke="black" points="290.27,-252 231.73,-252 231.73,-216 290.27,-216 290.27,-252" style=""/>
<text text-anchor="middle" x="261" y="-229.8" font-family="Helvetica,Arial,sans-serif" font-size="14.00" style="">Sidebar</text>
</g>
<!-- Sidebar&#45;&gt;Tokens &amp; Base -->
<g id="edge9" class="edge" data-name="Sidebar-&gt;Tokens &amp; Base">

<path fill="none" stroke="black" d="M261.15,-215.57C261.54,-185.98 262.95,-124.07 268,-72 268.78,-64 269.94,-55.37 271.14,-47.45" style=""/>
<polygon fill="black" stroke="black" points="274.59,-48.05 272.7,-37.62 267.67,-46.95 274.59,-48.05" style=""/>
</g>
<!-- Sidebar&#45;&gt;Button -->
<g id="edge10" class="edge" data-name="Sidebar-&gt;Button">

<path fill="none" stroke="black" d="M248.39,-215.7C242.59,-207.73 235.57,-198.1 229.14,-189.26" style=""/>
<polygon fill="black" stroke="black" points="232.07,-187.35 223.35,-181.33 226.41,-191.47 232.07,-187.35" style=""/>
</g>
<!-- Card -->
<g id="node8" class="node" pointer-events="visible" data-name="Card">

<polygon fill="none" stroke="black" points="331,-108 277,-108 277,-72 331,-72 331,-108" style=""/>
<text text-anchor="middle" x="304" y="-85.8" font-family="Helvetica,Arial,sans-serif" font-size="14.00" style="">Card</text>
</g>
<!-- Card&#45;&gt;Tokens &amp; Base -->
<g id="edge11" class="edge" data-name="Card-&gt;Tokens &amp; Base">

<path fill="none" stroke="black" d="M297.08,-71.7C294.06,-64.15 290.45,-55.12 287.07,-46.68" style=""/>
<polygon fill="black" stroke="black" points="290.37,-45.49 283.4,-37.51 283.87,-48.09 290.37,-45.49" style=""/>
</g>
<!-- Confirm Dialog -->
<g id="node9" class="node" pointer-events="visible" data-name="Confirm Dialog">

<polygon fill="none" stroke="black" points="454.54,-108 349.46,-108 349.46,-72 454.54,-72 454.54,-108" style=""/>
<text text-anchor="middle" x="402" y="-85.8" font-family="Helvetica,Arial,sans-serif" font-size="14.00" style="">Confirm Dialog</text>
</g>
<!-- Confirm Dialog&#45;&gt;Tokens &amp; Base -->
<g id="edge12" class="edge" data-name="Confirm Dialog-&gt;Tokens &amp; Base">

<path fill="none" stroke="black" d="M370.53,-71.52C354.32,-62.51 334.36,-51.42 316.97,-41.76" style=""/>
<polygon fill="black" stroke="black" points="318.83,-38.79 308.39,-37 315.43,-44.91 318.83,-38.79" style=""/>
</g>
<!-- Form -->
<g id="node10" class="node" pointer-events="visible" data-name="Form">

<polygon fill="none" stroke="black" points="527,-108 473,-108 473,-72 527,-72 527,-108" style=""/>
<text text-anchor="middle" x="500" y="-85.8" font-family="Helvetica,Arial,sans-serif" font-size="14.00" style="">Form</text>
</g>
<!-- Form&#45;&gt;Tokens &amp; Base -->
<g id="edge13" class="edge" data-name="Form-&gt;Tokens &amp; Base">

<path fill="none" stroke="black" d="M472.69,-75.53C469.78,-74.27 466.85,-73.07 464,-72 423.13,-56.71 375.84,-43.4 338.92,-33.94" style=""/>
<polygon fill="black" stroke="black" points="339.83,-30.56 329.28,-31.5 338.11,-37.35 339.83,-30.56" style=""/>
</g>
<!-- Modal -->
<g id="node11" class="node" pointer-events="visible" data-name="Modal">

<polygon fill="none" stroke="black" points="599,-108 545,-108 545,-72 599,-72 599,-108" style=""/>
<text text-anchor="middle" x="572" y="-85.8" font-family="Helvetica,Arial,sans-serif" font-size="14.00" style="">Modal</text>
</g>
<!-- Modal&#45;&gt;Tokens &amp; Base -->
<g id="edge15" class="edge" data-name="Modal-&gt;Tokens &amp; Base">

<path fill="none" stroke="black" d="M544.76,-75.31C541.84,-74.09 538.89,-72.96 536,-72 470.43,-50.19 392.44,-35.74 339.1,-27.52" style=""/>
<polygon fill="black" stroke="black" points="339.67,-24.07 329.26,-26.03 338.63,-30.99 339.67,-24.07" style=""/>
</g>
<!-- Table -->
<g id="node12" class="node" pointer-events="visible" data-name="Table">

<polygon fill="none" stroke="black" points="671,-108 617,-108 617,-72 671,-72 671,-108" style=""/>
<text text-anchor="middle" x="644" y="-85.8" font-family="Helvetica,Arial,sans-serif" font-size="14.00" style="">Table</text>
</g>
<!-- Table&#45;&gt;Tokens &amp; Base -->
<g id="edge16" class="edge" data-name="Table-&gt;Tokens &amp; Base">

<path fill="none" stroke="black" d="M616.8,-75.18C613.88,-73.99 610.91,-72.9 608,-72 516.8,-43.81 406.63,-30.01 338.95,-23.72" style=""/>
<polygon fill="black" stroke="black" points="339.42,-20.25 329.15,-22.83 338.8,-27.22 339.42,-20.25" style=""/>
</g>
<!-- Tooltip -->
<g id="node13" class="node" pointer-events="visible" data-name="Tooltip">

<polygon fill="none" stroke="black" points="746.72,-108 689.28,-108 689.28,-72 746.72,-72 746.72,-108" style=""/>
<text text-anchor="middle" x="718" y="-85.8" font-family="Helvetica,Arial,sans-serif" font-size="14.00" style="">Tooltip</text>
</g>
<!-- Tooltip&#45;&gt;Tokens &amp; Base -->
<g id="edge17" class="edge" data-name="Tooltip-&gt;Tokens &amp; Base">

<path fill="none" stroke="black" d="M688.86,-74.95C685.91,-73.84 682.92,-72.83 680,-72 562.4,-38.75 419.55,-26.24 339.07,-21.62" style=""/>
<polygon fill="black" stroke="black" points="339.35,-18.13 329.17,-21.08 338.97,-25.12 339.35,-18.13" style=""/>
</g>
</g>
</svg>