<?xml version="1.0" standalone="no"?>
<svg xmlns="http://www.w3.org/2000/svg" xmlns:xlink="http://www.w3.org/1999/xlink" width="827pt" height="260pt" viewBox="0.00 0.00 826.61 260.00">
<g id="graph0" class="graph" transform="translate(4,256) scale(1)" data-name="dependencies">

<polygon fill="white" stroke="none" points="-4,4 -4,-256 822.61,-256 822.61,4 -4,4" style=""/>
<!-- Tokens &amp; Base -->
<g id="node1" class="node" pointer-events="visible" data-name="Tokens &amp; Base">

<polygon fill="none" stroke="black" points="355.32,-36 252.68,-36 252.68,0 355.32,0 355.32,-36" style=""/>
<text text-anchor="middle" x="304" y="-13.8" font-family="Helvetica,Arial,sans-serif" font-size="14.00" style="">Tokens &amp; Base</text>
</g>
<!-- Alert -->
<g id="node2" class="node" pointer-events="visible" data-name="Alert">

<polygon fill="none" stroke="black" points="54,-180 0,-180 0,-144 54,-144 54,-180" style=""/>
<text text-anchor="middle" x="27" y="-157.8" font-family="Helvetica,Arial,sans-serif" font-size="14.00" style="">Alert</text>
</g>
<!-- Alert&#45;&gt;Tokens &amp; Base -->
<g id="edge1" class="edge" data-name="Alert-&gt;Tokens &amp; Base">

<path fill="none" stroke="black" d="M25.08,-143.7C23.89,-123.64 25.32,-90.91 44,-72 70.97,-44.7 172.96,-30.48 240.9,-23.89" style=""/>
<polygon fill="black" stroke="black" points="241.19,-27.37 250.82,-22.96 240.54,-20.4 241.19,-27.37" style=""/>
</g>
<!-- Icon -->
<g id="node3" class="node" pointer-events="visible" data-name="Icon">

<polygon fill="none" stroke="black" points="107,-108 53,-108 53,-72 107,-72 107,-108" style=""/>
<text text-anchor="middle" x="80" y="-85.8" font-family="Helvetica,Arial,sans-serif" font-size="14.00" style="">Icon</text>
</g>
<!-- Alert&#45;&gt;Icon -->
<g id="edge2" class="edge" data-name="Alert-&gt;Icon">

<path fill="none" stroke="black" d="M40.1,-143.7C46.13,-135.73 53.42,-126.1 60.11,-117.26" style=""/>
<polygon fill="black" stroke="black" points="62.89,-119.4 66.14,-109.31 57.31,-115.17 62.89,-119.4" style=""/>
</g>
<!-- Icon&#45;&gt;Tokens &amp; Base -->
<g id="edge15" class="edge" data-name="Icon-&gt;Tokens &amp; Base">

<path fill="none" stroke="black" d="M107.18,-77.23C111.76,-75.39 116.49,-73.58 121,-72 160.6,-58.1 205.9,-44.96 241.52,-35.24" style=""/>
<polygon fill="black" stroke="black" points="242.05,-38.73 250.78,-32.74 240.22,-31.97 242.05,-38.73" style=""/>
</g>
<!-- Badge -->
<g id="node4" class="node" pointer-events="visible" data-name="Badge">

<polygon fill="none" stroke="black" points="127,-180 73,-180 73,-144 127,-144 127,-180" style=""/>
<text text-anchor="middle" x="100" y="-157.8" font-family="Helvetica,Arial,sans-serif" font-size="14.00" style="">Badge</text>
</g>
<!-- Badge&#45;&gt;Tokens &amp; Base -->
<g id="edge3" class="edge" data-name="Badge-&gt;Tokens &amp; Base">

<path fill="none" stroke="black" d="M107.45,-143.52C116.78,-123.59 134.55,-91.29 159,-72 182.86,-53.18 214.03,-40.63 241.35,-32.5" style=""/>
<polygon fill="black" stroke="black" points="242.26,-35.87 250.94,-29.79 240.36,-29.14 242.26,-35.87" style=""/>
</g>
<!-- Badge&#45;&gt;Icon -->
<g id="edge4" class="edge" data-name="Badge-&gt;Icon">

<path fill="none" stroke="black" d="M95.06,-143.7C92.92,-136.24 90.38,-127.32 87.99,-118.97" style=""/>
<polygon fill="black" stroke="black" points="91.42,-118.21 85.3,-109.56 84.68,-120.14 91.42,-118.21" style=""/>
</g>
<!-- Button -->
<g id="node5" class="node" pointer-events="visible" data-name="Button">

<polygon fill="none" stroke="black" points="237.12,-180 182.88,-180 182.88,-144 237.12,-144 237.12,-180" style=""/>
<text text-anchor="middle" x="210" y="-157.8" font-family="Helvetica,Arial,sans-serif" font-size="14.00" style="">Button</text>
</g>
<!-- Button&#45;&gt;Tokens &amp; Base -->
<g id="edge5" class="edge" data-name="Button-&gt;Tokens &amp; Base">

<path fill="none" stroke="black" d="M211.61,-143.57C214.06,-124.57 220.16,-93.93 235,-72 242.53,-60.87 253.16,-51.08 263.82,-43.04" style=""/>
<polygon fill="black" stroke="black" points="265.76,-45.95 271.89,-37.31 261.71,-40.24 265.76,-45.95" style=""/>
</g>
<!-- Button&#45;&gt;Icon -->
<g id="edge6" class="edge" data-name="Button-&gt;Icon">

<path fill="none" stroke="black" d="M182.43,-146.15C163.43,-135.92 137.96,-122.21 117.17,-111.01" style=""/>
<polygon fill="black" stroke="black" points="118.88,-107.96 108.42,-106.3 115.56,-114.12 118.88,-107.96" style=""/>
</g>
<!-- Button Group -->
<g id="node6" class="node" pointer-events="visible" data-name="Button Group">

<polygon fill="none" stroke="black" points="209.89,-252 116.11,-252 116.11,-216 209.89,-216 209.89,-252" style=""/>
<text text-anchor="middle" x="163" y="-229.8" font-family="Helvetica,Arial,sans-serif" font-size="14.00" style="">Button Group</text>
</g>
<!-- Button Group&#45;&gt;Tokens &amp; Base -->
<g id="edge7" class="edge" data-name="Button Group-&gt;Tokens &amp; Base">

<path fill="none" stroke="black" d="M163.09,-215.82C163.64,-197.55 165.88,-168.04 174,-144 185.85,-108.9 189.99,-98.38 216,-72 227.49,-60.35 242.04,-50.24 255.99,-42.07" style=""/>
<polygon fill="black" stroke="black" points="257.66,-45.15 264.67,-37.21 254.23,-39.04 257.66,-45.15" style=""/>
</g>
<!-- Button Group&#45;&gt;Button -->
<g id="edge8" class="edge" data-name="Button Group-&gt;Button">

<path fill="none" stroke="black" d="M174.62,-215.7C179.91,-207.81 186.3,-198.3 192.18,-189.55" style=""/>
<polygon fill="black" stroke="black" points="195,-191.61 197.67,-181.36 189.19,-187.71 195,-191.61" style=""/>
</g>
<!-- Sidebar -->
<g id="node7" class="node" pointer-events="visible" data-name="Sidebar">

<polygon fill="none" stroke="black" points="290.27,-252 231.73,-252 231.73,-216 290.27,-216 290.27,-252" style=""/>
<text text-anchor="middle" x="261" y="-229.8" font-family="Helvetica,Arial,sans-serif" font-size="14.00" style="">Sidebar</text>
</g>
<!-- Sidebar&#45;&gt;Tokens &amp; Base -->
<g id="edge9" class="edge" data-name="Sidebar-&gt;Tokens &amp; Base">

<path fill="none" stroke="black" d="M258.72,-215.52C255.43,-185.35 251.45,-121.93 268,-72 271.09,-62.69 276.31,-53.51 281.85,-45.47" style=""/>
<polygon fill="black" stroke="black" points="284.59,-47.64 287.72,-37.52 278.96,-43.48 284.59,-47.64" style=""/>
</g>
<!-- Sidebar&#45;&gt;Button -->
<g id="edge10" class="edge" data-name="Sidebar-&gt;Button">

<path fill="none" stroke="black" d="M248.39,-215.7C242.59,-207.73 235.57,-198.1 229.14,-189.26" style=""/>
<polygon fill="black" stroke="black" points="232.07,-187.35 223.35,-181.33 226.41,-191.47 232.07,-187.35" style=""/>
</g>
<!-- Avatar -->
<g id="node8" class="node" pointer-events="visible" data-name="Avatar">

<polygon fill="none" stroke="black" points="331.09,-108 276.91,-108 276.91,-72 331.09,-72 331.09,-108" style=""/>
<text text-anchor="middle" x="304" y="-85.8" font-family="Helvetica,Arial,sans-serif" font-size="14.00" style="">Avatar</text>
</g>
<!-- Avatar&#45;&gt;Tokens &amp; Base -->
<g id="edge11" class="edge" data-name="Avatar-&gt;Tokens &amp; Base">

<path fill="none" stroke="black" d="M304,-71.7C304,-64.41 304,-55.73 304,-47.54" style=""/>
<polygon fill="black" stroke="black" points="307.5,-47.62 304,-37.62 300.5,-47.62 307.5,-47.62" style=""/>
</g>
<!-- Card -->
<g id="node9" class="node" pointer-events="visible" data-name="Card">

<polygon fill="none" stroke="black" points="403,-108 349,-108 349,-72 403,-72 403,-108" style=""/>
<text text-anchor="middle" x="376" y="-85.8" font-family="Helvetica,Arial,sans-serif" font-size="14.00" style="">Card</text>
</g>
<!-- Card&#45;&gt;Tokens &amp; Base -->
<g id="edge12" class="edge" data-name="Card-&gt;Tokens &amp; Base">

<path fill="none" stroke="black" d="M358.2,-71.7C349.72,-63.45 339.41,-53.43 330.07,-44.35" style=""/>
<polygon fill="black" stroke="black" points="332.54,-41.86 322.93,-37.4 327.66,-46.88 332.54,-41.86" style=""/>
</g>
<!-- Confirm Dialog -->
<g id="node10" class="node" pointer-events="visible" data-name="Confirm Dialog">

<polygon fill="none" stroke="black" points="526.54,-108 421.46,-108 421.46,-72 526.54,-72 526.54,-108" style=""/>
<text text-anchor="middle" x="474" y="-85.8" font-family="Helvetica,Arial,sans-serif" font-size="14.00" style="">Confirm Dialog</text>
</g>
<!-- Confirm Dialog&#45;&gt;Tokens &amp; Base -->
<g id="edge13" class="edge" data-name="Confirm Dialog-&gt;Tokens &amp; Base">

<path fill="none" stroke="black" d="M431.54,-71.52C408.84,-62.17 380.68,-50.57 356.6,-40.66" style=""/>
<polygon fill="black" stroke="black" points="358.19,-37.53 347.61,-36.96 355.53,-44 358.19,-37.53" style=""/>
</g>
<!-- Form -->
<g id="node11" class="node" pointer-events="visible" data-name="Form">

<polygon fill="none" stroke="black" points="599,-108 545,-108 545,-72 599,-72 599,-108" style=""/>
<text text-anchor="middle" x="572" y="-85.8" font-family="Helvetica,Arial,sans-serif" font-size="14.00" style="">Form</text>
</g>
<!-- Form&#45;&gt;Tokens &amp; Base -->
<g id="edge14" class="edge" data-name="Form-&gt;Tokens &amp; Base">

<path fill="none" stroke="black" d="M544.74,-75.38C541.82,-74.15 538.87,-72.99 536,-72 480.09,-52.67 414.14,-38.38 366.87,-29.54" style=""/>
<polygon fill="black" stroke="black" points="367.54,-26.11 357.07,-27.74 366.27,-32.99 367.54,-26.11" style=""/>
</g>
<!-- Modal -->
<g id="node12" class="node" pointer-events="visible" data-name="Modal">

<polygon fill="none" stroke="black" points="671,-108 617,-108 617,-72 671,-72 671,-108" style=""/>
<text text-anchor="middle" x="644" y="-85.8" font-family="Helvetica,Arial,sans-serif" font-size="14.00" style="">Modal</text>
</g>
<!-- Modal&#45;&gt;Tokens &amp; Base -->
<g id="edge16" class="edge" data-name="Modal-&gt;Tokens &amp; Base">

<path fill="none" stroke="black" d="M616.79,-75.22C613.87,-74.02 610.9,-72.92 608,-72 526.75,-46.25 429.07,-32.04 366.77,-24.96" style=""/>
<polygon fill="black" stroke="black" points="367.39,-21.51 357.07,-23.89 366.62,-28.47 367.39,-21.51" style=""/>
</g>
<!-- Table -->
<g id="node13" class="node" pointer-events="visible" data-name="Table">

<polygon fill="none" stroke="black" points="743,-108 689,-108 689,-72 743,-72 743,-108" style=""/>
<text text-anchor="middle" x="716" y="-85.8" font-family="Helvetica,Arial,sans-serif" font-size="14.00" style="">Table</text>
</g>
<!-- Table&#45;&gt;Tokens &amp; Base -->
<g id="edge17" class="edge" data-name="Table-&gt;Tokens &amp; Base">

<path fill="none" stroke="black" d="M688.82,-75.13C685.89,-73.95 682.91,-72.87 680,-72 572.77,-39.93 442.38,-27.09 366.73,-22.07" style=""/>
<polygon fill="black" stroke="black" points="367.23,-18.6 357.03,-21.46 366.79,-25.58 367.23,-18.6" style=""/>
</g>
<!-- Tooltip -->
<g id="node14" class="node" pointer-events="visible" data-name="Tooltip">

<polygon fill="none" stroke="black" points="818.72,-108 761.28,-108 761.28,-72 818.72,-72 818.72,-108" style=""/>
<text text-anchor="middle" x="790" y="-85.8" font-family="Helvetica,Arial,sans-serif" font-size="14.00" style="">Tooltip</text>
</g>
<!-- Tooltip&#45;&gt;Tokens &amp; Base -->
<g id="edge18" class="edge" data-name="Tooltip-&gt;Tokens &amp; Base">

<path fill="none" stroke="black" d="M760.87,-74.92C757.91,-73.81 754.93,-72.81 752,-72 618.15,-35.07 454.83,-23.87 367.05,-20.48" style=""/>
<polygon fill="black" stroke="black" points="367.33,-16.98 357.2,-20.12 367.07,-23.98 367.33,-16.98" style=""/>
</g>
</g>
</svg>