<?xml version="1.0" standalone="no"?>
<svg xmlns="http://www.w3.org/2000/svg" xmlns:xlink="http://www.w3.org/1999/xlink" width="1203pt" height="260pt" viewBox="0.00 0.00 1203.16 260.00">
<g id="graph0" class="graph" transform="translate(4,256) scale(1)" data-name="dependencies">

<polygon fill="white" stroke="none" points="-4,4 -4,-256 1199.16,-256 1199.16,4 -4,4"/>
<!-- Tokens &amp; Base -->
<g id="node1" class="node" pointer-events="visible" data-name="Tokens &amp; Base">

<polygon fill="none" stroke="black" points="522.86,-36 420.23,-36 420.23,0 522.86,0 522.86,-36"/>
<text text-anchor="middle" x="471.54" y="-13.8" font-family="Helvetica,Arial,sans-serif" font-size="14.00">Tokens &amp; Base</text>
</g>
<!-- Accordion -->
<g id="node2" class="node" pointer-events="visible" data-name="Accordion">

<polygon fill="none" stroke="black" points="75.13,-180 -0.04,-180 -0.04,-144 75.13,-144 75.13,-180"/>
<text text-anchor="middle" x="37.54" y="-157.8" font-family="Helvetica,Arial,sans-serif" font-size="14.00">Accordion</text>
</g>
<!-- Accordion&#45;&gt;Tokens &amp; Base -->
<g id="edge1" class="edge" data-name="Accordion-&gt;Tokens &amp; Base">

<path fill="none" stroke="black" d="M45.39,-143.65C55.75,-122.9 76.09,-88.85 104.54,-72 154.75,-42.28 317.83,-28.08 408.79,-22.32"/>
<polygon fill="black" stroke="black" points="408.77,-25.82 418.54,-21.72 408.34,-18.84 408.77,-25.82"/>
</g>
<!-- Icon -->
<g id="node3" class="node" pointer-events="visible" data-name="Icon">

<polygon fill="none" stroke="black" points="181.54,-108 127.54,-108 127.54,-72 181.54,-72 181.54,-108"/>
<text text-anchor="middle" x="154.54" y="-85.8" font-family="Helvetica,Arial,sans-serif" font-size="14.00">Icon</text>
</g>
<!-- Accordion&#45;&gt;Icon -->
<g id="edge2" class="edge" data-name="Accordion-&gt;Icon">

<path fill="none" stroke="black" d="M66.77,-143.52C82.13,-134.33 101.11,-122.97 117.49,-113.17"/>
<polygon fill="black" stroke="black" points="119.22,-116.22 126,-108.08 115.62,-110.21 119.22,-116.22"/>
</g>
<!-- Icon&#45;&gt;Tokens &amp; Base -->
<g id="edge23" class="edge" data-name="Icon-&gt;Tokens &amp; Base">

<path fill="none" stroke="black" d="M181.61,-76.87C186.2,-75.08 190.97,-73.37 195.54,-72 267.25,-50.49 352.14,-35.73 408.66,-27.35"/>
<polygon fill="black" stroke="black" points="409.04,-30.83 418.43,-25.93 408.03,-23.9 409.04,-30.83"/>
</g>
<!-- Alert -->
<g id="node4" class="node" pointer-events="visible" data-name="Alert">

<polygon fill="none" stroke="black" points="147.54,-180 93.54,-180 93.54,-144 147.54,-144 147.54,-180"/>
<text text-anchor="middle" x="120.54" y="-157.8" font-family="Helvetica,Arial,sans-serif" font-size="14.00">Alert</text>
</g>
<!-- Alert&#45;&gt;Tokens &amp; Base -->
<g id="edge3" class="edge" data-name="Alert-&gt;Tokens &amp; Base">

<path fill="none" stroke="black" d="M113.99,-143.66C107.76,-123.86 101.6,-91.68 118.54,-72 155.24,-29.39 317.32,-20.56 408.56,-19.03"/>
<polygon fill="black" stroke="black" points="408.4,-22.53 418.35,-18.89 408.31,-15.53 408.4,-22.53"/>
</g>
<!-- Alert&#45;&gt;Icon -->
<g id="edge4" class="edge" data-name="Alert-&gt;Icon">

<path fill="none" stroke="black" d="M128.95,-143.7C132.66,-136.07 137.1,-126.92 141.24,-118.4"/>
<polygon fill="black" stroke="black" points="144.36,-119.99 145.58,-109.47 138.06,-116.93 144.36,-119.99"/>
</g>
<!-- Badge -->
<g id="node5" class="node" pointer-events="visible" data-name="Badge">

<polygon fill="none" stroke="black" points="219.54,-180 165.54,-180 165.54,-144 219.54,-144 219.54,-180"/>
<text text-anchor="middle" x="192.54" y="-157.8" font-family="Helvetica,Arial,sans-serif" font-size="14.00">Badge</text>
</g>
<!-- Badge&#45;&gt;Tokens &amp; Base -->
<g id="edge5" class="edge" data-name="Badge-&gt;Tokens &amp; Base">

<path fill="none" stroke="black" d="M195.7,-143.77C200.34,-123.45 211.04,-90.16 233.54,-72 260.1,-50.57 347.59,-35.11 408.75,-26.6"/>
<polygon fill="black" stroke="black" points="408.9,-30.11 418.34,-25.3 407.96,-23.18 408.9,-30.11"/>
</g>
<!-- Badge&#45;&gt;Icon -->
<g id="edge6" class="edge" data-name="Badge-&gt;Icon">

<path fill="none" stroke="black" d="M183.15,-143.7C178.96,-135.98 173.93,-126.71 169.26,-118.11"/>
<polygon fill="black" stroke="black" points="172.4,-116.55 164.55,-109.43 166.25,-119.89 172.4,-116.55"/>
</g>
<!-- Button -->
<g id="node6" class="node" pointer-events="visible" data-name="Button">

<polygon fill="none" stroke="black" points="367.66,-180 313.43,-180 313.43,-144 367.66,-144 367.66,-180"/>
<text text-anchor="middle" x="340.54" y="-157.8" font-family="Helvetica,Arial,sans-serif" font-size="14.00">Button</text>
</g>
<!-- Button&#45;&gt;Tokens &amp; Base -->
<g id="edge7" class="edge" data-name="Button-&gt;Tokens &amp; Base">

<path fill="none" stroke="black" d="M345.16,-143.5C350.99,-124.15 362.6,-92.95 381.54,-72 392.41,-59.99 406.65,-49.9 420.58,-41.87"/>
<polygon fill="black" stroke="black" points="422.2,-44.97 429.3,-37.11 418.84,-38.83 422.2,-44.97"/>
</g>
<!-- Button&#45;&gt;Icon -->
<g id="edge8" class="edge" data-name="Button-&gt;Icon">

<path fill="none" stroke="black" d="M313.1,-150.67C281.14,-138.64 228.16,-118.7 192.33,-105.22"/>
<polygon fill="black" stroke="black" points="193.81,-102.04 183.22,-101.79 191.34,-108.59 193.81,-102.04"/>
</g>
<!-- Button Group -->
<g id="node7" class="node" pointer-events="visible" data-name="Button Group">

<polygon fill="none" stroke="black" points="272.44,-252 178.65,-252 178.65,-216 272.44,-216 272.44,-252"/>
<text text-anchor="middle" x="225.54" y="-229.8" font-family="Helvetica,Arial,sans-serif" font-size="14.00">Button Group</text>
</g>
<!-- Button Group&#45;&gt;Tokens &amp; Base -->
<g id="edge9" class="edge" data-name="Button Group-&gt;Tokens &amp; Base">

<path fill="none" stroke="black" d="M230.7,-215.74C241.36,-182.99 268.87,-111.58 316.54,-72 342.76,-50.24 378.38,-37.24 408.86,-29.56"/>
<polygon fill="black" stroke="black" points="409.43,-33.03 418.36,-27.32 407.82,-26.21 409.43,-33.03"/>
</g>
<!-- Button Group&#45;&gt;Button -->
<g id="edge10" class="edge" data-name="Button Group-&gt;Button">

<path fill="none" stroke="black" d="M254.27,-215.52C269.14,-206.46 287.48,-195.3 303.42,-185.6"/>
<polygon fill="black" stroke="black" points="304.97,-188.75 311.69,-180.57 301.33,-182.78 304.97,-188.75"/>
</g>
<!-- Sidebar -->
<g id="node8" class="node" pointer-events="visible" data-name="Sidebar">

<polygon fill="none" stroke="black" points="348.81,-252 290.28,-252 290.28,-216 348.81,-216 348.81,-252"/>
<text text-anchor="middle" x="319.54" y="-229.8" font-family="Helvetica,Arial,sans-serif" font-size="14.00">Sidebar</text>
</g>
<!-- Sidebar&#45;&gt;Tokens &amp; Base -->
<g id="edge11" class="edge" data-name="Sidebar-&gt;Tokens &amp; Base">

<path fill="none" stroke="black" d="M311.85,-215.6C304.9,-197.4 296.85,-168.19 304.54,-144 316.44,-106.63 325.34,-97.01 355.54,-72 371.37,-58.9 390.97,-48.33 409.52,-40.18"/>
<polygon fill="black" stroke="black" points="410.73,-43.47 418.59,-36.37 408.02,-37.01 410.73,-43.47"/>
</g>
<!-- Sidebar&#45;&gt;Button -->
<g id="edge12" class="edge" data-name="Sidebar-&gt;Button">

<path fill="none" stroke="black" d="M324.74,-215.7C326.97,-208.24 329.65,-199.32 332.16,-190.97"/>
<polygon fill="black" stroke="black" points="335.46,-192.14 334.98,-181.55 328.75,-190.13 335.46,-192.14"/>
</g>
<!-- Pagination -->
<g id="node10" class="node" pointer-events="visible" data-name="Pagination">

<polygon fill="none" stroke="black" points="518.43,-252 442.66,-252 442.66,-216 518.43,-216 518.43,-252"/>
<text text-anchor="middle" x="480.54" y="-229.8" font-family="Helvetica,Arial,sans-serif" font-size="14.00">Pagination</text>
</g><g id="node9" class="node" pointer-events="visible" data-name="Navbar" data-comment="Pagination">

<polygon fill="none" stroke="black" points="424.25,-252 366.84,-252 366.84,-216 424.25,-216 424.25,-252"/>
<text text-anchor="middle" x="395.54" y="-229.8" font-family="Helvetica,Arial,sans-serif" font-size="14.00">Navbar</text>
</g>
<!-- Pagination&#45;&gt;Tokens &amp; Base -->
<g id="edge17" class="edge" data-name="Pagination-&gt;Tokens &amp; Base">

<path fill="none" stroke="black" d="M482.98,-215.86C484.33,-205.5 485.87,-192.02 486.54,-180 489.17,-133.53 482.1,-79.71 476.79,-47.56"/>
<polygon fill="black" stroke="black" points="480.27,-47.12 475.13,-37.85 473.37,-48.3 480.27,-47.12"/>
</g><g id="edge13" class="edge" data-name="Navbar-&gt;Tokens &amp; Base" data-comment="Pagination-&gt;Tokens &amp; Base">

<path fill="none" stroke="black" d="M398.1,-215.64C401.04,-197.49 406.52,-168.3 414.54,-144 426.02,-109.28 444.19,-71.31 456.93,-46.44"/>
<polygon fill="black" stroke="black" points="459.98,-48.15 461.49,-37.66 453.77,-44.92 459.98,-48.15"/>
</g>
<!-- Pagination&#45;&gt;Button -->
<g id="edge15" class="edge" data-name="Pagination-&gt;Button">

<path fill="none" stroke="black" d="M445.58,-215.52C425.07,-205.26 399.16,-192.31 378.2,-181.83"/>
<polygon fill="black" stroke="black" points="379.92,-178.77 369.41,-177.43 376.79,-185.03 379.92,-178.77"/>
</g><g id="edge14" class="edge" data-name="Navbar-&gt;Button" data-comment="Pagination-&gt;Button">

<path fill="none" stroke="black" d="M381.95,-215.7C375.62,-207.64 367.96,-197.89 360.96,-188.98"/>
<polygon fill="black" stroke="black" points="363.85,-187 354.92,-181.29 358.35,-191.32 363.85,-187"/>
</g>
<!-- Form -->
<g id="node11" class="node" pointer-events="visible" data-name="Form">

<polygon fill="none" stroke="black" points="477.54,-180 423.54,-180 423.54,-144 477.54,-144 477.54,-180"/>
<text text-anchor="middle" x="450.54" y="-157.8" font-family="Helvetica,Arial,sans-serif" font-size="14.00">Form</text>
</g>
<!-- Pagination&#45;&gt;Form -->
<g id="edge16" class="edge" data-name="Pagination-&gt;Form">

<path fill="none" stroke="black" d="M473.13,-215.7C469.9,-208.15 466.02,-199.12 462.41,-190.68"/>
<polygon fill="black" stroke="black" points="465.63,-189.31 458.47,-181.5 459.19,-192.07 465.63,-189.31"/>
</g>
<!-- Form&#45;&gt;Tokens &amp; Base -->
<g id="edge22" class="edge" data-name="Form-&gt;Tokens &amp; Base">

<path fill="none" stroke="black" d="M450.98,-143.83C451.65,-125.82 453.34,-96.75 457.54,-72 458.92,-63.93 460.95,-55.3 463.04,-47.4"/>
<polygon fill="black" stroke="black" points="466.36,-48.52 465.67,-37.95 459.61,-46.64 466.36,-48.52"/>
</g>
<!-- Avatar -->
<g id="node12" class="node" pointer-events="visible" data-name="Avatar">

<polygon fill="none" stroke="black" points="553.63,-108 499.46,-108 499.46,-72 553.63,-72 553.63,-108"/>
<text text-anchor="middle" x="526.54" y="-85.8" font-family="Helvetica,Arial,sans-serif" font-size="14.00">Avatar</text>
</g>
<!-- Avatar&#45;&gt;Tokens &amp; Base -->
<g id="edge18" class="edge" data-name="Avatar-&gt;Tokens &amp; Base">

<path fill="none" stroke="black" d="M512.95,-71.7C506.62,-63.64 498.96,-53.89 491.96,-44.98"/>
<polygon fill="black" stroke="black" points="494.85,-43 485.92,-37.29 489.35,-47.32 494.85,-43"/>
</g>
<!-- Card -->
<g id="node13" class="node" pointer-events="visible" data-name="Card">

<polygon fill="none" stroke="black" points="625.54,-108 571.54,-108 571.54,-72 625.54,-72 625.54,-108"/>
<text text-anchor="middle" x="598.54" y="-85.8" font-family="Helvetica,Arial,sans-serif" font-size="14.00">Card</text>
</g>
<!-- Card&#45;&gt;Tokens &amp; Base -->
<g id="edge19" class="edge" data-name="Card-&gt;Tokens &amp; Base">

<path fill="none" stroke="black" d="M571.3,-73.98C554.37,-64.65 532.27,-52.47 513.18,-41.95"/>
<polygon fill="black" stroke="black" points="515,-38.95 504.55,-37.19 511.62,-45.08 515,-38.95"/>
</g>
<!-- Confirm Dialog -->
<g id="node14" class="node" pointer-events="visible" data-name="Confirm Dialog">

<polygon fill="none" stroke="black" points="749.09,-108 644,-108 644,-72 749.09,-72 749.09,-108"/>
<text text-anchor="middle" x="696.54" y="-85.8" font-family="Helvetica,Arial,sans-serif" font-size="14.00">Confirm Dialog</text>
</g>
<!-- Confirm Dialog&#45;&gt;Tokens &amp; Base -->
<g id="edge20" class="edge" data-name="Confirm Dialog-&gt;Tokens &amp; Base">

<path fill="none" stroke="black" d="M643.51,-72.5C610.68,-62.29 568.38,-49.13 533.94,-38.41"/>
<polygon fill="black" stroke="black" points="535.1,-35.11 524.51,-35.48 533.02,-41.79 535.1,-35.11"/>
</g>
<!-- Divider -->
<g id="node15" class="node" pointer-events="visible" data-name="Divider">

<polygon fill="none" stroke="black" points="825.81,-108 767.28,-108 767.28,-72 825.81,-72 825.81,-108"/>
<text text-anchor="middle" x="796.54" y="-85.8" font-family="Helvetica,Arial,sans-serif" font-size="14.00">Divider</text>
</g>
<!-- Divider&#45;&gt;Tokens &amp; Base -->
<g id="edge21" class="edge" data-name="Divider-&gt;Tokens &amp; Base">

<path fill="none" stroke="black" d="M766.93,-74.95C764.13,-73.86 761.31,-72.86 758.54,-72 683.25,-48.57 593.44,-34.04 534.59,-26.25"/>
<polygon fill="black" stroke="black" points="535.11,-22.79 524.74,-24.98 534.21,-29.73 535.11,-22.79"/>
</g>
<!-- Modal -->
<g id="node16" class="node" pointer-events="visible" data-name="Modal">

<polygon fill="none" stroke="black" points="897.54,-108 843.54,-108 843.54,-72 897.54,-72 897.54,-108"/>
<text text-anchor="middle" x="870.54" y="-85.8" font-family="Helvetica,Arial,sans-serif" font-size="14.00">Modal</text>
</g>
<!-- Modal&#45;&gt;Tokens &amp; Base -->
<g id="edge24" class="edge" data-name="Modal-&gt;Tokens &amp; Base">

<path fill="none" stroke="black" d="M843.36,-75.14C840.43,-73.96 837.46,-72.88 834.54,-72 732.1,-41.09 607.77,-27.92 534.41,-22.52"/>
<polygon fill="black" stroke="black" points="534.81,-19.04 524.59,-21.83 534.32,-26.03 534.81,-19.04"/>
</g>
<!-- Spinner -->
<g id="node17" class="node" pointer-events="visible" data-name="Spinner">

<polygon fill="none" stroke="black" points="975.1,-108 915.99,-108 915.99,-72 975.1,-72 975.1,-108"/>
<text text-anchor="middle" x="945.54" y="-85.8" font-family="Helvetica,Arial,sans-serif" font-size="14.00">Spinner</text>
</g>
<!-- Spinner&#45;&gt;Tokens &amp; Base -->
<g id="edge25" class="edge" data-name="Spinner-&gt;Tokens &amp; Base">

<path fill="none" stroke="black" d="M915.62,-74.93C912.6,-73.82 909.54,-72.82 906.54,-72 777.25,-36.75 619.93,-24.92 534.37,-20.96"/>
<polygon fill="black" stroke="black" points="534.69,-17.48 524.54,-20.53 534.38,-24.47 534.69,-17.48"/>
</g>
<!-- Table -->
<g id="node18" class="node" pointer-events="visible" data-name="Table">

<polygon fill="none" stroke="black" points="1047.54,-108 993.54,-108 993.54,-72 1047.54,-72 1047.54,-108"/>
<text text-anchor="middle" x="1020.54" y="-85.8" font-family="Helvetica,Arial,sans-serif" font-size="14.00">Table</text>
</g>
<!-- Table&#45;&gt;Tokens &amp; Base -->
<g id="edge26" class="edge" data-name="Table-&gt;Tokens &amp; Base">

<path fill="none" stroke="black" d="M993.4,-75.02C990.46,-73.86 987.47,-72.82 984.54,-72 826.88,-28.01 632.78,-19.82 534.69,-18.73"/>
<polygon fill="black" stroke="black" points="534.76,-15.23 524.73,-18.65 534.69,-22.23 534.76,-15.23"/>
</g>
<!-- Switch -->
<g id="node19" class="node" pointer-events="visible" data-name="Switch">

<polygon fill="none" stroke="black" points="1119.93,-108 1065.16,-108 1065.16,-72 1119.93,-72 1119.93,-108"/>
<text text-anchor="middle" x="1092.54" y="-85.8" font-family="Helvetica,Arial,sans-serif" font-size="14.00">Switch</text>
</g>
<!-- Switch&#45;&gt;Tokens &amp; Base -->
<g id="edge27" class="edge" data-name="Switch-&gt;Tokens &amp; Base">

<path fill="none" stroke="black" d="M1065.01,-74.82C1062.2,-73.73 1059.35,-72.76 1056.54,-72 959.48,-45.58 664.56,-28.4 534.41,-21.91"/>
<polygon fill="black" stroke="black" points="534.76,-18.43 524.6,-21.43 534.41,-25.42 534.76,-18.43"/>
</g>
<!-- Tooltip -->
<!-- Tooltip -->
<g id="node20" class="node" pointer-events="visible" data-name="Tooltip">

<polygon fill="none" stroke="black" points="1195.27,-108 1137.82,-108 1137.82,-72 1195.27,-72 1195.27,-108"/>
<text text-anchor="middle" x="1166.54" y="-85.8" font-family="Helvetica,Arial,sans-serif" font-size="14.00">Tooltip</text>
</g>
<!-- Tooltip&#45;&gt;Tokens &amp; Base -->

<!-- Tooltip&#45;&gt;Tokens &amp; Base -->
<!-- Tooltip&#45;&gt;Tokens &amp; Base -->
<g id="edge28" class="edge" data-name="Tooltip-&gt;Tokens &amp; Base">

<path fill="none" stroke="black" d="M1137.44,-74.8C1134.48,-73.72 1131.49,-72.75 1128.54,-72 1017.21,-43.5 676.15,-27.1 534.37,-21.35"/>
<polygon fill="black" stroke="black" points="534.54,-17.86 524.41,-20.95 534.26,-24.85 534.54,-17.86"/>
</g>


</g>
</svg>