<?xml version="1.0" standalone="no"?>
<svg xmlns="http://www.w3.org/2000/svg" xmlns:xlink="http://www.w3.org/1999/xlink" width="1347pt" height="260pt" viewBox="0.00 0.00 1347.16 260.00">
<g id="graph0" class="graph" transform="translate(4,256) scale(1)" data-name="dependencies">

<polygon fill="white" stroke="none" points="-4,4 -4,-256 1343.16,-256 1343.16,4 -4,4"/>
<!-- Tokens &amp; Base -->
<g id="node1" class="node" pointer-events="visible" data-name="Tokens &amp; Base">

<polygon fill="none" stroke="black" points="594.86,-36 492.23,-36 492.23,0 594.86,0 594.86,-36"/>
<text text-anchor="middle" x="543.54" y="-13.8" font-family="Helvetica,Arial,sans-serif" font-size="14.00">Tokens &amp; Base</text>
</g>
<!-- Accordion -->
<g id="node2" class="node" pointer-events="visible" data-name="Accordion">

<polygon fill="none" stroke="black" points="75.13,-180 -0.04,-180 -0.04,-144 75.13,-144 75.13,-180"/>
<text text-anchor="middle" x="37.54" y="-157.8" font-family="Helvetica,Arial,sans-serif" font-size="14.00">Accordion</text>
</g>
<!-- Accordion&#45;&gt;Tokens &amp; Base -->
<g id="edge1" class="edge" data-name="Accordion-&gt;Tokens &amp; Base">

<path fill="none" stroke="black" d="M51.88,-143.55C70.1,-122.69 103.67,-88.54 140.54,-72 199.86,-45.39 382.57,-29.63 480.31,-22.88"/>
<polygon fill="black" stroke="black" points="480.55,-26.38 490.29,-22.21 480.07,-19.39 480.55,-26.38"/>
</g>
<!-- Icon -->
<g id="node3" class="node" pointer-events="visible" data-name="Icon">

<polygon fill="none" stroke="black" points="253.54,-108 199.54,-108 199.54,-72 253.54,-72 253.54,-108"/>
<text text-anchor="middle" x="226.54" y="-85.8" font-family="Helvetica,Arial,sans-serif" font-size="14.00">Icon</text>
</g>
<!-- Accordion&#45;&gt;Icon -->
<g id="edge2" class="edge" data-name="Accordion-&gt;Icon">

<path fill="none" stroke="black" d="M75.34,-147C108.24,-134.82 155.71,-117.24 188.65,-105.04"/>
<polygon fill="black" stroke="black" points="189.64,-108.4 197.8,-101.65 187.2,-101.84 189.64,-108.4"/>
</g>
<!-- Icon&#45;&gt;Tokens &amp; Base -->
<g id="edge25" class="edge" data-name="Icon-&gt;Tokens &amp; Base">

<path fill="none" stroke="black" d="M253.61,-76.87C258.2,-75.08 262.97,-73.37 267.54,-72 339.25,-50.49 424.14,-35.73 480.66,-27.35"/>
<polygon fill="black" stroke="black" points="481.04,-30.83 490.43,-25.93 480.03,-23.9 481.04,-30.83"/>
</g>
<!-- Alert -->
<g id="node4" class="node" pointer-events="visible" data-name="Alert">

<polygon fill="none" stroke="black" points="147.54,-180 93.54,-180 93.54,-144 147.54,-144 147.54,-180"/>
<text text-anchor="middle" x="120.54" y="-157.8" font-family="Helvetica,Arial,sans-serif" font-size="14.00">Alert</text>
</g>
<!-- Alert&#45;&gt;Tokens &amp; Base -->
<g id="edge3" class="edge" data-name="Alert-&gt;Tokens &amp; Base">

<path fill="none" stroke="black" d="M126.31,-143.71C134.18,-123.01 150.37,-89.01 176.54,-72 225.46,-40.21 389.08,-26.87 480.46,-21.79"/>
<polygon fill="black" stroke="black" points="480.46,-25.29 490.26,-21.26 480.09,-18.3 480.46,-25.29"/>
</g>
<!-- Alert&#45;&gt;Icon -->
<g id="edge4" class="edge" data-name="Alert-&gt;Icon">

<path fill="none" stroke="black" d="M147.02,-143.52C160.27,-134.76 176.51,-124.04 190.84,-114.58"/>
<polygon fill="black" stroke="black" points="192.73,-117.53 199.14,-109.09 188.87,-111.68 192.73,-117.53"/>
</g>
<!-- Badge -->
<g id="node5" class="node" pointer-events="visible" data-name="Badge">

<polygon fill="none" stroke="black" points="219.54,-180 165.54,-180 165.54,-144 219.54,-144 219.54,-180"/>
<text text-anchor="middle" x="192.54" y="-157.8" font-family="Helvetica,Arial,sans-serif" font-size="14.00">Badge</text>
</g>
<!-- Badge&#45;&gt;Tokens &amp; Base -->
<g id="edge5" class="edge" data-name="Badge-&gt;Tokens &amp; Base">

<path fill="none" stroke="black" d="M185.99,-143.66C179.76,-123.86 173.6,-91.68 190.54,-72 227.24,-29.39 389.32,-20.56 480.56,-19.03"/>
<polygon fill="black" stroke="black" points="480.4,-22.53 490.35,-18.89 480.31,-15.53 480.4,-22.53"/>
</g>
<!-- Badge&#45;&gt;Icon -->
<g id="edge6" class="edge" data-name="Badge-&gt;Icon">

<path fill="none" stroke="black" d="M200.95,-143.7C204.66,-136.07 209.1,-126.92 213.24,-118.4"/>
<polygon fill="black" stroke="black" points="216.36,-119.99 217.58,-109.47 210.06,-116.93 216.36,-119.99"/>
</g>
<!-- Button -->
<g id="node6" class="node" pointer-events="visible" data-name="Button">

<polygon fill="none" stroke="black" points="439.66,-180 385.43,-180 385.43,-144 439.66,-144 439.66,-180"/>
<text text-anchor="middle" x="412.54" y="-157.8" font-family="Helvetica,Arial,sans-serif" font-size="14.00">Button</text>
</g>
<!-- Button&#45;&gt;Tokens &amp; Base -->
<g id="edge7" class="edge" data-name="Button-&gt;Tokens &amp; Base">

<path fill="none" stroke="black" d="M417.16,-143.5C422.99,-124.15 434.6,-92.95 453.54,-72 464.41,-59.99 478.65,-49.9 492.58,-41.87"/>
<polygon fill="black" stroke="black" points="494.2,-44.97 501.3,-37.11 490.84,-38.83 494.2,-44.97"/>
</g>
<!-- Button&#45;&gt;Icon -->
<g id="edge8" class="edge" data-name="Button-&gt;Icon">

<path fill="none" stroke="black" d="M385.1,-150.67C353.14,-138.64 300.16,-118.7 264.33,-105.22"/>
<polygon fill="black" stroke="black" points="265.81,-102.04 255.22,-101.79 263.34,-108.59 265.81,-102.04"/>
</g>
<!-- Tag -->
<g id="node7" class="node" pointer-events="visible" data-name="Tag">

<polygon fill="none" stroke="black" points="291.54,-180 237.54,-180 237.54,-144 291.54,-144 291.54,-180"/>
<text text-anchor="middle" x="264.54" y="-157.8" font-family="Helvetica,Arial,sans-serif" font-size="14.00">Tag</text>
</g>
<!-- Tag&#45;&gt;Tokens &amp; Base -->
<g id="edge9" class="edge" data-name="Tag-&gt;Tokens &amp; Base">

<path fill="none" stroke="black" d="M267.7,-143.77C272.34,-123.45 283.04,-90.16 305.54,-72 332.1,-50.57 419.59,-35.11 480.75,-26.6"/>
<polygon fill="black" stroke="black" points="480.9,-30.11 490.34,-25.3 479.96,-23.18 480.9,-30.11"/>
</g>
<!-- Tag&#45;&gt;Icon -->
<g id="edge10" class="edge" data-name="Tag-&gt;Icon">

<path fill="none" stroke="black" d="M255.15,-143.7C250.96,-135.98 245.93,-126.71 241.26,-118.11"/>
<polygon fill="black" stroke="black" points="244.4,-116.55 236.55,-109.43 238.25,-119.89 244.4,-116.55"/>
</g>
<!-- Button Group -->
<g id="node8" class="node" pointer-events="visible" data-name="Button Group">

<polygon fill="none" stroke="black" points="344.44,-252 250.65,-252 250.65,-216 344.44,-216 344.44,-252"/>
<text text-anchor="middle" x="297.54" y="-229.8" font-family="Helvetica,Arial,sans-serif" font-size="14.00">Button Group</text>
</g>
<!-- Button Group&#45;&gt;Tokens &amp; Base -->
<g id="edge11" class="edge" data-name="Button Group-&gt;Tokens &amp; Base">

<path fill="none" stroke="black" d="M302.7,-215.74C313.36,-182.99 340.87,-111.58 388.54,-72 414.76,-50.24 450.38,-37.24 480.86,-29.56"/>
<polygon fill="black" stroke="black" points="481.43,-33.03 490.36,-27.32 479.82,-26.21 481.43,-33.03"/>
</g>
<!-- Button Group&#45;&gt;Button -->
<g id="edge12" class="edge" data-name="Button Group-&gt;Button">

<path fill="none" stroke="black" d="M326.27,-215.52C341.14,-206.46 359.48,-195.3 375.42,-185.6"/>
<polygon fill="black" stroke="black" points="376.97,-188.75 383.69,-180.57 373.33,-182.78 376.97,-188.75"/>
</g>
<!-- Sidebar -->
<g id="node9" class="node" pointer-events="visible" data-name="Sidebar">

<polygon fill="none" stroke="black" points="420.81,-252 362.28,-252 362.28,-216 420.81,-216 420.81,-252"/>
<text text-anchor="middle" x="391.54" y="-229.8" font-family="Helvetica,Arial,sans-serif" font-size="14.00">Sidebar</text>
</g>
<!-- Sidebar&#45;&gt;Tokens &amp; Base -->
<g id="edge13" class="edge" data-name="Sidebar-&gt;Tokens &amp; Base">

<path fill="none" stroke="black" d="M383.85,-215.6C376.9,-197.4 368.85,-168.19 376.54,-144 388.44,-106.63 397.34,-97.01 427.54,-72 443.37,-58.9 462.97,-48.33 481.52,-40.18"/>
<polygon fill="black" stroke="black" points="482.73,-43.47 490.59,-36.37 480.02,-37.01 482.73,-43.47"/>
</g>
<!-- Sidebar&#45;&gt;Button -->
<g id="edge14" class="edge" data-name="Sidebar-&gt;Button">

<path fill="none" stroke="black" d="M396.74,-215.7C398.97,-208.24 401.65,-199.32 404.16,-190.97"/>
<polygon fill="black" stroke="black" points="407.46,-192.14 406.98,-181.55 400.75,-190.13 407.46,-192.14"/>
</g>
<!-- Navbar -->
<g id="node10" class="node" pointer-events="visible" data-name="Navbar">

<polygon fill="none" stroke="black" points="496.25,-252 438.84,-252 438.84,-216 496.25,-216 496.25,-252"/>
<text text-anchor="middle" x="467.54" y="-229.8" font-family="Helvetica,Arial,sans-serif" font-size="14.00">Navbar</text>
</g>
<!-- Navbar&#45;&gt;Tokens &amp; Base -->
<g id="edge15" class="edge" data-name="Navbar-&gt;Tokens &amp; Base">

<path fill="none" stroke="black" d="M472.17,-215.82C480.35,-186.09 498.42,-123.32 518.54,-72 521.81,-63.67 525.79,-54.8 529.6,-46.75"/>
<polygon fill="black" stroke="black" points="532.74,-48.29 533.95,-37.77 526.44,-45.24 532.74,-48.29"/>
</g>
<!-- Navbar&#45;&gt;Button -->
<g id="edge16" class="edge" data-name="Navbar-&gt;Button">

<path fill="none" stroke="black" d="M453.95,-215.7C447.62,-207.64 439.96,-197.89 432.96,-188.98"/>
<polygon fill="black" stroke="black" points="435.85,-187 426.92,-181.29 430.35,-191.32 435.85,-187"/>
</g>
<!-- Pagination -->
<g id="node11" class="node" pointer-events="visible" data-name="Pagination">

<polygon fill="none" stroke="black" points="590.43,-252 514.66,-252 514.66,-216 590.43,-216 590.43,-252"/>
<text text-anchor="middle" x="552.54" y="-229.8" font-family="Helvetica,Arial,sans-serif" font-size="14.00">Pagination</text>
</g>
<!-- Pagination&#45;&gt;Tokens &amp; Base -->
<g id="edge19" class="edge" data-name="Pagination-&gt;Tokens &amp; Base">

<path fill="none" stroke="black" d="M540.66,-215.72C534.53,-205.76 527.7,-192.73 524.54,-180 513.2,-134.26 524.83,-79.48 534.23,-47.05"/>
<polygon fill="black" stroke="black" points="537.53,-48.21 537.1,-37.62 530.84,-46.17 537.53,-48.21"/>
</g>
<!-- Pagination&#45;&gt;Button -->
<g id="edge17" class="edge" data-name="Pagination-&gt;Button">

<path fill="none" stroke="black" d="M517.58,-215.52C497.07,-205.26 471.16,-192.31 450.2,-181.83"/>
<polygon fill="black" stroke="black" points="451.92,-178.77 441.41,-177.43 448.79,-185.03 451.92,-178.77"/>
</g>
<!-- Form -->
<g id="node12" class="node" pointer-events="visible" data-name="Form">

<polygon fill="none" stroke="black" points="587.54,-180 533.54,-180 533.54,-144 587.54,-144 587.54,-180"/>
<text text-anchor="middle" x="560.54" y="-157.8" font-family="Helvetica,Arial,sans-serif" font-size="14.00">Form</text>
</g>
<!-- Pagination&#45;&gt;Form -->
<g id="edge18" class="edge" data-name="Pagination-&gt;Form">

<path fill="none" stroke="black" d="M554.52,-215.7C555.36,-208.41 556.35,-199.73 557.28,-191.54"/>
<polygon fill="black" stroke="black" points="560.76,-191.94 558.42,-181.61 553.81,-191.15 560.76,-191.94"/>
</g>
<!-- Form&#45;&gt;Tokens &amp; Base -->
<g id="edge24" class="edge" data-name="Form-&gt;Tokens &amp; Base">

<path fill="none" stroke="black" d="M558.46,-143.59C555.59,-119.61 550.39,-76.14 546.95,-47.42"/>
<polygon fill="black" stroke="black" points="550.44,-47.13 545.77,-37.61 543.49,-47.96 550.44,-47.13"/>
</g>
<!-- Avatar -->
<g id="node13" class="node" pointer-events="visible" data-name="Avatar">

<polygon fill="none" stroke="black" points="625.63,-108 571.46,-108 571.46,-72 625.63,-72 625.63,-108"/>
<text text-anchor="middle" x="598.54" y="-85.8" font-family="Helvetica,Arial,sans-serif" font-size="14.00">Avatar</text>
</g>
<!-- Avatar&#45;&gt;Tokens &amp; Base -->
<g id="edge20" class="edge" data-name="Avatar-&gt;Tokens &amp; Base">

<path fill="none" stroke="black" d="M584.95,-71.7C578.62,-63.64 570.96,-53.89 563.96,-44.98"/>
<polygon fill="black" stroke="black" points="566.85,-43 557.92,-37.29 561.35,-47.32 566.85,-43"/>
</g>
<!-- Card -->
<g id="node14" class="node" pointer-events="visible" data-name="Card">

<polygon fill="none" stroke="black" points="697.54,-108 643.54,-108 643.54,-72 697.54,-72 697.54,-108"/>
<text text-anchor="middle" x="670.54" y="-85.8" font-family="Helvetica,Arial,sans-serif" font-size="14.00">Card</text>
</g>
<!-- Card&#45;&gt;Tokens &amp; Base -->
<g id="edge21" class="edge" data-name="Card-&gt;Tokens &amp; Base">

<path fill="none" stroke="black" d="M643.3,-73.98C626.37,-64.65 604.27,-52.47 585.18,-41.95"/>
<polygon fill="black" stroke="black" points="587,-38.95 576.55,-37.19 583.62,-45.08 587,-38.95"/>
</g>
<!-- Confirm Dialog -->
<g id="node15" class="node" pointer-events="visible" data-name="Confirm Dialog">

<polygon fill="none" stroke="black" points="821.09,-108 716,-108 716,-72 821.09,-72 821.09,-108"/>
<text text-anchor="middle" x="768.54" y="-85.8" font-family="Helvetica,Arial,sans-serif" font-size="14.00">Confirm Dialog</text>
</g>
<!-- Confirm Dialog&#45;&gt;Tokens &amp; Base -->
<g id="edge22" class="edge" data-name="Confirm Dialog-&gt;Tokens &amp; Base">

<path fill="none" stroke="black" d="M715.51,-72.5C682.68,-62.29 640.38,-49.13 605.94,-38.41"/>
<polygon fill="black" stroke="black" points="607.1,-35.11 596.51,-35.48 605.02,-41.79 607.1,-35.11"/>
</g>
<!-- Divider -->
<g id="node16" class="node" pointer-events="visible" data-name="Divider">

<polygon fill="none" stroke="black" points="897.81,-108 839.28,-108 839.28,-72 897.81,-72 897.81,-108"/>
<text text-anchor="middle" x="868.54" y="-85.8" font-family="Helvetica,Arial,sans-serif" font-size="14.00">Divider</text>
</g>
<!-- Divider&#45;&gt;Tokens &amp; Base -->
<g id="edge23" class="edge" data-name="Divider-&gt;Tokens &amp; Base">

<path fill="none" stroke="black" d="M838.93,-74.95C836.13,-73.86 833.31,-72.86 830.54,-72 755.25,-48.57 665.44,-34.04 606.59,-26.25"/>
<polygon fill="black" stroke="black" points="607.11,-22.79 596.74,-24.98 606.21,-29.73 607.11,-22.79"/>
</g>
<!-- Modal -->
<g id="node17" class="node" pointer-events="visible" data-name="Modal">

<polygon fill="none" stroke="black" points="969.54,-108 915.54,-108 915.54,-72 969.54,-72 969.54,-108"/>
<text text-anchor="middle" x="942.54" y="-85.8" font-family="Helvetica,Arial,sans-serif" font-size="14.00">Modal</text>
</g>
<!-- Modal&#45;&gt;Tokens &amp; Base -->
<g id="edge26" class="edge" data-name="Modal-&gt;Tokens &amp; Base">

<path fill="none" stroke="black" d="M915.36,-75.14C912.43,-73.96 909.46,-72.88 906.54,-72 804.1,-41.09 679.77,-27.92 606.41,-22.52"/>
<polygon fill="black" stroke="black" points="606.81,-19.04 596.59,-21.83 606.32,-26.03 606.81,-19.04"/>
</g>
<!-- Spinner -->
<g id="node18" class="node" pointer-events="visible" data-name="Spinner">

<polygon fill="none" stroke="black" points="1047.1,-108 987.99,-108 987.99,-72 1047.1,-72 1047.1,-108"/>
<text text-anchor="middle" x="1017.54" y="-85.8" font-family="Helvetica,Arial,sans-serif" font-size="14.00">Spinner</text>
</g>
<!-- Spinner&#45;&gt;Tokens &amp; Base -->
<g id="edge27" class="edge" data-name="Spinner-&gt;Tokens &amp; Base">

<path fill="none" stroke="black" d="M987.62,-74.93C984.6,-73.82 981.54,-72.82 978.54,-72 849.25,-36.75 691.93,-24.92 606.37,-20.96"/>
<polygon fill="black" stroke="black" points="606.69,-17.48 596.54,-20.53 606.38,-24.47 606.69,-17.48"/>
</g>
<!-- Table -->
<g id="node21" class="node" pointer-events="visible" data-name="Table">

<polygon fill="none" stroke="black" points="1263.54,-108 1209.54,-108 1209.54,-72 1263.54,-72 1263.54,-108"/>
<text text-anchor="middle" x="1236.54" y="-85.8" font-family="Helvetica,Arial,sans-serif" font-size="14.00">Table</text>
</g>
<!-- Table&#45;&gt;Tokens &amp; Base -->
<g id="edge30" class="edge" data-name="Table-&gt;Tokens &amp; Base">

<path fill="none" stroke="black" d="M1209.42,-74.95C1206.48,-73.8 1203.48,-72.78 1200.54,-72 1089.51,-42.36 748.28,-26.61 606.42,-21.19"/>
<polygon fill="black" stroke="black" points="606.57,-17.7 596.45,-20.82 606.31,-24.69 606.57,-17.7"/>
</g>
<!-- Switch -->
<g id="node19" class="node" pointer-events="visible" data-name="Switch">

<polygon fill="none" stroke="black" points="1119.93,-108 1065.16,-108 1065.16,-72 1119.93,-72 1119.93,-108"/>
<text text-anchor="middle" x="1092.54" y="-85.8" font-family="Helvetica,Arial,sans-serif" font-size="14.00">Switch</text>
</g>
<!-- Switch&#45;&gt;Tokens &amp; Base -->
<g id="edge28" class="edge" data-name="Switch-&gt;Tokens &amp; Base">

<path fill="none" stroke="black" d="M1065,-74.86C1062.19,-73.76 1059.34,-72.78 1056.54,-72 898.88,-28.01 704.78,-19.82 606.69,-18.73"/>
<polygon fill="black" stroke="black" points="606.76,-15.23 596.73,-18.65 606.69,-22.23 606.76,-15.23"/>
</g>
<!-- Tooltip -->
<g id="node22" class="node" pointer-events="visible" data-name="Tooltip">

<polygon fill="none" stroke="black" points="1339.27,-108 1281.82,-108 1281.82,-72 1339.27,-72 1339.27,-108"/>
<text text-anchor="middle" x="1310.54" y="-85.8" font-family="Helvetica,Arial,sans-serif" font-size="14.00">Tooltip</text>
</g>
<!-- Tooltip&#45;&gt;Tokens &amp; Base -->
<g id="edge31" class="edge" data-name="Tooltip-&gt;Tokens &amp; Base">

<path fill="none" stroke="black" d="M1281.45,-74.78C1278.49,-73.7 1275.49,-72.74 1272.54,-72 1147.22,-40.45 759.8,-25.55 606.71,-20.78"/>
<polygon fill="black" stroke="black" points="606.85,-17.28 596.75,-20.48 606.64,-24.28 606.85,-17.28"/>
</g>
<!-- Tooltip&#45;&gt;Tokens &amp; Base -->
<g id="node20" class="node" pointer-events="visible" data-name="Tab" data-comment="Tooltip-&gt;Tokens &amp; Base">

<polygon fill="none" stroke="black" points="1191.54,-108 1137.54,-108 1137.54,-72 1191.54,-72 1191.54,-108"/>
<text text-anchor="middle" x="1164.54" y="-85.8" font-family="Helvetica,Arial,sans-serif" font-size="14.00">Tab</text>
</g>
<!-- T&#45;&gt;Tokens &amp; Base -->
<g id="edge29" class="edge" data-name="Tab-&gt;Tokens &amp; Base" data-comment="T-&gt;Tokens &amp; Base">

<path fill="none" stroke="black" d="M1137.41,-74.98C1134.47,-73.83 1131.48,-72.8 1128.54,-72 1031.48,-45.58 736.56,-28.4 606.41,-21.91"/>
<polygon fill="black" stroke="black" points="606.76,-18.43 596.6,-21.43 606.41,-25.42 606.76,-18.43"/>
</g>
</g>
</svg>