<?xml version="1.0" standalone="no"?>
<svg xmlns="http://www.w3.org/2000/svg" xmlns:xlink="http://www.w3.org/1999/xlink" width="1088pt" height="260pt" viewBox="0.00 0.00 1088.16 260.00">
<g id="graph0" class="graph" transform="translate(4,256) scale(1)" data-name="dependencies">

<polygon fill="white" stroke="none" points="-4,4 -4,-256 1084.16,-256 1084.16,4 -4,4"/>
<!-- Tokens &amp; Base -->
<g id="node1" class="node" pointer-events="visible" data-name="Tokens &amp; Base">

<polygon fill="none" stroke="black" points="484.86,-36 382.23,-36 382.23,0 484.86,0 484.86,-36"/>
<text text-anchor="middle" x="433.54" y="-13.8" font-family="Helvetica,Arial,sans-serif" font-size="14.00">Tokens &amp; Base</text>
</g>
<!-- Accordion -->
<g id="node2" class="node" pointer-events="visible" data-name="Accordion">

<polygon fill="none" stroke="black" points="75.13,-180 -0.04,-180 -0.04,-144 75.13,-144 75.13,-180"/>
<text text-anchor="middle" x="37.54" y="-157.8" font-family="Helvetica,Arial,sans-serif" font-size="14.00">Accordion</text>
</g>
<!-- Accordion&#45;&gt;Tokens &amp; Base -->
<g id="edge1" class="edge" data-name="Accordion-&gt;Tokens &amp; Base">

<path fill="none" stroke="black" d="M46.74,-143.73C58.73,-123.05 81.73,-89.08 111.54,-72 154.68,-47.29 290,-31.55 370.84,-24.1"/>
<polygon fill="black" stroke="black" points="370.72,-27.62 380.36,-23.24 370.09,-20.65 370.72,-27.62"/>
</g>
<!-- Icon -->
<g id="node3" class="node" pointer-events="visible" data-name="Icon">

<polygon fill="none" stroke="black" points="191.54,-108 137.54,-108 137.54,-72 191.54,-72 191.54,-108"/>
<text text-anchor="middle" x="164.54" y="-85.8" font-family="Helvetica,Arial,sans-serif" font-size="14.00">Icon</text>
</g>
<!-- Accordion&#45;&gt;Icon -->
<g id="edge2" class="edge" data-name="Accordion-&gt;Icon">

<path fill="none" stroke="black" d="M69.26,-143.52C86.79,-133.86 108.66,-121.8 127.03,-111.68"/>
<polygon fill="black" stroke="black" points="128.71,-114.75 135.78,-106.86 125.33,-108.62 128.71,-114.75"/>
</g>
<!-- Icon&#45;&gt;Tokens &amp; Base -->
<g id="edge21" class="edge" data-name="Icon-&gt;Tokens &amp; Base">

<path fill="none" stroke="black" d="M191.66,-77.03C196.25,-75.21 201,-73.46 205.54,-72 260.59,-54.32 324.87,-39.92 371.12,-30.62"/>
<polygon fill="black" stroke="black" points="371.57,-34.1 380.7,-28.72 370.21,-27.23 371.57,-34.1"/>
</g>
<!-- Alert -->
<g id="node4" class="node" pointer-events="visible" data-name="Alert">

<polygon fill="none" stroke="black" points="147.54,-180 93.54,-180 93.54,-144 147.54,-144 147.54,-180"/>
<text text-anchor="middle" x="120.54" y="-157.8" font-family="Helvetica,Arial,sans-serif" font-size="14.00">Alert</text>
</g>
<!-- Alert&#45;&gt;Tokens &amp; Base -->
<g id="edge3" class="edge" data-name="Alert-&gt;Tokens &amp; Base">

<path fill="none" stroke="black" d="M116.54,-143.83C112.99,-123.9 110.79,-91.29 128.54,-72 160.34,-37.47 290.72,-25.39 370.37,-21.19"/>
<polygon fill="black" stroke="black" points="370.41,-24.7 380.22,-20.71 370.06,-17.71 370.41,-24.7"/>
</g>
<!-- Alert&#45;&gt;Icon -->
<g id="edge4" class="edge" data-name="Alert-&gt;Icon">

<path fill="none" stroke="black" d="M131.42,-143.7C136.32,-135.9 142.23,-126.51 147.68,-117.83"/>
<polygon fill="black" stroke="black" points="150.63,-119.71 152.99,-109.39 144.7,-115.99 150.63,-119.71"/>
</g>
<!-- Badge -->
<g id="node5" class="node" pointer-events="visible" data-name="Badge">

<polygon fill="none" stroke="black" points="219.54,-180 165.54,-180 165.54,-144 219.54,-144 219.54,-180"/>
<text text-anchor="middle" x="192.54" y="-157.8" font-family="Helvetica,Arial,sans-serif" font-size="14.00">Badge</text>
</g>
<!-- Badge&#45;&gt;Tokens &amp; Base -->
<g id="edge5" class="edge" data-name="Badge-&gt;Tokens &amp; Base">

<path fill="none" stroke="black" d="M197.98,-143.55C205.17,-123.35 219.79,-90.48 243.54,-72 280.03,-43.61 330.87,-30.42 370.78,-24.3"/>
<polygon fill="black" stroke="black" points="371.08,-27.79 380.49,-22.93 370.1,-20.86 371.08,-27.79"/>
</g>
<!-- Badge&#45;&gt;Icon -->
<g id="edge6" class="edge" data-name="Badge-&gt;Icon">

<path fill="none" stroke="black" d="M185.62,-143.7C182.61,-136.15 178.99,-127.12 175.62,-118.68"/>
<polygon fill="black" stroke="black" points="178.91,-117.49 171.95,-109.51 172.41,-120.09 178.91,-117.49"/>
</g>
<!-- Button -->
<g id="node6" class="node" pointer-events="visible" data-name="Button">

<polygon fill="none" stroke="black" points="329.66,-180 275.43,-180 275.43,-144 329.66,-144 329.66,-180"/>
<text text-anchor="middle" x="302.54" y="-157.8" font-family="Helvetica,Arial,sans-serif" font-size="14.00">Button</text>
</g>
<!-- Button&#45;&gt;Tokens &amp; Base -->
<g id="edge7" class="edge" data-name="Button-&gt;Tokens &amp; Base">

<path fill="none" stroke="black" d="M307.16,-143.5C312.99,-124.15 324.6,-92.95 343.54,-72 354.41,-59.99 368.65,-49.9 382.58,-41.87"/>
<polygon fill="black" stroke="black" points="384.2,-44.97 391.3,-37.11 380.84,-38.83 384.2,-44.97"/>
</g>
<!-- Button&#45;&gt;Icon -->
<g id="edge8" class="edge" data-name="Button-&gt;Icon">

<path fill="none" stroke="black" d="M274.95,-147C253.94,-136.35 224.81,-121.57 201.74,-109.87"/>
<polygon fill="black" stroke="black" points="203.47,-106.82 192.97,-105.42 200.31,-113.06 203.47,-106.82"/>
</g>
<!-- Button Group -->
<g id="node7" class="node" pointer-events="visible" data-name="Button Group">

<polygon fill="none" stroke="black" points="294.44,-252 200.65,-252 200.65,-216 294.44,-216 294.44,-252"/>
<text text-anchor="middle" x="247.54" y="-229.8" font-family="Helvetica,Arial,sans-serif" font-size="14.00">Button Group</text>
</g>
<!-- Button Group&#45;&gt;Tokens &amp; Base -->
<g id="edge9" class="edge" data-name="Button Group-&gt;Tokens &amp; Base">

<path fill="none" stroke="black" d="M249.15,-215.63C251.33,-197.22 256.2,-167.58 266.54,-144 282.3,-108.09 287.34,-97.01 317.54,-72 333.37,-58.9 352.97,-48.33 371.52,-40.18"/>
<polygon fill="black" stroke="black" points="372.73,-43.47 380.59,-36.37 370.02,-37.01 372.73,-43.47"/>
</g>
<!-- Button Group&#45;&gt;Button -->
<g id="edge10" class="edge" data-name="Button Group-&gt;Button">

<path fill="none" stroke="black" d="M261.14,-215.7C267.47,-207.64 275.13,-197.89 282.13,-188.98"/>
<polygon fill="black" stroke="black" points="284.74,-191.32 288.17,-181.29 279.24,-187 284.74,-191.32"/>
</g>
<!-- Sidebar -->
<g id="node8" class="node" pointer-events="visible" data-name="Sidebar">

<polygon fill="none" stroke="black" points="370.81,-252 312.28,-252 312.28,-216 370.81,-216 370.81,-252"/>
<text text-anchor="middle" x="341.54" y="-229.8" font-family="Helvetica,Arial,sans-serif" font-size="14.00">Sidebar</text>
</g>
<!-- Sidebar&#45;&gt;Tokens &amp; Base -->
<g id="edge11" class="edge" data-name="Sidebar-&gt;Tokens &amp; Base">

<path fill="none" stroke="black" d="M348.92,-215.85C364.8,-178.91 402.35,-91.55 421.65,-46.67"/>
<polygon fill="black" stroke="black" points="424.8,-48.19 425.54,-37.62 418.37,-45.43 424.8,-48.19"/>
</g>
<!-- Sidebar&#45;&gt;Button -->
<g id="edge12" class="edge" data-name="Sidebar-&gt;Button">

<path fill="none" stroke="black" d="M331.9,-215.7C327.61,-207.98 322.44,-198.71 317.65,-190.11"/>
<polygon fill="black" stroke="black" points="320.74,-188.46 312.81,-181.43 314.62,-191.87 320.74,-188.46"/>
</g>
<!-- Pagination -->
<g id="node9" class="node" pointer-events="visible" data-name="Pagination">

<polygon fill="none" stroke="black" points="464.43,-252 388.66,-252 388.66,-216 464.43,-216 464.43,-252"/>
<text text-anchor="middle" x="426.54" y="-229.8" font-family="Helvetica,Arial,sans-serif" font-size="14.00">Pagination</text>
</g>
<!-- Pagination&#45;&gt;Tokens &amp; Base -->
<g id="edge15" class="edge" data-name="Pagination-&gt;Tokens &amp; Base">

<path fill="none" stroke="black" d="M421.55,-215.5C418.89,-205.25 415.89,-192 414.54,-180 409.34,-133.41 418.95,-79.3 426.3,-47.17"/>
<polygon fill="black" stroke="black" points="429.61,-48.4 428.52,-37.86 422.8,-46.77 429.61,-48.4"/>
</g>
<!-- Pagination&#45;&gt;Button -->
<g id="edge13" class="edge" data-name="Pagination-&gt;Button">

<path fill="none" stroke="black" d="M395.57,-215.52C378.59,-205.93 357.41,-193.97 339.55,-183.89"/>
<polygon fill="black" stroke="black" points="341.5,-180.97 331.07,-179.1 338.06,-187.07 341.5,-180.97"/>
</g>
<!-- Form -->
<g id="node10" class="node" pointer-events="visible" data-name="Form">

<polygon fill="none" stroke="black" points="477.54,-180 423.54,-180 423.54,-144 477.54,-144 477.54,-180"/>
<text text-anchor="middle" x="450.54" y="-157.8" font-family="Helvetica,Arial,sans-serif" font-size="14.00">Form</text>
</g>
<!-- Pagination&#45;&gt;Form -->
<g id="edge14" class="edge" data-name="Pagination-&gt;Form">

<path fill="none" stroke="black" d="M432.48,-215.7C435.04,-208.24 438.09,-199.32 440.96,-190.97"/>
<polygon fill="black" stroke="black" points="444.26,-192.13 444.19,-181.54 437.64,-189.86 444.26,-192.13"/>
</g>
<!-- Form&#45;&gt;Tokens &amp; Base -->
<g id="edge20" class="edge" data-name="Form-&gt;Tokens &amp; Base">

<path fill="none" stroke="black" d="M448.46,-143.59C445.59,-119.61 440.39,-76.14 436.95,-47.42"/>
<polygon fill="black" stroke="black" points="440.44,-47.13 435.77,-37.61 433.49,-47.96 440.44,-47.13"/>
</g>
<!-- Avatar -->
<g id="node11" class="node" pointer-events="visible" data-name="Avatar">

<polygon fill="none" stroke="black" points="515.63,-108 461.46,-108 461.46,-72 515.63,-72 515.63,-108"/>
<text text-anchor="middle" x="488.54" y="-85.8" font-family="Helvetica,Arial,sans-serif" font-size="14.00">Avatar</text>
</g>
<!-- Avatar&#45;&gt;Tokens &amp; Base -->
<g id="edge16" class="edge" data-name="Avatar-&gt;Tokens &amp; Base">

<path fill="none" stroke="black" d="M474.95,-71.7C468.62,-63.64 460.96,-53.89 453.96,-44.98"/>
<polygon fill="black" stroke="black" points="456.85,-43 447.92,-37.29 451.35,-47.32 456.85,-43"/>
</g>
<!-- Card -->
<g id="node12" class="node" pointer-events="visible" data-name="Card">

<polygon fill="none" stroke="black" points="587.54,-108 533.54,-108 533.54,-72 587.54,-72 587.54,-108"/>
<text text-anchor="middle" x="560.54" y="-85.8" font-family="Helvetica,Arial,sans-serif" font-size="14.00">Card</text>
</g>
<!-- Card&#45;&gt;Tokens &amp; Base -->
<g id="edge17" class="edge" data-name="Card-&gt;Tokens &amp; Base">

<path fill="none" stroke="black" d="M533.3,-73.98C516.37,-64.65 494.27,-52.47 475.18,-41.95"/>
<polygon fill="black" stroke="black" points="477,-38.95 466.55,-37.19 473.62,-45.08 477,-38.95"/>
</g>
<!-- Confirm Dialog -->
<g id="node13" class="node" pointer-events="visible" data-name="Confirm Dialog">

<polygon fill="none" stroke="black" points="711.09,-108 606,-108 606,-72 711.09,-72 711.09,-108"/>
<text text-anchor="middle" x="658.54" y="-85.8" font-family="Helvetica,Arial,sans-serif" font-size="14.00">Confirm Dialog</text>
</g>
<!-- Confirm Dialog&#45;&gt;Tokens &amp; Base -->
<g id="edge18" class="edge" data-name="Confirm Dialog-&gt;Tokens &amp; Base">

<path fill="none" stroke="black" d="M605.51,-72.5C572.68,-62.29 530.38,-49.13 495.94,-38.41"/>
<polygon fill="black" stroke="black" points="497.1,-35.11 486.51,-35.48 495.02,-41.79 497.1,-35.11"/>
</g>
<!-- Divider -->
<g id="node14" class="node" pointer-events="visible" data-name="Divider">

<polygon fill="none" stroke="black" points="787.81,-108 729.28,-108 729.28,-72 787.81,-72 787.81,-108"/>
<text text-anchor="middle" x="758.54" y="-85.8" font-family="Helvetica,Arial,sans-serif" font-size="14.00">Divider</text>
</g>
<!-- Divider&#45;&gt;Tokens &amp; Base -->
<g id="edge19" class="edge" data-name="Divider-&gt;Tokens &amp; Base">

<path fill="none" stroke="black" d="M728.93,-74.95C726.13,-73.86 723.31,-72.86 720.54,-72 645.25,-48.57 555.44,-34.04 496.59,-26.25"/>
<polygon fill="black" stroke="black" points="497.11,-22.79 486.74,-24.98 496.21,-29.73 497.11,-22.79"/>
</g>
<!-- Modal -->
<g id="node15" class="node" pointer-events="visible" data-name="Modal">

<polygon fill="none" stroke="black" points="859.54,-108 805.54,-108 805.54,-72 859.54,-72 859.54,-108"/>
<text text-anchor="middle" x="832.54" y="-85.8" font-family="Helvetica,Arial,sans-serif" font-size="14.00">Modal</text>
</g>
<!-- Modal&#45;&gt;Tokens &amp; Base -->
<g id="edge22" class="edge" data-name="Modal-&gt;Tokens &amp; Base">

<path fill="none" stroke="black" d="M805.36,-75.14C802.43,-73.96 799.46,-72.88 796.54,-72 694.1,-41.09 569.77,-27.92 496.41,-22.52"/>
<polygon fill="black" stroke="black" points="496.81,-19.04 486.59,-21.83 496.32,-26.03 496.81,-19.04"/>
</g>
<!-- Table -->
<g id="node16" class="node" pointer-events="visible" data-name="Table">

<polygon fill="none" stroke="black" points="931.54,-108 877.54,-108 877.54,-72 931.54,-72 931.54,-108"/>
<text text-anchor="middle" x="904.54" y="-85.8" font-family="Helvetica,Arial,sans-serif" font-size="14.00">Table</text>
</g>
<!-- Table&#45;&gt;Tokens &amp; Base -->
<g id="edge23" class="edge" data-name="Table-&gt;Tokens &amp; Base">

<path fill="none" stroke="black" d="M877.38,-75.07C874.45,-73.9 871.47,-72.84 868.54,-72 739.79,-34.81 582.27,-23.71 496.52,-20.4"/>
<polygon fill="black" stroke="black" points="496.8,-16.9 486.68,-20.04 496.55,-23.9 496.8,-16.9"/>
</g>
<!-- Tooltip -->
<g id="node18" class="node" pointer-events="visible" data-name="Tooltip">

<polygon fill="none" stroke="black" points="1080.27,-108 1022.82,-108 1022.82,-72 1080.27,-72 1080.27,-108"/>
<text text-anchor="middle" x="1051.54" y="-85.8" font-family="Helvetica,Arial,sans-serif" font-size="14.00">Tooltip</text>
</g>
<!-- Tooltip&#45;&gt;Tokens &amp; Base -->
<g id="edge25" class="edge" data-name="Tooltip-&gt;Tokens &amp; Base">

<path fill="none" stroke="black" d="M1022.39,-74.52C1019.78,-73.55 1017.14,-72.69 1014.54,-72 918.13,-46.26 625.9,-28.75 496.44,-22.04"/>
<polygon fill="black" stroke="black" points="496.85,-18.56 486.68,-21.54 496.49,-25.55 496.85,-18.56"/>
</g>
<!-- Tooltip&#45;&gt;Tokens &amp; Base -->
<g id="node17" class="node" pointer-events="visible" data-name="Toggle" data-comment="Tooltip-&gt;Tokens &amp; Base">

<polygon fill="none" stroke="black" points="1005.2,-108 949.89,-108 949.89,-72 1005.2,-72 1005.2,-108"/>
<text text-anchor="middle" x="977.54" y="-85.8" font-family="Helvetica,Arial,sans-serif" font-size="14.00">Toggle</text>
</g>
<!-- T&#45;&gt;Tokens &amp; Base -->
<g id="edge24" class="edge" data-name="Toggle-&gt;Tokens &amp; Base" data-comment="T-&gt;Tokens &amp; Base">

<path fill="none" stroke="black" d="M949.62,-75.02C946.61,-73.86 943.54,-72.82 940.54,-72 784.91,-29.36 593.77,-20.57 496.66,-19.05"/>
<polygon fill="black" stroke="black" points="496.85,-15.55 486.81,-18.92 496.76,-22.55 496.85,-15.55"/>
</g>
</g>
</svg>