<?xml version="1.0" standalone="no"?>
<svg xmlns="http://www.w3.org/2000/svg" xmlns:xlink="http://www.w3.org/1999/xlink" width="1549pt" height="260pt" viewBox="0.00 0.00 1549.16 260">
<g id="graph0" class="graph" transform="translate(4,256) scale(1)" data-name="dependencies">

<polygon fill="white" stroke="none" points="-4,4 -4,-256 1545.16,-256 1545.16,4 -4,4"/>
<!-- Tokens &amp; Base -->
<g id="node1" class="node" pointer-events="visible" data-name="Tokens &amp; Base">

<polygon fill="none" stroke="black" points="649.86,-36 547.23,-36 547.23,0 649.86,0 649.86,-36"/>
<text text-anchor="middle" x="598.54" y="-13.8" font-family="Helvetica,Arial,sans-serif" font-size="14.00">Tokens &amp; Base</text>
</g>
<!-- Accordion -->
<g id="node2" class="node" pointer-events="visible" data-name="Accordion">

<polygon fill="none" stroke="black" points="75.13,-180 -0.04,-180 -0.04,-144 75.13,-144 75.13,-180"/>
<text text-anchor="middle" x="37.54" y="-157.8" font-family="Helvetica,Arial,sans-serif" font-size="14.00">Accordion</text>
</g>
<!-- Accordion&#45;&gt;Tokens &amp; Base -->
<g id="edge1" class="edge" data-name="Accordion-&gt;Tokens &amp; Base">

<path fill="none" stroke="black" d="M51.34,-143.82C69.24,-122.9 102.57,-88.34 139.54,-72 209.01,-41.3 426.83,-27.02 535.53,-21.66"/>
<polygon fill="black" stroke="black" points="535.64,-25.16 545.46,-21.19 535.3,-18.17 535.64,-25.16"/>
</g>
<!-- Icon -->
<g id="node3" class="node" pointer-events="visible" data-name="Icon">

<polygon fill="none" stroke="black" points="253.54,-108 199.54,-108 199.54,-72 253.54,-72 253.54,-108"/>
<text text-anchor="middle" x="226.54" y="-85.8" font-family="Helvetica,Arial,sans-serif" font-size="14.00">Icon</text>
</g>
<!-- Accordion&#45;&gt;Icon -->
<g id="edge2" class="edge" data-name="Accordion-&gt;Icon">

<path fill="none" stroke="black" d="M75.34,-147C108.24,-134.82 155.71,-117.24 188.65,-105.04"/>
<polygon fill="black" stroke="black" points="189.64,-108.4 197.8,-101.65 187.2,-101.84 189.64,-108.4"/>
</g>
<!-- Icon&#45;&gt;Tokens &amp; Base -->
<g id="edge26" class="edge" data-name="Icon-&gt;Tokens &amp; Base">

<path fill="none" stroke="black" d="M254.02,-76.58C258.48,-74.86 263.1,-73.26 267.54,-72 358.99,-46.11 468.46,-31.68 535.75,-24.63"/>
<polygon fill="black" stroke="black" points="535.89,-28.13 545.48,-23.63 535.18,-21.17 535.89,-28.13"/>
</g>
<!-- Alert -->
<g id="node4" class="node" pointer-events="visible" data-name="Alert">

<polygon fill="none" stroke="black" points="147.54,-180 93.54,-180 93.54,-144 147.54,-144 147.54,-180"/>
<text text-anchor="middle" x="120.54" y="-157.8" font-family="Helvetica,Arial,sans-serif" font-size="14.00">Alert</text>
</g>
<!-- Alert&#45;&gt;Tokens &amp; Base -->
<g id="edge3" class="edge" data-name="Alert-&gt;Tokens &amp; Base">

<path fill="none" stroke="black" d="M126.07,-143.63C133.65,-122.86 149.41,-88.79 175.54,-72 233.71,-34.64 432.21,-23.58 535.28,-20.33"/>
<polygon fill="black" stroke="black" points="535.35,-23.83 545.25,-20.04 535.15,-16.84 535.35,-23.83"/>
</g>
<!-- Alert&#45;&gt;Icon -->
<g id="edge4" class="edge" data-name="Alert-&gt;Icon">

<path fill="none" stroke="black" d="M147.02,-143.52C160.27,-134.76 176.51,-124.04 190.84,-114.58"/>
<polygon fill="black" stroke="black" points="192.73,-117.53 199.14,-109.09 188.87,-111.68 192.73,-117.53"/>
</g>
<!-- Badge -->
<g id="node5" class="node" pointer-events="visible" data-name="Badge">

<polygon fill="none" stroke="black" points="219.54,-180 165.54,-180 165.54,-144 219.54,-144 219.54,-180"/>
<text text-anchor="middle" x="192.54" y="-157.8" font-family="Helvetica,Arial,sans-serif" font-size="14.00">Badge</text>
</g>
<!-- Badge&#45;&gt;Tokens &amp; Base -->
<g id="edge5" class="edge" data-name="Badge-&gt;Tokens &amp; Base">

<path fill="none" stroke="black" d="M185.92,-143.6C179.62,-123.74 173.41,-91.51 190.54,-72 212.92,-46.53 426.46,-29.69 535.35,-22.69"/>
<polygon fill="black" stroke="black" points="535.55,-26.18 545.31,-22.06 535.11,-19.2 535.55,-26.18"/>
</g>
<!-- Badge&#45;&gt;Icon -->
<g id="edge6" class="edge" data-name="Badge-&gt;Icon">

<path fill="none" stroke="black" d="M200.95,-143.7C204.66,-136.07 209.1,-126.92 213.24,-118.4"/>
<polygon fill="black" stroke="black" points="216.36,-119.99 217.58,-109.47 210.06,-116.93 216.36,-119.99"/>
</g>
<!-- Button -->
<g id="node6" class="node" pointer-events="visible" data-name="Button">

<polygon fill="none" stroke="black" points="439.66,-180 385.43,-180 385.43,-144 439.66,-144 439.66,-180"/>
<text text-anchor="middle" x="412.54" y="-157.8" font-family="Helvetica,Arial,sans-serif" font-size="14.00">Button</text>
</g>
<!-- Button&#45;&gt;Tokens &amp; Base -->
<g id="edge7" class="edge" data-name="Button-&gt;Tokens &amp; Base">

<path fill="none" stroke="black" d="M416.3,-143.55C421.44,-123.65 432.53,-91.37 453.54,-72 476.34,-50.99 508.13,-38.15 536.13,-30.38"/>
<polygon fill="black" stroke="black" points="536.79,-33.82 545.59,-27.93 535.03,-27.05 536.79,-33.82"/>
</g>
<!-- Button&#45;&gt;Icon -->
<g id="edge8" class="edge" data-name="Button-&gt;Icon">

<path fill="none" stroke="black" d="M385.1,-150.67C353.14,-138.64 300.16,-118.7 264.33,-105.22"/>
<polygon fill="black" stroke="black" points="265.81,-102.04 255.22,-101.79 263.34,-108.59 265.81,-102.04"/>
</g>
<!-- Tag -->
<g id="node7" class="node" pointer-events="visible" data-name="Tag">

<polygon fill="none" stroke="black" points="291.54,-180 237.54,-180 237.54,-144 291.54,-144 291.54,-180"/>
<text text-anchor="middle" x="264.54" y="-157.8" font-family="Helvetica,Arial,sans-serif" font-size="14.00">Tag</text>
</g>
<!-- Tag&#45;&gt;Tokens &amp; Base -->
<g id="edge9" class="edge" data-name="Tag-&gt;Tokens &amp; Base">

<path fill="none" stroke="black" d="M267.58,-143.61C272.1,-123.15 282.68,-89.71 305.54,-72 340.63,-44.83 460.44,-30.26 535.55,-23.62"/>
<polygon fill="black" stroke="black" points="535.57,-27.13 545.24,-22.79 534.98,-20.15 535.57,-27.13"/>
</g>
<!-- Tag&#45;&gt;Icon -->
<g id="edge10" class="edge" data-name="Tag-&gt;Icon">

<path fill="none" stroke="black" d="M255.15,-143.7C250.96,-135.98 245.93,-126.71 241.26,-118.11"/>
<polygon fill="black" stroke="black" points="244.4,-116.55 236.55,-109.43 238.25,-119.89 244.4,-116.55"/>
</g>
<!-- Button Group -->
<g id="node8" class="node" pointer-events="visible" data-name="Button Group">

<polygon fill="none" stroke="black" points="344.44,-252 250.65,-252 250.65,-216 344.44,-216 344.44,-252"/>
<text text-anchor="middle" x="297.54" y="-229.8" font-family="Helvetica,Arial,sans-serif" font-size="14.00">Button Group</text>
</g>
<!-- Button Group&#45;&gt;Tokens &amp; Base -->
<g id="edge11" class="edge" data-name="Button Group-&gt;Tokens &amp; Base">

<path fill="none" stroke="black" d="M302.22,-215.63C312.11,-182.38 338.35,-109.68 387.54,-72 430.03,-39.47 490.11,-26.71 535.3,-21.8"/>
<polygon fill="black" stroke="black" points="535.62,-25.29 545.23,-20.84 534.94,-18.32 535.62,-25.29"/>
</g>
<!-- Button Group&#45;&gt;Button -->
<g id="edge12" class="edge" data-name="Button Group-&gt;Button">

<path fill="none" stroke="black" d="M326.27,-215.52C341.14,-206.46 359.48,-195.3 375.42,-185.6"/>
<polygon fill="black" stroke="black" points="376.97,-188.75 383.69,-180.57 373.33,-182.78 376.97,-188.75"/>
</g>
<!-- Sidebar -->
<g id="node9" class="node" pointer-events="visible" data-name="Sidebar">

<polygon fill="none" stroke="black" points="420.81,-252 362.28,-252 362.28,-216 420.81,-216 420.81,-252"/>
<text text-anchor="middle" x="391.54" y="-229.8" font-family="Helvetica,Arial,sans-serif" font-size="14.00">Sidebar</text>
</g>
<!-- Sidebar&#45;&gt;Tokens &amp; Base -->
<g id="edge13" class="edge" data-name="Sidebar-&gt;Tokens &amp; Base">

<path fill="none" stroke="black" d="M383.94,-215.63C377.06,-197.46 369.07,-168.26 376.54,-144 387.94,-107.01 394.39,-94.97 425.54,-72 457.71,-48.28 500.64,-35.05 535.68,-27.74"/>
<polygon fill="black" stroke="black" points="536.14,-31.22 545.28,-25.86 534.79,-24.35 536.14,-31.22"/>
</g>
<!-- Sidebar&#45;&gt;Button -->
<g id="edge14" class="edge" data-name="Sidebar-&gt;Button">

<path fill="none" stroke="black" d="M396.74,-215.7C398.97,-208.24 401.65,-199.32 404.16,-190.97"/>
<polygon fill="black" stroke="black" points="407.46,-192.14 406.98,-181.55 400.75,-190.13 407.46,-192.14"/>
</g>
<!-- Navbar -->
<g id="node10" class="node" pointer-events="visible" data-name="Navbar">

<polygon fill="none" stroke="black" points="496.25,-252 438.84,-252 438.84,-216 496.25,-216 496.25,-252"/>
<text text-anchor="middle" x="467.54" y="-229.8" font-family="Helvetica,Arial,sans-serif" font-size="14.00">Navbar</text>
</g>
<!-- Navbar&#45;&gt;Tokens &amp; Base -->
<g id="edge15" class="edge" data-name="Navbar-&gt;Tokens &amp; Base">

<path fill="none" stroke="black" d="M471.15,-215.53C478.26,-184.26 496.45,-117.71 530.54,-72 538.64,-61.14 549.51,-51.34 560.18,-43.2"/>
<polygon fill="black" stroke="black" points="562.17,-46.08 568.21,-37.38 558.06,-40.42 562.17,-46.08"/>
</g>
<!-- Navbar&#45;&gt;Button -->
<g id="edge16" class="edge" data-name="Navbar-&gt;Button">

<path fill="none" stroke="black" d="M453.95,-215.7C447.62,-207.64 439.96,-197.89 432.96,-188.98"/>
<polygon fill="black" stroke="black" points="435.85,-187 426.92,-181.29 430.35,-191.32 435.85,-187"/>
</g>
<!-- Pagination -->
<g id="node11" class="node" pointer-events="visible" data-name="Pagination">

<polygon fill="none" stroke="black" points="590.43,-252 514.66,-252 514.66,-216 590.43,-216 590.43,-252"/>
<text text-anchor="middle" x="552.54" y="-229.8" font-family="Helvetica,Arial,sans-serif" font-size="14.00">Pagination</text>
</g>
<!-- Pagination&#45;&gt;Tokens &amp; Base -->
<g id="edge19" class="edge" data-name="Pagination-&gt;Tokens &amp; Base">

<path fill="none" stroke="black" d="M540.66,-215.72C534.53,-205.76 527.7,-192.73 524.54,-180 520.69,-164.47 521.5,-159.71 524.54,-144 531.11,-110.13 535.71,-101.53 553.54,-72 559.32,-62.44 566.8,-52.87 574,-44.54"/>
<polygon fill="black" stroke="black" points="576.53,-46.96 580.59,-37.18 571.31,-42.29 576.53,-46.96"/>
</g>
<!-- Pagination&#45;&gt;Button -->
<g id="edge17" class="edge" data-name="Pagination-&gt;Button">

<path fill="none" stroke="black" d="M517.58,-215.52C497.07,-205.26 471.16,-192.31 450.2,-181.83"/>
<polygon fill="black" stroke="black" points="451.92,-178.77 441.41,-177.43 448.79,-185.03 451.92,-178.77"/>
</g>
<!-- Form -->
<g id="node12" class="node" pointer-events="visible" data-name="Form">

<polygon fill="none" stroke="black" points="587.54,-180 533.54,-180 533.54,-144 587.54,-144 587.54,-180"/>
<text text-anchor="middle" x="560.54" y="-157.8" font-family="Helvetica,Arial,sans-serif" font-size="14.00">Form</text>
</g>
<!-- Pagination&#45;&gt;Form -->
<g id="edge18" class="edge" data-name="Pagination-&gt;Form">

<path fill="none" stroke="black" d="M554.52,-215.7C555.36,-208.41 556.35,-199.73 557.28,-191.54"/>
<polygon fill="black" stroke="black" points="560.76,-191.94 558.42,-181.61 553.81,-191.15 560.76,-191.94"/>
</g>
<!-- Form&#45;&gt;Tokens &amp; Base -->
<g id="edge25" class="edge" data-name="Form-&gt;Tokens &amp; Base">

<path fill="none" stroke="black" d="M558.11,-143.8C556.16,-125.52 554.87,-95.99 562.54,-72 565.53,-62.66 570.73,-53.47 576.26,-45.43"/>
<polygon fill="black" stroke="black" points="579.01,-47.6 582.15,-37.48 573.39,-43.43 579.01,-47.6"/>
</g>
<!-- Avatar -->
<g id="node13" class="node" pointer-events="visible" data-name="Avatar">

<polygon fill="none" stroke="black" points="625.63,-108 571.46,-108 571.46,-72 625.63,-72 625.63,-108"/>
<text text-anchor="middle" x="598.54" y="-85.8" font-family="Helvetica,Arial,sans-serif" font-size="14.00">Avatar</text>
</g>
<!-- Breadcrumbs&#45;&gt;Tokens &amp; Base -->
<g id="edge21" class="edge" data-name="Breadcrumbs-&gt;Tokens &amp; Base">

<path fill="none" stroke="black" d="M666.3,-71.7C655.26,-63.11 641.75,-52.61 629.71,-43.24"/>
<polygon fill="black" stroke="black" points="632.09,-40.65 622.04,-37.28 627.79,-46.18 632.09,-40.65"/>
</g>
<!-- Card -->
<g id="node15" class="node" pointer-events="visible" data-name="Card">

<polygon fill="none" stroke="black" points="805.54,-108 751.54,-108 751.54,-72 805.54,-72 805.54,-108"/>
<text text-anchor="middle" x="778.54" y="-85.8" font-family="Helvetica,Arial,sans-serif" font-size="14.00">Card</text>
</g>
<!-- Avatar&#45;&gt;Tokens &amp; Base -->
<g id="edge20" class="edge" data-name="Avatar-&gt;Tokens &amp; Base">

<path fill="none" stroke="black" d="M598.54,-71.7C598.54,-64.41 598.54,-55.73 598.54,-47.54"/>
<polygon fill="black" stroke="black" points="602.05,-47.62 598.54,-37.62 595.05,-47.62 602.05,-47.62"/>
</g>
<!-- Breadcrumbs -->
<g id="node14" class="node" pointer-events="visible" data-name="Breadcrumbs">

<polygon fill="none" stroke="black" points="733.69,-108 643.4,-108 643.4,-72 733.69,-72 733.69,-108"/>
<text text-anchor="middle" x="688.54" y="-85.8" font-family="Helvetica,Arial,sans-serif" font-size="14.00">Breadcrumbs</text>
</g>
<!-- Card&#45;&gt;Tokens &amp; Base -->
<g id="edge22" class="edge" data-name="Card-&gt;Tokens &amp; Base">

<path fill="none" stroke="black" d="M751.14,-75.75C748.25,-74.45 745.35,-73.18 742.54,-72 715.78,-60.78 685.72,-49.51 660.01,-40.27"/>
<polygon fill="black" stroke="black" points="661.3,-37.01 650.71,-36.95 658.95,-43.61 661.3,-37.01"/>
</g>
<!-- Confirm Dialog -->
<g id="node16" class="node" pointer-events="visible" data-name="Confirm Dialog">

<polygon fill="none" stroke="black" points="929.09,-108 824,-108 824,-72 929.09,-72 929.09,-108"/>
<text text-anchor="middle" x="876.54" y="-85.8" font-family="Helvetica,Arial,sans-serif" font-size="14.00">Confirm Dialog</text>
</g>
<!-- Confirm Dialog&#45;&gt;Tokens &amp; Base -->
<g id="edge23" class="edge" data-name="Confirm Dialog-&gt;Tokens &amp; Base">

<path fill="none" stroke="black" d="M823.81,-74.44C820.67,-73.6 817.57,-72.79 814.54,-72 763.08,-58.63 704.49,-44.31 661.33,-33.93"/>
<polygon fill="black" stroke="black" points="662.15,-30.53 651.61,-31.6 660.52,-37.34 662.15,-30.53"/>
</g>
<!-- Divider -->
<g id="node17" class="node" pointer-events="visible" data-name="Divider">

<polygon fill="none" stroke="black" points="1005.81,-108 947.28,-108 947.28,-72 1005.81,-72 1005.81,-108"/>
<text text-anchor="middle" x="976.54" y="-85.8" font-family="Helvetica,Arial,sans-serif" font-size="14.00">Divider</text>
</g>
<!-- Divider&#45;&gt;Tokens &amp; Base -->
<g id="edge24" class="edge" data-name="Divider-&gt;Tokens &amp; Base">

<path fill="none" stroke="black" d="M946.96,-74.87C944.15,-73.8 941.32,-72.82 938.54,-72 844.12,-44.06 730.35,-30.13 661.28,-23.75"/>
<polygon fill="black" stroke="black" points="661.95,-20.3 651.68,-22.89 661.32,-27.27 661.95,-20.3"/>
</g>
<!-- Modal -->
<g id="node18" class="node" pointer-events="visible" data-name="Modal">

<polygon fill="none" stroke="black" points="1077.54,-108 1023.54,-108 1023.54,-72 1077.54,-72 1077.54,-108"/>
<text text-anchor="middle" x="1050.54" y="-85.8" font-family="Helvetica,Arial,sans-serif" font-size="14.00">Modal</text>
</g>
<!-- Modal&#45;&gt;Tokens &amp; Base -->
<g id="edge27" class="edge" data-name="Modal-&gt;Tokens &amp; Base">

<path fill="none" stroke="black" d="M1023.38,-75.09C1020.44,-73.91 1017.46,-72.85 1014.54,-72 892.85,-36.48 744.25,-24.76 661.64,-20.9"/>
<polygon fill="black" stroke="black" points="661.84,-17.4 651.7,-20.46 661.53,-24.4 661.84,-17.4"/>
</g>
<!-- Side Panel -->
<g id="node19" class="node" pointer-events="visible" data-name="Side Panel">

<polygon fill="none" stroke="black" points="1171.54,-108 1095.55,-108 1095.55,-72 1171.54,-72 1171.54,-108"/>
<text text-anchor="middle" x="1133.54" y="-85.8" font-family="Helvetica,Arial,sans-serif" font-size="14.00">Side Panel</text>
</g>
<!-- Side Panel&#45;&gt;Tokens &amp; Base -->
<g id="edge28" class="edge" data-name="Side Panel-&gt;Tokens &amp; Base">

<path fill="none" stroke="black" d="M1095.3,-74.32C1092.36,-73.45 1089.42,-72.67 1086.54,-72 936.51,-37.25 755.13,-25.15 661.41,-21.04"/>
<polygon fill="black" stroke="black" points="661.8,-17.55 651.66,-20.63 661.51,-24.55 661.8,-17.55"/>
</g>
<!-- Spinner -->
<g id="node20" class="node" pointer-events="visible" data-name="Spinner">

<polygon fill="none" stroke="black" points="1249.1,-108 1189.99,-108 1189.99,-72 1249.1,-72 1249.1,-108"/>
<text text-anchor="middle" x="1219.54" y="-85.8" font-family="Helvetica,Arial,sans-serif" font-size="14.00">Spinner</text>
</g>
<!-- Spinner&#45;&gt;Tokens &amp; Base -->
<g id="edge29" class="edge" data-name="Spinner-&gt;Tokens &amp; Base">

<path fill="none" stroke="black" d="M1189.65,-74.84C1186.62,-73.75 1183.55,-72.77 1180.54,-72 996.11,-24.72 769.33,-18.28 661.39,-18.21"/>
<polygon fill="black" stroke="black" points="661.58,-14.71 651.59,-18.22 661.59,-21.71 661.58,-14.71"/>
</g>
<!-- Switch -->
<g id="node21" class="node" pointer-events="visible" data-name="Switch">

<polygon fill="none" stroke="black" points="1321.93,-108 1267.16,-108 1267.16,-72 1321.93,-72 1321.93,-108"/>
<text text-anchor="middle" x="1294.54" y="-85.8" font-family="Helvetica,Arial,sans-serif" font-size="14.00">Switch</text>
</g>
<!-- Switch&#45;&gt;Tokens &amp; Base -->
<g id="edge30" class="edge" data-name="Switch-&gt;Tokens &amp; Base">

<path fill="none" stroke="black" d="M1267.01,-74.79C1264.2,-73.71 1261.35,-72.75 1258.54,-72 1146.89,-42.22 803.52,-26.53 661.27,-21.16"/>
<polygon fill="black" stroke="black" points="661.8,-17.68 651.68,-20.8 661.54,-24.67 661.8,-17.68"/>
</g>
<!-- Tab -->
<g id="node22" class="node" pointer-events="visible" data-name="Tab">

<polygon fill="none" stroke="black" points="1393.54,-108 1339.54,-108 1339.54,-72 1393.54,-72 1393.54,-108"/>
<text text-anchor="middle" x="1366.54" y="-85.8" font-family="Helvetica,Arial,sans-serif" font-size="14.00">Tab</text>
</g>
<!-- Tab&#45;&gt;Tokens &amp; Base -->
<g id="edge31" class="edge" data-name="Tab-&gt;Tokens &amp; Base">

<path fill="none" stroke="black" d="M1339.42,-74.92C1336.48,-73.78 1333.49,-72.77 1330.54,-72 1204.83,-39 814.58,-24.94 661.28,-20.59"/>
<polygon fill="black" stroke="black" points="661.83,-17.1 651.74,-20.32 661.63,-24.1 661.83,-17.1"/>
</g>
<!-- Table -->
<g id="node23" class="node" pointer-events="visible" data-name="Table">

<polygon fill="none" stroke="black" points="1465.54,-108 1411.54,-108 1411.54,-72 1465.54,-72 1465.54,-108"/>
<text text-anchor="middle" x="1438.54" y="-85.8" font-family="Helvetica,Arial,sans-serif" font-size="14.00">Table</text>
</g>
<!-- Table&#45;&gt;Tokens &amp; Base -->
<g id="edge32" class="edge" data-name="Table-&gt;Tokens &amp; Base">

<path fill="none" stroke="black" d="M1411.43,-74.9C1408.48,-73.77 1405.49,-72.76 1402.54,-72 1262.78,-35.79 825.67,-23.52 661.61,-20.12"/>
<polygon fill="black" stroke="black" points="661.85,-16.62 651.79,-19.92 661.71,-23.62 661.85,-16.62"/>
</g>
<!-- Tooltip -->
<g id="node24" class="node" pointer-events="visible" data-name="Tooltip">

<polygon fill="none" stroke="black" points="1541.27,-108 1483.82,-108 1483.82,-72 1541.27,-72 1541.27,-108"/>
<text text-anchor="middle" x="1512.54" y="-85.8" font-family="Helvetica,Arial,sans-serif" font-size="14.00">Tooltip</text>
</g>
<!-- Tooltip&#45;&gt;Tokens &amp; Base -->
<g id="edge33" class="edge" data-name="Tooltip-&gt;Tokens &amp; Base">

<path fill="none" stroke="black" d="M1483.46,-74.74C1480.5,-73.67 1477.49,-72.72 1474.54,-72 1320.22,-34.14 835.84,-22.79 661.69,-19.89"/>
<polygon fill="black" stroke="black" points="661.75,-16.39 651.7,-19.72 661.64,-23.38 661.75,-16.39"/>
</g>
</g>
</svg>