<?xml version="1.0" standalone="no"?>
<svg xmlns="http://www.w3.org/2000/svg" xmlns:xlink="http://www.w3.org/1999/xlink" width="903pt" height="260pt" viewBox="0.00 0.00 902.61 260.00">
<g id="graph0" class="graph" transform="translate(4,256) scale(1)" data-name="dependencies">

<polygon fill="white" stroke="none" points="-4,4 -4,-256 898.61,-256 898.61,4 -4,4" style=""/>
<!-- Tokens &amp; Base -->
<g id="node1" class="node" pointer-events="visible" data-name="Tokens &amp; Base">

<polygon fill="none" stroke="black" points="391.32,-36 288.68,-36 288.68,0 391.32,0 391.32,-36" style=""/>
<text text-anchor="middle" x="340" y="-13.8" font-family="Helvetica,Arial,sans-serif" font-size="14.00" style="">Tokens &amp; Base</text>
</g>
<!-- Alert -->
<g id="node2" class="node" pointer-events="visible" data-name="Alert">

<polygon fill="none" stroke="black" points="54,-180 0,-180 0,-144 54,-144 54,-180" style=""/>
<text text-anchor="middle" x="27" y="-157.8" font-family="Helvetica,Arial,sans-serif" font-size="14.00" style="">Alert</text>
</g>
<!-- Alert&#45;&gt;Tokens &amp; Base -->
<g id="edge1" class="edge" data-name="Alert-&gt;Tokens &amp; Base">

<path fill="none" stroke="black" d="M25,-143.63C23.74,-123.49 25.09,-90.69 44,-72 76.09,-40.28 199.82,-27.23 276.79,-22.1" style=""/>
<polygon fill="black" stroke="black" points="276.99,-25.6 286.75,-21.47 276.55,-18.61 276.99,-25.6" style=""/>
</g>
<!-- Icon -->
<g id="node3" class="node" pointer-events="visible" data-name="Icon">

<polygon fill="none" stroke="black" points="107,-108 53,-108 53,-72 107,-72 107,-108" style=""/>
<text text-anchor="middle" x="80" y="-85.8" font-family="Helvetica,Arial,sans-serif" font-size="14.00" style="">Icon</text>
</g>
<!-- Alert&#45;&gt;Icon -->
<g id="edge2" class="edge" data-name="Alert-&gt;Icon">

<path fill="none" stroke="black" d="M40.1,-143.7C46.13,-135.73 53.42,-126.1 60.11,-117.26" style=""/>
<polygon fill="black" stroke="black" points="62.89,-119.4 66.14,-109.31 57.31,-115.17 62.89,-119.4" style=""/>
</g>
<!-- Icon&#45;&gt;Tokens &amp; Base -->
<g id="edge16" class="edge" data-name="Icon-&gt;Tokens &amp; Base">

<path fill="none" stroke="black" d="M107.13,-77.06C111.71,-75.24 116.46,-73.48 121,-72 172.83,-55.1 233.14,-40.89 277.32,-31.45" style=""/>
<polygon fill="black" stroke="black" points="277.94,-34.9 287,-29.41 276.49,-28.05 277.94,-34.9" style=""/>
</g>
<!-- Badge -->
<g id="node4" class="node" pointer-events="visible" data-name="Badge">

<polygon fill="none" stroke="black" points="127,-180 73,-180 73,-144 127,-144 127,-180" style=""/>
<text text-anchor="middle" x="100" y="-157.8" font-family="Helvetica,Arial,sans-serif" font-size="14.00" style="">Badge</text>
</g>
<!-- Badge&#45;&gt;Tokens &amp; Base -->
<g id="edge3" class="edge" data-name="Badge-&gt;Tokens &amp; Base">

<path fill="none" stroke="black" d="M107.07,-143.59C116.15,-123.42 133.78,-90.59 159,-72 193.52,-46.56 240.08,-33.28 277.34,-26.37" style=""/>
<polygon fill="black" stroke="black" points="277.83,-29.84 287.09,-24.69 276.64,-22.94 277.83,-29.84" style=""/>
</g>
<!-- Badge&#45;&gt;Icon -->
<g id="edge4" class="edge" data-name="Badge-&gt;Icon">

<path fill="none" stroke="black" d="M95.06,-143.7C92.92,-136.24 90.38,-127.32 87.99,-118.97" style=""/>
<polygon fill="black" stroke="black" points="91.42,-118.21 85.3,-109.56 84.68,-120.14 91.42,-118.21" style=""/>
</g>
<!-- Button -->
<g id="node5" class="node" pointer-events="visible" data-name="Button">

<polygon fill="none" stroke="black" points="237.12,-180 182.88,-180 182.88,-144 237.12,-144 237.12,-180" style=""/>
<text text-anchor="middle" x="210" y="-157.8" font-family="Helvetica,Arial,sans-serif" font-size="14.00" style="">Button</text>
</g>
<!-- Button&#45;&gt;Tokens &amp; Base -->
<g id="edge5" class="edge" data-name="Button-&gt;Tokens &amp; Base">

<path fill="none" stroke="black" d="M210.79,-143.71C212.52,-124.26 217.97,-92.7 235,-72 246.28,-58.29 262.01,-47.78 277.87,-39.88" style=""/>
<polygon fill="black" stroke="black" points="279.3,-43.07 286.89,-35.69 276.35,-36.72 279.3,-43.07" style=""/>
</g>
<!-- Button&#45;&gt;Icon -->
<g id="edge6" class="edge" data-name="Button-&gt;Icon">

<path fill="none" stroke="black" d="M182.43,-146.15C163.43,-135.92 137.96,-122.21 117.17,-111.01" style=""/>
<polygon fill="black" stroke="black" points="118.88,-107.96 108.42,-106.3 115.56,-114.12 118.88,-107.96" style=""/>
</g>
<!-- Button Group -->
<g id="node6" class="node" pointer-events="visible" data-name="Button Group">

<polygon fill="none" stroke="black" points="209.89,-252 116.11,-252 116.11,-216 209.89,-216 209.89,-252" style=""/>
<text text-anchor="middle" x="163" y="-229.8" font-family="Helvetica,Arial,sans-serif" font-size="14.00" style="">Button Group</text>
</g>
<!-- Button Group&#45;&gt;Tokens &amp; Base -->
<g id="edge7" class="edge" data-name="Button Group-&gt;Tokens &amp; Base">

<path fill="none" stroke="black" d="M163.08,-215.67C164.24,-182.48 171.76,-109.87 214,-72 232.07,-55.8 255.81,-44.08 277.81,-35.86" style=""/>
<polygon fill="black" stroke="black" points="278.75,-39.24 287.01,-32.6 276.41,-32.64 278.75,-39.24" style=""/>
</g>
<!-- Button Group&#45;&gt;Button -->
<g id="edge8" class="edge" data-name="Button Group-&gt;Button">

<path fill="none" stroke="black" d="M174.62,-215.7C179.91,-207.81 186.3,-198.3 192.18,-189.55" style=""/>
<polygon fill="black" stroke="black" points="195,-191.61 197.67,-181.36 189.19,-187.71 195,-191.61" style=""/>
</g>
<!-- Sidebar -->
<g id="node7" class="node" pointer-events="visible" data-name="Sidebar">

<polygon fill="none" stroke="black" points="290.27,-252 231.73,-252 231.73,-216 290.27,-216 290.27,-252" style=""/>
<text text-anchor="middle" x="261" y="-229.8" font-family="Helvetica,Arial,sans-serif" font-size="14.00" style="">Sidebar</text>
</g>
<!-- Sidebar&#45;&gt;Tokens &amp; Base -->
<g id="edge9" class="edge" data-name="Sidebar-&gt;Tokens &amp; Base">

<path fill="none" stroke="black" d="M257.17,-215.77C251.25,-184.87 242.99,-118.91 268,-72 274.21,-60.35 284.25,-50.59 294.88,-42.75" style=""/>
<polygon fill="black" stroke="black" points="296.74,-45.72 303.04,-37.2 292.8,-39.93 296.74,-45.72" style=""/>
</g>
<!-- Sidebar&#45;&gt;Button -->
<g id="edge10" class="edge" data-name="Sidebar-&gt;Button">

<path fill="none" stroke="black" d="M248.39,-215.7C242.59,-207.73 235.57,-198.1 229.14,-189.26" style=""/>
<polygon fill="black" stroke="black" points="232.07,-187.35 223.35,-181.33 226.41,-191.47 232.07,-187.35" style=""/>
</g>
<!-- Avatar -->
<g id="node8" class="node" pointer-events="visible" data-name="Avatar">

<polygon fill="none" stroke="black" points="331.09,-108 276.91,-108 276.91,-72 331.09,-72 331.09,-108" style=""/>
<text text-anchor="middle" x="304" y="-85.8" font-family="Helvetica,Arial,sans-serif" font-size="14.00" style="">Avatar</text>
</g>
<!-- Avatar&#45;&gt;Tokens &amp; Base -->
<g id="edge11" class="edge" data-name="Avatar-&gt;Tokens &amp; Base">

<path fill="none" stroke="black" d="M312.9,-71.7C316.87,-63.98 321.63,-54.71 326.06,-46.11" style=""/>
<polygon fill="black" stroke="black" points="329.05,-47.94 330.51,-37.45 322.83,-44.74 329.05,-47.94" style=""/>
</g>
<!-- Card -->
<g id="node9" class="node" pointer-events="visible" data-name="Card">

<polygon fill="none" stroke="black" points="403,-108 349,-108 349,-72 403,-72 403,-108" style=""/>
<text text-anchor="middle" x="376" y="-85.8" font-family="Helvetica,Arial,sans-serif" font-size="14.00" style="">Card</text>
</g>
<!-- Card&#45;&gt;Tokens &amp; Base -->
<g id="edge12" class="edge" data-name="Card-&gt;Tokens &amp; Base">

<path fill="none" stroke="black" d="M367.1,-71.7C363.13,-63.98 358.37,-54.71 353.94,-46.11" style=""/>
<polygon fill="black" stroke="black" points="357.17,-44.74 349.49,-37.45 350.95,-47.94 357.17,-44.74" style=""/>
</g>
<!-- Confirm Dialog -->
<g id="node10" class="node" pointer-events="visible" data-name="Confirm Dialog">

<polygon fill="none" stroke="black" points="526.54,-108 421.46,-108 421.46,-72 526.54,-72 526.54,-108" style=""/>
<text text-anchor="middle" x="474" y="-85.8" font-family="Helvetica,Arial,sans-serif" font-size="14.00" style="">Confirm Dialog</text>
</g>
<!-- Confirm Dialog&#45;&gt;Tokens &amp; Base -->
<g id="edge13" class="edge" data-name="Confirm Dialog-&gt;Tokens &amp; Base">

<path fill="none" stroke="black" d="M440.53,-71.52C423.13,-62.43 401.67,-51.22 383.05,-41.49" style=""/>
<polygon fill="black" stroke="black" points="384.87,-38.49 374.38,-36.96 381.63,-44.69 384.87,-38.49" style=""/>
</g>
<!-- Divider -->
<g id="node11" class="node" pointer-events="visible" data-name="Divider">

<polygon fill="none" stroke="black" points="603.27,-108 544.73,-108 544.73,-72 603.27,-72 603.27,-108" style=""/>
<text text-anchor="middle" x="574" y="-85.8" font-family="Helvetica,Arial,sans-serif" font-size="14.00" style="">Divider</text>
</g>
<!-- Divider&#45;&gt;Tokens &amp; Base -->
<g id="edge14" class="edge" data-name="Divider-&gt;Tokens &amp; Base">

<path fill="none" stroke="black" d="M544.31,-75.19C541.52,-74.05 538.72,-72.97 536,-72 492.18,-56.38 441.45,-42.78 402.58,-33.27" style=""/>
<polygon fill="black" stroke="black" points="403.45,-29.88 392.91,-30.93 401.8,-36.68 403.45,-29.88" style=""/>
</g>
<!-- Form -->
<g id="node12" class="node" pointer-events="visible" data-name="Form">

<polygon fill="none" stroke="black" points="675,-108 621,-108 621,-72 675,-72 675,-108" style=""/>
<text text-anchor="middle" x="648" y="-85.8" font-family="Helvetica,Arial,sans-serif" font-size="14.00" style="">Form</text>
</g>
<!-- Form&#45;&gt;Tokens &amp; Base -->
<g id="edge15" class="edge" data-name="Form-&gt;Tokens &amp; Base">

<path fill="none" stroke="black" d="M620.77,-75.28C617.85,-74.07 614.89,-72.95 612,-72 542.07,-49.07 458.6,-34.62 402.74,-26.7" style=""/>
<polygon fill="black" stroke="black" points="403.48,-23.27 393.1,-25.37 402.52,-30.21 403.48,-23.27" style=""/>
</g>
<!-- Modal -->
<g id="node13" class="node" pointer-events="visible" data-name="Modal">

<polygon fill="none" stroke="black" points="747,-108 693,-108 693,-72 747,-72 747,-108" style=""/>
<text text-anchor="middle" x="720" y="-85.8" font-family="Helvetica,Arial,sans-serif" font-size="14.00" style="">Modal</text>
</g>
<!-- Modal&#45;&gt;Tokens &amp; Base -->
<g id="edge17" class="edge" data-name="Modal-&gt;Tokens &amp; Base">

<path fill="none" stroke="black" d="M692.81,-75.17C689.88,-73.98 686.91,-72.89 684,-72 588.49,-42.77 472.9,-29.19 402.98,-23.24" style=""/>
<polygon fill="black" stroke="black" points="403.5,-19.77 393.25,-22.44 402.93,-26.74 403.5,-19.77" style=""/>
</g>
<!-- Table -->
<g id="node14" class="node" pointer-events="visible" data-name="Table">

<polygon fill="none" stroke="black" points="819,-108 765,-108 765,-72 819,-72 819,-108" style=""/>
<text text-anchor="middle" x="792" y="-85.8" font-family="Helvetica,Arial,sans-serif" font-size="14.00" style="">Table</text>
</g>
<!-- Table&#45;&gt;Tokens &amp; Base -->
<g id="edge18" class="edge" data-name="Table-&gt;Tokens &amp; Base">

<path fill="none" stroke="black" d="M764.83,-75.09C761.9,-73.91 758.92,-72.85 756,-72 634.3,-36.48 485.7,-24.76 403.09,-20.9" style=""/>
<polygon fill="black" stroke="black" points="403.3,-17.4 393.15,-20.46 402.99,-24.4 403.3,-17.4" style=""/>
</g>
<!-- Tooltip -->
<g id="node15" class="node" pointer-events="visible" data-name="Tooltip">

<polygon fill="none" stroke="black" points="894.72,-108 837.28,-108 837.28,-72 894.72,-72 894.72,-108" style=""/>
<text text-anchor="middle" x="866" y="-85.8" font-family="Helvetica,Arial,sans-serif" font-size="14.00" style="">Tooltip</text>
</g>
<!-- Tooltip&#45;&gt;Tokens &amp; Base -->
<g id="edge19" class="edge" data-name="Tooltip-&gt;Tokens &amp; Base">

<path fill="none" stroke="black" d="M836.88,-74.89C833.92,-73.78 830.93,-72.79 828,-72 679.15,-31.7 496.91,-21.89 402.85,-19.6" style=""/>
<polygon fill="black" stroke="black" points="403.14,-16.11 393.06,-19.39 402.98,-23.11 403.14,-16.11" style=""/>
</g>
</g>
</svg>