<?xml version="1.0" standalone="no"?>
<svg xmlns="http://www.w3.org/2000/svg" xmlns:xlink="http://www.w3.org/1999/xlink" width="1275pt" height="260pt" viewBox="0.00 0.00 1275.16 260.00">
<g id="graph0" class="graph" transform="translate(4,256) scale(1)" data-name="dependencies">

<polygon fill="white" stroke="none" points="-4,4 -4,-256 1271.16,-256 1271.16,4 -4,4"/>
<!-- Tokens &amp; Base -->
<g id="node1" class="node" pointer-events="visible" data-name="Tokens &amp; Base">

<polygon fill="none" stroke="black" points="575.86,-36 473.23,-36 473.23,0 575.86,0 575.86,-36"/>
<text text-anchor="middle" x="524.54" y="-13.8" font-family="Helvetica,Arial,sans-serif" font-size="14.00">Tokens &amp; Base</text>
</g>
<!-- Accordion -->
<g id="node2" class="node" pointer-events="visible" data-name="Accordion">

<polygon fill="none" stroke="black" points="75.13,-180 -0.04,-180 -0.04,-144 75.13,-144 75.13,-180"/>
<text text-anchor="middle" x="37.54" y="-157.8" font-family="Helvetica,Arial,sans-serif" font-size="14.00">Accordion</text>
</g>
<!-- Accordion&#45;&gt;Tokens &amp; Base -->
<g id="edge1" class="edge" data-name="Accordion-&gt;Tokens &amp; Base">

<path fill="none" stroke="black" d="M51.89,-143.59C70.14,-122.77 103.73,-88.66 140.54,-72 196.46,-46.7 367.62,-30.55 461.43,-23.35"/>
<polygon fill="black" stroke="black" points="461.53,-26.85 471.24,-22.61 461.01,-19.87 461.53,-26.85"/>
</g>
<!-- Icon -->
<g id="node3" class="node" pointer-events="visible" data-name="Icon">

<polygon fill="none" stroke="black" points="253.54,-108 199.54,-108 199.54,-72 253.54,-72 253.54,-108"/>
<text text-anchor="middle" x="226.54" y="-85.8" font-family="Helvetica,Arial,sans-serif" font-size="14.00">Icon</text>
</g>
<!-- Accordion&#45;&gt;Icon -->
<g id="edge2" class="edge" data-name="Accordion-&gt;Icon">

<path fill="none" stroke="black" d="M75.34,-147C108.24,-134.82 155.71,-117.24 188.65,-105.04"/>
<polygon fill="black" stroke="black" points="189.64,-108.4 197.8,-101.65 187.2,-101.84 189.64,-108.4"/>
</g>
<!-- Icon&#45;&gt;Tokens &amp; Base -->
<g id="edge25" class="edge" data-name="Icon-&gt;Tokens &amp; Base">

<path fill="none" stroke="black" d="M253.63,-76.93C258.22,-75.12 262.98,-73.4 267.54,-72 332.66,-51.99 409.39,-37.27 461.95,-28.49"/>
<polygon fill="black" stroke="black" points="462.32,-31.98 471.62,-26.9 461.18,-25.07 462.32,-31.98"/>
</g>
<!-- Alert -->
<g id="node4" class="node" pointer-events="visible" data-name="Alert">

<polygon fill="none" stroke="black" points="147.54,-180 93.54,-180 93.54,-144 147.54,-144 147.54,-180"/>
<text text-anchor="middle" x="120.54" y="-157.8" font-family="Helvetica,Arial,sans-serif" font-size="14.00">Alert</text>
</g>
<!-- Alert&#45;&gt;Tokens &amp; Base -->
<g id="edge3" class="edge" data-name="Alert-&gt;Tokens &amp; Base">

<path fill="none" stroke="black" d="M126.33,-143.74C134.22,-123.07 150.44,-89.11 176.54,-72 222.28,-42.02 374.14,-28.06 461.4,-22.37"/>
<polygon fill="black" stroke="black" points="461.48,-25.87 471.23,-21.74 461.03,-18.88 461.48,-25.87"/>
</g>
<!-- Alert&#45;&gt;Icon -->
<g id="edge4" class="edge" data-name="Alert-&gt;Icon">

<path fill="none" stroke="black" d="M147.02,-143.52C160.27,-134.76 176.51,-124.04 190.84,-114.58"/>
<polygon fill="black" stroke="black" points="192.73,-117.53 199.14,-109.09 188.87,-111.68 192.73,-117.53"/>
</g>
<!-- Badge -->
<g id="node5" class="node" pointer-events="visible" data-name="Badge">

<polygon fill="none" stroke="black" points="219.54,-180 165.54,-180 165.54,-144 219.54,-144 219.54,-180"/>
<text text-anchor="middle" x="192.54" y="-157.8" font-family="Helvetica,Arial,sans-serif" font-size="14.00">Badge</text>
</g>
<!-- Badge&#45;&gt;Tokens &amp; Base -->
<g id="edge5" class="edge" data-name="Badge-&gt;Tokens &amp; Base">

<path fill="none" stroke="black" d="M186.02,-143.68C179.82,-123.9 173.68,-91.75 190.54,-72 224.7,-31.99 374.71,-22.03 461.63,-19.65"/>
<polygon fill="black" stroke="black" points="461.52,-23.15 471.43,-19.41 461.34,-16.15 461.52,-23.15"/>
</g>
<!-- Badge&#45;&gt;Icon -->
<g id="edge6" class="edge" data-name="Badge-&gt;Icon">

<path fill="none" stroke="black" d="M200.95,-143.7C204.66,-136.07 209.1,-126.92 213.24,-118.4"/>
<polygon fill="black" stroke="black" points="216.36,-119.99 217.58,-109.47 210.06,-116.93 216.36,-119.99"/>
</g>
<!-- Button -->
<g id="node6" class="node" pointer-events="visible" data-name="Button">

<polygon fill="none" stroke="black" points="439.66,-180 385.43,-180 385.43,-144 439.66,-144 439.66,-180"/>
<text text-anchor="middle" x="412.54" y="-157.8" font-family="Helvetica,Arial,sans-serif" font-size="14.00">Button</text>
</g>
<!-- Button&#45;&gt;Tokens &amp; Base -->
<g id="edge7" class="edge" data-name="Button-&gt;Tokens &amp; Base">

<path fill="none" stroke="black" d="M417.71,-143.53C423.95,-124.48 435.88,-93.82 453.54,-72 462.47,-60.98 474.17,-51.02 485.5,-42.79"/>
<polygon fill="black" stroke="black" points="487.39,-45.74 493.61,-37.16 483.4,-39.99 487.39,-45.74"/>
</g>
<!-- Button&#45;&gt;Icon -->
<g id="edge8" class="edge" data-name="Button-&gt;Icon">

<path fill="none" stroke="black" d="M385.1,-150.67C353.14,-138.64 300.16,-118.7 264.33,-105.22"/>
<polygon fill="black" stroke="black" points="265.81,-102.04 255.22,-101.79 263.34,-108.59 265.81,-102.04"/>
</g>
<!-- Tag -->
<g id="node7" class="node" pointer-events="visible" data-name="Tag">

<polygon fill="none" stroke="black" points="291.54,-180 237.54,-180 237.54,-144 291.54,-144 291.54,-180"/>
<text text-anchor="middle" x="264.54" y="-157.8" font-family="Helvetica,Arial,sans-serif" font-size="14.00">Tag</text>
</g>
<!-- Tag&#45;&gt;Tokens &amp; Base -->
<g id="edge9" class="edge" data-name="Tag-&gt;Tokens &amp; Base">

<path fill="none" stroke="black" d="M267.75,-143.84C272.46,-123.59 283.21,-90.37 305.54,-72 349.37,-35.96 413.83,-23.75 461.48,-19.93"/>
<polygon fill="black" stroke="black" points="461.65,-23.42 471.39,-19.25 461.18,-16.44 461.65,-23.42"/>
</g>
<!-- Tag&#45;&gt;Icon -->
<g id="edge10" class="edge" data-name="Tag-&gt;Icon">

<path fill="none" stroke="black" d="M255.15,-143.7C250.96,-135.98 245.93,-126.71 241.26,-118.11"/>
<polygon fill="black" stroke="black" points="244.4,-116.55 236.55,-109.43 238.25,-119.89 244.4,-116.55"/>
</g>
<!-- Button Group -->
<g id="node8" class="node" pointer-events="visible" data-name="Button Group">

<polygon fill="none" stroke="black" points="344.44,-252 250.65,-252 250.65,-216 344.44,-216 344.44,-252"/>
<text text-anchor="middle" x="297.54" y="-229.8" font-family="Helvetica,Arial,sans-serif" font-size="14.00">Button Group</text>
</g>
<!-- Button Group&#45;&gt;Tokens &amp; Base -->
<g id="edge11" class="edge" data-name="Button Group-&gt;Tokens &amp; Base">

<path fill="none" stroke="black" d="M303.19,-215.69C314.62,-183.17 343.5,-112.59 390.54,-72 410.83,-54.5 437.6,-42.36 461.87,-34.17"/>
<polygon fill="black" stroke="black" points="462.91,-37.51 471.37,-31.14 460.78,-30.84 462.91,-37.51"/>
</g>
<!-- Button Group&#45;&gt;Button -->
<g id="edge12" class="edge" data-name="Button Group-&gt;Button">

<path fill="none" stroke="black" d="M326.27,-215.52C341.14,-206.46 359.48,-195.3 375.42,-185.6"/>
<polygon fill="black" stroke="black" points="376.97,-188.75 383.69,-180.57 373.33,-182.78 376.97,-188.75"/>
</g>
<!-- Sidebar -->
<g id="node9" class="node" pointer-events="visible" data-name="Sidebar">

<polygon fill="none" stroke="black" points="420.81,-252 362.28,-252 362.28,-216 420.81,-216 420.81,-252"/>
<text text-anchor="middle" x="391.54" y="-229.8" font-family="Helvetica,Arial,sans-serif" font-size="14.00">Sidebar</text>
</g>
<!-- Sidebar&#45;&gt;Tokens &amp; Base -->
<g id="edge13" class="edge" data-name="Sidebar-&gt;Tokens &amp; Base">

<path fill="none" stroke="black" d="M383.76,-215.57C376.74,-197.35 368.63,-168.12 376.54,-144 388.94,-106.25 399.74,-98.28 429.54,-72 442.91,-60.22 459.32,-49.92 474.73,-41.62"/>
<polygon fill="black" stroke="black" points="476.06,-44.87 483.32,-37.15 472.83,-38.66 476.06,-44.87"/>
</g>
<!-- Sidebar&#45;&gt;Button -->
<g id="edge14" class="edge" data-name="Sidebar-&gt;Button">

<path fill="none" stroke="black" d="M396.74,-215.7C398.97,-208.24 401.65,-199.32 404.16,-190.97"/>
<polygon fill="black" stroke="black" points="407.46,-192.14 406.98,-181.55 400.75,-190.13 407.46,-192.14"/>
</g>
<!-- Navbar -->
<g id="node10" class="node" pointer-events="visible" data-name="Navbar">

<polygon fill="none" stroke="black" points="496.25,-252 438.84,-252 438.84,-216 496.25,-216 496.25,-252"/>
<text text-anchor="middle" x="467.54" y="-229.8" font-family="Helvetica,Arial,sans-serif" font-size="14.00">Navbar</text>
</g>
<!-- Navbar&#45;&gt;Tokens &amp; Base -->
<g id="edge15" class="edge" data-name="Navbar-&gt;Tokens &amp; Base">

<path fill="none" stroke="black" d="M472.11,-215.85C481.91,-179.07 505.02,-92.29 517.02,-47.24"/>
<polygon fill="black" stroke="black" points="520.37,-48.26 519.57,-37.7 513.61,-46.46 520.37,-48.26"/>
</g>
<!-- Navbar&#45;&gt;Button -->
<g id="edge16" class="edge" data-name="Navbar-&gt;Button">

<path fill="none" stroke="black" d="M453.95,-215.7C447.62,-207.64 439.96,-197.89 432.96,-188.98"/>
<polygon fill="black" stroke="black" points="435.85,-187 426.92,-181.29 430.35,-191.32 435.85,-187"/>
</g>
<!-- Pagination -->
<g id="node11" class="node" pointer-events="visible" data-name="Pagination">

<polygon fill="none" stroke="black" points="590.43,-252 514.66,-252 514.66,-216 590.43,-216 590.43,-252"/>
<text text-anchor="middle" x="552.54" y="-229.8" font-family="Helvetica,Arial,sans-serif" font-size="14.00">Pagination</text>
</g>
<!-- Pagination&#45;&gt;Tokens &amp; Base -->
<g id="edge19" class="edge" data-name="Pagination-&gt;Tokens &amp; Base">

<path fill="none" stroke="black" d="M540.66,-215.72C534.53,-205.76 527.7,-192.73 524.54,-180 513.33,-134.77 516.72,-80.18 520.45,-47.59"/>
<polygon fill="black" stroke="black" points="523.92,-48.11 521.68,-37.75 516.97,-47.24 523.92,-48.11"/>
</g>
<!-- Pagination&#45;&gt;Button -->
<g id="edge17" class="edge" data-name="Pagination-&gt;Button">

<path fill="none" stroke="black" d="M517.58,-215.52C497.07,-205.26 471.16,-192.31 450.2,-181.83"/>
<polygon fill="black" stroke="black" points="451.92,-178.77 441.41,-177.43 448.79,-185.03 451.92,-178.77"/>
</g>
<!-- Form -->
<g id="node12" class="node" pointer-events="visible" data-name="Form">

<polygon fill="none" stroke="black" points="587.54,-180 533.54,-180 533.54,-144 587.54,-144 587.54,-180"/>
<text text-anchor="middle" x="560.54" y="-157.8" font-family="Helvetica,Arial,sans-serif" font-size="14.00">Form</text>
</g>
<!-- Pagination&#45;&gt;Form -->
<g id="edge18" class="edge" data-name="Pagination-&gt;Form">

<path fill="none" stroke="black" d="M554.52,-215.7C555.36,-208.41 556.35,-199.73 557.28,-191.54"/>
<polygon fill="black" stroke="black" points="560.76,-191.94 558.42,-181.61 553.81,-191.15 560.76,-191.94"/>
</g>
<!-- Form&#45;&gt;Tokens &amp; Base -->
<g id="edge24" class="edge" data-name="Form-&gt;Tokens &amp; Base">

<path fill="none" stroke="black" d="M556.13,-143.59C550.02,-119.5 538.93,-75.75 531.65,-47.03"/>
<polygon fill="black" stroke="black" points="535.11,-46.41 529.25,-37.58 528.32,-48.13 535.11,-46.41"/>
</g>
<!-- Avatar -->
<g id="node13" class="node" pointer-events="visible" data-name="Avatar">

<polygon fill="none" stroke="black" points="625.63,-108 571.46,-108 571.46,-72 625.63,-72 625.63,-108"/>
<text text-anchor="middle" x="598.54" y="-85.8" font-family="Helvetica,Arial,sans-serif" font-size="14.00">Avatar</text>
</g>
<!-- Avatar&#45;&gt;Tokens &amp; Base -->
<g id="edge20" class="edge" data-name="Avatar-&gt;Tokens &amp; Base">

<path fill="none" stroke="black" d="M580.25,-71.7C571.45,-63.37 560.72,-53.22 551.05,-44.07"/>
<polygon fill="black" stroke="black" points="553.65,-41.72 543.98,-37.39 548.84,-46.8 553.65,-41.72"/>
</g>
<!-- Card -->
<g id="node14" class="node" pointer-events="visible" data-name="Card">

<polygon fill="none" stroke="black" points="697.54,-108 643.54,-108 643.54,-72 697.54,-72 697.54,-108"/>
<text text-anchor="middle" x="670.54" y="-85.8" font-family="Helvetica,Arial,sans-serif" font-size="14.00">Card</text>
</g>
<!-- Card&#45;&gt;Tokens &amp; Base -->
<g id="edge21" class="edge" data-name="Card-&gt;Tokens &amp; Base">

<path fill="none" stroke="black" d="M643.08,-75.83C622.86,-66.14 594.88,-52.72 571.19,-41.36"/>
<polygon fill="black" stroke="black" points="572.88,-38.29 562.35,-37.13 569.85,-44.61 572.88,-38.29"/>
</g>
<!-- Confirm Dialog -->
<g id="node15" class="node" pointer-events="visible" data-name="Confirm Dialog">

<polygon fill="none" stroke="black" points="821.09,-108 716,-108 716,-72 821.09,-72 821.09,-108"/>
<text text-anchor="middle" x="768.54" y="-85.8" font-family="Helvetica,Arial,sans-serif" font-size="14.00">Confirm Dialog</text>
</g>
<!-- Confirm Dialog&#45;&gt;Tokens &amp; Base -->
<g id="edge22" class="edge" data-name="Confirm Dialog-&gt;Tokens &amp; Base">

<path fill="none" stroke="black" d="M715.6,-73.81C677.81,-62.97 626.83,-48.34 587.04,-36.93"/>
<polygon fill="black" stroke="black" points="588.16,-33.61 577.59,-34.22 586.23,-40.34 588.16,-33.61"/>
</g>
<!-- Divider -->
<g id="node16" class="node" pointer-events="visible" data-name="Divider">

<polygon fill="none" stroke="black" points="897.81,-108 839.28,-108 839.28,-72 897.81,-72 897.81,-108"/>
<text text-anchor="middle" x="868.54" y="-85.8" font-family="Helvetica,Arial,sans-serif" font-size="14.00">Divider</text>
</g>
<!-- Divider&#45;&gt;Tokens &amp; Base -->
<g id="edge23" class="edge" data-name="Divider-&gt;Tokens &amp; Base">

<path fill="none" stroke="black" d="M838.94,-74.92C836.14,-73.84 833.31,-72.84 830.54,-72 748.5,-46.97 650.24,-32.58 587.62,-25.27"/>
<polygon fill="black" stroke="black" points="588.19,-21.82 577.85,-24.16 587.39,-28.77 588.19,-21.82"/>
</g>
<!-- Modal -->
<g id="node17" class="node" pointer-events="visible" data-name="Modal">

<polygon fill="none" stroke="black" points="969.54,-108 915.54,-108 915.54,-72 969.54,-72 969.54,-108"/>
<text text-anchor="middle" x="942.54" y="-85.8" font-family="Helvetica,Arial,sans-serif" font-size="14.00">Modal</text>
</g>
<!-- Modal&#45;&gt;Tokens &amp; Base -->
<g id="edge26" class="edge" data-name="Modal-&gt;Tokens &amp; Base">

<path fill="none" stroke="black" d="M915.37,-75.12C912.44,-73.94 909.46,-72.87 906.54,-72 797.29,-39.45 664.39,-26.76 587.63,-21.9"/>
<polygon fill="black" stroke="black" points="587.96,-18.42 577.77,-21.31 587.54,-25.4 587.96,-18.42"/>
</g>
<!-- Spinner -->
<g id="node18" class="node" pointer-events="visible" data-name="Spinner">

<polygon fill="none" stroke="black" points="1047.1,-108 987.99,-108 987.99,-72 1047.1,-72 1047.1,-108"/>
<text text-anchor="middle" x="1017.54" y="-85.8" font-family="Helvetica,Arial,sans-serif" font-size="14.00">Spinner</text>
</g>
<!-- Spinner&#45;&gt;Tokens &amp; Base -->
<g id="edge27" class="edge" data-name="Spinner-&gt;Tokens &amp; Base">

<path fill="none" stroke="black" d="M987.63,-74.92C984.6,-73.81 981.54,-72.81 978.54,-72 842.35,-35.24 676.39,-23.98 587.67,-20.52"/>
<polygon fill="black" stroke="black" points="587.83,-17.03 577.71,-20.16 587.57,-24.02 587.83,-17.03"/>
</g>
<!-- Table -->
<g id="node19" class="node" pointer-events="visible" data-name="Table">

<polygon fill="none" stroke="black" points="1119.54,-108 1065.54,-108 1065.54,-72 1119.54,-72 1119.54,-108"/>
<text text-anchor="middle" x="1092.54" y="-85.8" font-family="Helvetica,Arial,sans-serif" font-size="14.00">Table</text>
</g>
<!-- Table&#45;&gt;Tokens &amp; Base -->
<g id="edge28" class="edge" data-name="Table-&gt;Tokens &amp; Base">

<path fill="none" stroke="black" d="M1065.4,-75C1062.46,-73.85 1059.48,-72.81 1056.54,-72 891.77,-26.36 688.68,-18.96 587.72,-18.4"/>
<polygon fill="black" stroke="black" points="587.74,-14.9 577.73,-18.37 587.72,-21.9 587.74,-14.9"/>
</g>
<!-- Switch -->
<g id="node20" class="node" pointer-events="visible" data-name="Switch">

<polygon fill="none" stroke="black" points="1191.93,-108 1137.16,-108 1137.16,-72 1191.93,-72 1191.93,-108"/>
<text text-anchor="middle" x="1164.54" y="-85.8" font-family="Helvetica,Arial,sans-serif" font-size="14.00">Switch</text>
</g>
<!-- Switch&#45;&gt;Tokens &amp; Base -->
<g id="edge29" class="edge" data-name="Switch-&gt;Tokens &amp; Base">

<path fill="none" stroke="black" d="M1137.01,-74.81C1134.2,-73.73 1131.35,-72.76 1128.54,-72 1027.84,-44.74 720.96,-27.92 587.57,-21.71"/>
<polygon fill="black" stroke="black" points="588.02,-18.23 577.87,-21.27 587.7,-25.22 588.02,-18.23"/>
</g>
<!-- Tooltip -->
<g id="node21" class="node" pointer-events="visible" data-name="Tooltip">

<polygon fill="none" stroke="black" points="1267.27,-108 1209.82,-108 1209.82,-72 1267.27,-72 1267.27,-108"/>
<text text-anchor="middle" x="1238.54" y="-85.8" font-family="Helvetica,Arial,sans-serif" font-size="14.00">Tooltip</text>
</g>
<!-- Tooltip&#45;&gt;Tokens &amp; Base -->
<g id="edge30" class="edge" data-name="Tooltip-&gt;Tokens &amp; Base">

<path fill="none" stroke="black" d="M1209.44,-74.79C1206.49,-73.71 1203.49,-72.75 1200.54,-72 1085.45,-42.68 731.8,-26.65 587.17,-21.18"/>
<polygon fill="black" stroke="black" points="587.53,-17.69 577.4,-20.81 587.27,-24.69 587.53,-17.69"/>
</g>
</g>
</svg>