<svg width="337" height="60" viewBox="0 0 337 60" fill="none" xmlns="http://www.w3.org/2000/svg">
<path fill-rule="evenodd" clip-rule="evenodd" d="M24 44C31.732 44 38 37.732 38 30C38 22.268 31.732 16 24 16C16.268 16 10 22.268 10 30C10 37.732 16.268 44 24 44ZM24 54C37.2548 54 48 43.2548 48 30C48 16.7452 37.2548 6 24 6C10.7452 6 0 16.7452 0 30C0 43.2548 10.7452 54 24 54Z" fill="#FF7700"/>
<path fill-rule="evenodd" clip-rule="evenodd" d="M79.6549 6.41138C82.0063 7.729 82.8366 10.7239 81.5032 13.1118L59.989 51.5952C58.6555 53.9832 55.6728 54.887 53.3214 53.5694C50.9699 52.2518 50.0987 49.1827 51.4321 46.7948L72.9463 8.31137C74.2797 5.9234 77.3034 5.09377 79.6549 6.41138Z" fill="#FACE0A"/>
<path d="M85 30C85 18.6863 85 13.0294 88.5147 9.51471C92.0294 6 97.6863 6 109 6C120.314 6 125.971 6 129.485 9.51471C133 13.0294 133 18.6863 133 30C133 41.3136 133 46.9705 129.485 50.4854C125.971 54 120.314 54 109 54C97.6863 54 92.0294 54 88.5147 50.4854C85 46.9705 85 41.3136 85 30Z" fill="#0868F7"/>
<path d="M163.343 49.7101C152.544 49.7101 144 41.4712 144 30.1861C144 18.9009 152.475 10.7313 163.343 10.7313C174.142 10.7313 182.685 18.9009 182.685 30.1861C182.685 41.4712 174.073 49.7101 163.343 49.7101ZM163.343 42.0251C169.562 42.0251 174.142 37.1095 174.142 30.2553C174.142 23.4011 169.562 18.4163 163.343 18.4163C157.055 18.4163 152.544 23.4011 152.544 30.2553C152.544 37.1095 157.055 42.0251 163.343 42.0251Z" fill="#010814"/>
<path d="M206.829 10.7313C217.218 10.7313 225.488 19.1086 225.488 30.1861C225.488 41.2635 217.286 49.7101 206.76 49.7101C201.908 49.7101 197.738 47.9792 195.141 45.0714V60H186.939V11.5621H194.663V16.27C197.192 12.8083 201.634 10.7313 206.829 10.7313ZM206.008 42.0251C212.297 42.0251 216.944 37.0402 216.944 30.2553C216.944 23.4011 212.297 18.4163 206.008 18.4163C199.652 18.4163 195.141 23.3319 195.141 30.2553C195.141 37.1095 199.652 42.0251 206.008 42.0251Z" fill="#010814"/>
<path d="M245.705 49.2947C237.435 49.2947 232.787 44.5868 232.787 36.3479V19.0394H226.089V11.5621H227.182C230.736 11.5621 232.787 9.55431 232.787 5.95413V0H240.989V11.5621H249.737V19.0394H240.989V36.3479C240.989 39.5327 242.287 42.5097 247.482 42.5097C248.165 42.5097 249.054 42.4405 249.942 42.302V48.9485C248.644 49.1562 247.003 49.2947 245.705 49.2947Z" fill="#010814"/>
<path d="M255.668 9.37257V0.0259606H263.87V9.37257H255.668ZM255.668 48.8793V11.5621H263.87V48.8793H255.668Z" fill="#010814"/>
<path d="M287.701 49.7101C276.902 49.7101 268.768 41.3328 268.768 30.1861C268.768 19.0394 276.833 10.7313 287.701 10.7313C295.492 10.7313 301.917 15.1623 304.173 21.4626L297.064 25.0627C295.629 21.0472 292.143 18.4163 287.701 18.4163C281.686 18.4163 277.312 23.3319 277.312 30.2553C277.312 37.0402 281.686 42.0251 287.701 42.0251C292.212 42.0251 295.629 39.4634 297.064 35.3786L304.173 39.048C301.986 45.1406 295.561 49.7101 287.701 49.7101Z" fill="#010814"/>
<path d="M322.667 49.7101C315.012 49.7101 308.724 45.7637 306.4 39.2557L312.756 36.1402C314.67 40.5712 318.292 42.9251 322.667 42.9251C326.358 42.9251 328.75 41.1943 328.75 38.6326C328.75 36.071 326.153 34.9632 323.897 34.3401L317.609 32.6785C311.184 30.8784 307.972 27.0705 307.972 22.0164C307.972 15.3007 313.508 10.7313 321.641 10.7313C328.886 10.7313 334.628 14.4007 336.883 20.3548L330.458 23.4011C329.092 19.8702 325.811 17.7239 321.641 17.7239C318.224 17.7239 316.105 19.3163 316.105 21.6703C316.105 24.0242 318.429 25.2012 320.548 25.8243L327.109 27.6936C333.466 29.4937 336.883 33.2324 336.883 38.4249C336.883 45.1406 331.074 49.7101 322.667 49.7101Z" fill="#010814"/>
</svg>
