<?xml version="1.0" standalone="no"?>
<svg xmlns="http://www.w3.org/2000/svg" xmlns:xlink="http://www.w3.org/1999/xlink" width="1634pt" height="260pt" viewBox="0.00 0.00 1634.16 260.00">
<g id="graph0" class="graph" transform="translate(4,256) scale(1)" data-name="dependencies">

<polygon fill="white" stroke="none" points="-4,4 -4,-256 1630.16,-256 1630.16,4 -4,4"/>
<!-- Tokens &amp; Base -->
<g id="node1" class="node" pointer-events="visible" data-name="Fonts, Tokens, Base" data-comment="Tokens &amp; Base">

<polygon fill="none" stroke="black" points="708.1,-36 578.99,-36 578.99,0 708.1,0 708.1,-36"/>
<text text-anchor="middle" x="643.54" y="-13.8" font-family="Helvetica,Arial,sans-serif" font-size="14.00">Fonts, Tokens, Base</text>
</g>
<!-- Accordion -->
<g id="node2" class="node" pointer-events="visible" data-name="Accordion">

<polygon fill="none" stroke="black" points="75.13,-180 -0.04,-180 -0.04,-144 75.13,-144 75.13,-180"/>
<text text-anchor="middle" x="37.54" y="-157.8" font-family="Helvetica,Arial,sans-serif" font-size="14.00">Accordion</text>
</g>
<!-- Accordion&#45;&gt;Tokens &amp; Base -->
<g id="edge1" class="edge" data-name="Accordion-&gt;Fonts, Tokens, Base" data-comment="Accordion-&gt;Tokens &amp; Base">

<path fill="none" stroke="black" d="M51.32,-143.76C69.18,-122.78 102.49,-88.15 139.54,-72 214.45,-39.34 446.02,-26.17 567.45,-21.41"/>
<polygon fill="black" stroke="black" points="567.48,-24.91 577.34,-21.03 567.21,-17.91 567.48,-24.91"/>
</g>
<!-- Icon -->
<g id="node3" class="node" pointer-events="visible" data-name="Icon">

<polygon fill="none" stroke="black" points="253.54,-108 199.54,-108 199.54,-72 253.54,-72 253.54,-108"/>
<text text-anchor="middle" x="226.54" y="-85.8" font-family="Helvetica,Arial,sans-serif" font-size="14.00">Icon</text>
</g>
<!-- Accordion&#45;&gt;Icon -->
<g id="edge2" class="edge" data-name="Accordion-&gt;Icon">

<path fill="none" stroke="black" d="M75.34,-147C108.24,-134.82 155.71,-117.24 188.65,-105.04"/>
<polygon fill="black" stroke="black" points="189.64,-108.4 197.8,-101.65 187.2,-101.84 189.64,-108.4"/>
</g>
<!-- Icon&#45;&gt;Tokens &amp; Base -->
<g id="edge26" class="edge" data-name="Icon-&gt;Fonts, Tokens, Base" data-comment="Icon-&gt;Tokens &amp; Base">

<path fill="none" stroke="black" d="M254,-76.51C258.46,-74.8 263.08,-73.22 267.54,-72 369.17,-44.25 490.43,-30.49 567.21,-24.07"/>
<polygon fill="black" stroke="black" points="567.48,-27.56 577.17,-23.26 566.92,-20.59 567.48,-27.56"/>
</g>
<!-- Alert -->
<g id="node4" class="node" pointer-events="visible" data-name="Alert">

<polygon fill="none" stroke="black" points="147.54,-180 93.54,-180 93.54,-144 147.54,-144 147.54,-180"/>
<text text-anchor="middle" x="120.54" y="-157.8" font-family="Helvetica,Arial,sans-serif" font-size="14.00">Alert</text>
</g>
<!-- Alert&#45;&gt;Tokens &amp; Base -->
<g id="edge3" class="edge" data-name="Alert-&gt;Fonts, Tokens, Base" data-comment="Alert-&gt;Tokens &amp; Base">

<path fill="none" stroke="black" d="M126.03,-143.58C133.58,-122.75 149.31,-88.63 175.54,-72 238.95,-31.8 452.21,-22 567.7,-19.67"/>
<polygon fill="black" stroke="black" points="567.46,-23.18 577.39,-19.49 567.33,-16.18 567.46,-23.18"/>
</g>
<!-- Alert&#45;&gt;Icon -->
<g id="edge4" class="edge" data-name="Alert-&gt;Icon">

<path fill="none" stroke="black" d="M147.02,-143.52C160.27,-134.76 176.51,-124.04 190.84,-114.58"/>
<polygon fill="black" stroke="black" points="192.73,-117.53 199.14,-109.09 188.87,-111.68 192.73,-117.53"/>
</g>
<!-- Badge -->
<g id="node5" class="node" pointer-events="visible" data-name="Badge">

<polygon fill="none" stroke="black" points="219.54,-180 165.54,-180 165.54,-144 219.54,-144 219.54,-180"/>
<text text-anchor="middle" x="192.54" y="-157.8" font-family="Helvetica,Arial,sans-serif" font-size="14.00">Badge</text>
</g>
<!-- Badge&#45;&gt;Tokens &amp; Base -->
<g id="edge5" class="edge" data-name="Badge-&gt;Fonts, Tokens, Base" data-comment="Badge-&gt;Tokens &amp; Base">

<path fill="none" stroke="black" d="M185.88,-143.56C179.54,-123.66 173.28,-91.4 190.54,-72 215.14,-44.36 445.31,-28.83 567.75,-22.46"/>
<polygon fill="black" stroke="black" points="567.58,-25.97 577.38,-21.96 567.22,-18.98 567.58,-25.97"/>
</g>
<!-- Badge&#45;&gt;Icon -->
<g id="edge6" class="edge" data-name="Badge-&gt;Icon">

<path fill="none" stroke="black" d="M200.95,-143.7C204.66,-136.07 209.1,-126.92 213.24,-118.4"/>
<polygon fill="black" stroke="black" points="216.36,-119.99 217.58,-109.47 210.06,-116.93 216.36,-119.99"/>
</g>
<!-- Button -->
<g id="node6" class="node" pointer-events="visible" data-name="Button">

<polygon fill="none" stroke="black" points="439.66,-180 385.43,-180 385.43,-144 439.66,-144 439.66,-180"/>
<text text-anchor="middle" x="412.54" y="-157.8" font-family="Helvetica,Arial,sans-serif" font-size="14.00">Button</text>
</g>
<!-- Button&#45;&gt;Tokens &amp; Base -->
<g id="edge7" class="edge" data-name="Button-&gt;Fonts, Tokens, Base" data-comment="Button-&gt;Tokens &amp; Base">

<path fill="none" stroke="black" d="M415.95,-143.61C420.8,-123.46 431.66,-90.64 453.54,-72 485.22,-45.02 529.63,-31.71 567.55,-25.17"/>
<polygon fill="black" stroke="black" points="567.75,-28.68 577.08,-23.66 566.65,-21.77 567.75,-28.68"/>
</g>
<!-- Button&#45;&gt;Icon -->
<g id="edge8" class="edge" data-name="Button-&gt;Icon">

<path fill="none" stroke="black" d="M385.1,-150.67C353.14,-138.64 300.16,-118.7 264.33,-105.22"/>
<polygon fill="black" stroke="black" points="265.81,-102.04 255.22,-101.79 263.34,-108.59 265.81,-102.04"/>
</g>
<!-- Tag -->
<g id="node7" class="node" pointer-events="visible" data-name="Tag">

<polygon fill="none" stroke="black" points="291.54,-180 237.54,-180 237.54,-144 291.54,-144 291.54,-180"/>
<text text-anchor="middle" x="264.54" y="-157.8" font-family="Helvetica,Arial,sans-serif" font-size="14.00">Tag</text>
</g>
<!-- Tag&#45;&gt;Tokens &amp; Base -->
<g id="edge9" class="edge" data-name="Tag-&gt;Fonts, Tokens, Base" data-comment="Tag-&gt;Tokens &amp; Base">

<path fill="none" stroke="black" d="M267.51,-143.52C271.96,-122.97 282.47,-89.44 305.54,-72 345.68,-41.66 480.69,-28.27 567.45,-22.68"/>
<polygon fill="black" stroke="black" points="567.55,-26.18 577.32,-22.06 567.12,-19.19 567.55,-26.18"/>
</g>
<!-- Tag&#45;&gt;Icon -->
<g id="edge10" class="edge" data-name="Tag-&gt;Icon">

<path fill="none" stroke="black" d="M255.15,-143.7C250.96,-135.98 245.93,-126.71 241.26,-118.11"/>
<polygon fill="black" stroke="black" points="244.4,-116.55 236.55,-109.43 238.25,-119.89 244.4,-116.55"/>
</g>
<!-- Button Group -->
<g id="node8" class="node" pointer-events="visible" data-name="Button Group">

<polygon fill="none" stroke="black" points="344.44,-252 250.65,-252 250.65,-216 344.44,-216 344.44,-252"/>
<text text-anchor="middle" x="297.54" y="-229.8" font-family="Helvetica,Arial,sans-serif" font-size="14.00">Button Group</text>
</g>
<!-- Button Group&#45;&gt;Tokens &amp; Base -->
<g id="edge11" class="edge" data-name="Button Group-&gt;Fonts, Tokens, Base" data-comment="Button Group-&gt;Tokens &amp; Base">

<path fill="none" stroke="black" d="M302.01,-215.71C311.59,-182.25 337.44,-108.73 387.54,-72 415.69,-51.37 502.38,-36.4 567.14,-27.74"/>
<polygon fill="black" stroke="black" points="567.59,-31.21 577.05,-26.44 566.68,-24.27 567.59,-31.21"/>
</g>
<!-- Button Group&#45;&gt;Button -->
<g id="edge12" class="edge" data-name="Button Group-&gt;Button">

<path fill="none" stroke="black" d="M326.27,-215.52C341.14,-206.46 359.48,-195.3 375.42,-185.6"/>
<polygon fill="black" stroke="black" points="376.97,-188.75 383.69,-180.57 373.33,-182.78 376.97,-188.75"/>
</g>
<!-- Sidebar -->
<g id="node9" class="node" pointer-events="visible" data-name="Sidebar">

<polygon fill="none" stroke="black" points="420.81,-252 362.28,-252 362.28,-216 420.81,-216 420.81,-252"/>
<text text-anchor="middle" x="391.54" y="-229.8" font-family="Helvetica,Arial,sans-serif" font-size="14.00">Sidebar</text>
</g>
<!-- Sidebar&#45;&gt;Tokens &amp; Base -->
<g id="edge13" class="edge" data-name="Sidebar-&gt;Fonts, Tokens, Base" data-comment="Sidebar-&gt;Tokens &amp; Base">

<path fill="none" stroke="black" d="M383.94,-215.63C377.06,-197.46 369.07,-168.26 376.54,-144 387.94,-107.01 393.73,-94.04 425.54,-72 467.22,-43.13 522.88,-29.91 567.52,-23.9"/>
<polygon fill="black" stroke="black" points="567.92,-27.38 577.41,-22.67 567.06,-20.43 567.92,-27.38"/>
</g>
<!-- Sidebar&#45;&gt;Button -->
<g id="edge14" class="edge" data-name="Sidebar-&gt;Button">

<path fill="none" stroke="black" d="M396.74,-215.7C398.97,-208.24 401.65,-199.32 404.16,-190.97"/>
<polygon fill="black" stroke="black" points="407.46,-192.14 406.98,-181.55 400.75,-190.13 407.46,-192.14"/>
</g>
<!-- Navbar -->
<g id="node10" class="node" pointer-events="visible" data-name="Navbar">

<polygon fill="none" stroke="black" points="496.25,-252 438.84,-252 438.84,-216 496.25,-216 496.25,-252"/>
<text text-anchor="middle" x="467.54" y="-229.8" font-family="Helvetica,Arial,sans-serif" font-size="14.00">Navbar</text>
</g>
<!-- Navbar&#45;&gt;Tokens &amp; Base -->
<g id="edge15" class="edge" data-name="Navbar-&gt;Fonts, Tokens, Base" data-comment="Navbar-&gt;Tokens &amp; Base">

<path fill="none" stroke="black" d="M469.07,-215.68C472.79,-183.45 485.03,-113.78 523.54,-72 535.82,-58.69 552.04,-48.53 568.58,-40.86"/>
<polygon fill="black" stroke="black" points="569.71,-44.18 577.49,-36.99 566.92,-37.76 569.71,-44.18"/>
</g>
<!-- Navbar&#45;&gt;Button -->
<g id="edge16" class="edge" data-name="Navbar-&gt;Button">

<path fill="none" stroke="black" d="M453.95,-215.7C447.62,-207.64 439.96,-197.89 432.96,-188.98"/>
<polygon fill="black" stroke="black" points="435.85,-187 426.92,-181.29 430.35,-191.32 435.85,-187"/>
</g>
<!-- Pagination -->
<g id="node11" class="node" pointer-events="visible" data-name="Pagination">

<polygon fill="none" stroke="black" points="590.43,-252 514.66,-252 514.66,-216 590.43,-216 590.43,-252"/>
<text text-anchor="middle" x="552.54" y="-229.8" font-family="Helvetica,Arial,sans-serif" font-size="14.00">Pagination</text>
</g>
<!-- Pagination&#45;&gt;Tokens &amp; Base -->
<g id="edge19" class="edge" data-name="Pagination-&gt;Fonts, Tokens, Base" data-comment="Pagination-&gt;Tokens &amp; Base">

<path fill="none" stroke="black" d="M540.66,-215.72C534.53,-205.76 527.7,-192.73 524.54,-180 512.66,-132.08 518.75,-109.77 550.54,-72 560.95,-59.64 575,-49.57 589.03,-41.65"/>
<polygon fill="black" stroke="black" points="590.66,-44.75 597.86,-36.97 587.38,-38.56 590.66,-44.75"/>
</g>
<!-- Pagination&#45;&gt;Button -->
<g id="edge17" class="edge" data-name="Pagination-&gt;Button">

<path fill="none" stroke="black" d="M517.58,-215.52C497.07,-205.26 471.16,-192.31 450.2,-181.83"/>
<polygon fill="black" stroke="black" points="451.92,-178.77 441.41,-177.43 448.79,-185.03 451.92,-178.77"/>
</g>
<!-- Form -->
<g id="node12" class="node" pointer-events="visible" data-name="Form">

<polygon fill="none" stroke="black" points="587.54,-180 533.54,-180 533.54,-144 587.54,-144 587.54,-180"/>
<text text-anchor="middle" x="560.54" y="-157.8" font-family="Helvetica,Arial,sans-serif" font-size="14.00">Form</text>
</g>
<!-- Pagination&#45;&gt;Form -->
<g id="edge18" class="edge" data-name="Pagination-&gt;Form">

<path fill="none" stroke="black" d="M554.52,-215.7C555.36,-208.41 556.35,-199.73 557.28,-191.54"/>
<polygon fill="black" stroke="black" points="560.76,-191.94 558.42,-181.61 553.81,-191.15 560.76,-191.94"/>
</g>
<!-- Form&#45;&gt;Tokens &amp; Base -->
<g id="edge25" class="edge" data-name="Form-&gt;Fonts, Tokens, Base" data-comment="Form-&gt;Tokens &amp; Base">

<path fill="none" stroke="black" d="M556.43,-143.71C552.91,-124.82 550.16,-94.29 562.54,-72 569.24,-59.95 579.96,-50.18 591.44,-42.46"/>
<polygon fill="black" stroke="black" points="593.22,-45.48 599.9,-37.26 589.55,-39.52 593.22,-45.48"/>
</g>
<!-- Avatar -->
<g id="node13" class="node" pointer-events="visible" data-name="Avatar">

<polygon fill="none" stroke="black" points="625.63,-108 571.46,-108 571.46,-72 625.63,-72 625.63,-108"/>
<text text-anchor="middle" x="598.54" y="-85.8" font-family="Helvetica,Arial,sans-serif" font-size="14.00">Avatar</text>
</g>
<!-- Avatar&#45;&gt;Tokens &amp; Base -->
<g id="edge20" class="edge" data-name="Avatar-&gt;Fonts, Tokens, Base" data-comment="Avatar-&gt;Tokens &amp; Base">

<path fill="none" stroke="black" d="M609.67,-71.7C614.74,-63.81 620.85,-54.3 626.48,-45.55"/>
<polygon fill="black" stroke="black" points="629.27,-47.68 631.73,-37.38 623.38,-43.9 629.27,-47.68"/>
</g>
<!-- Breadcrumbs -->
<g id="node14" class="node" pointer-events="visible" data-name="Breadcrumbs">

<polygon fill="none" stroke="black" points="733.69,-108 643.4,-108 643.4,-72 733.69,-72 733.69,-108"/>
<text text-anchor="middle" x="688.54" y="-85.8" font-family="Helvetica,Arial,sans-serif" font-size="14.00">Breadcrumbs</text>
</g>
<!-- Breadcrumbs&#45;&gt;Tokens &amp; Base -->
<g id="edge21" class="edge" data-name="Breadcrumbs-&gt;Fonts, Tokens, Base" data-comment="Breadcrumbs-&gt;Tokens &amp; Base">

<path fill="none" stroke="black" d="M677.42,-71.7C672.35,-63.81 666.24,-54.3 660.61,-45.55"/>
<polygon fill="black" stroke="black" points="663.71,-43.9 655.36,-37.38 657.82,-47.68 663.71,-43.9"/>
</g>
<!-- Card -->
<g id="node15" class="node" pointer-events="visible" data-name="Card">

<polygon fill="none" stroke="black" points="805.54,-108 751.54,-108 751.54,-72 805.54,-72 805.54,-108"/>
<text text-anchor="middle" x="778.54" y="-85.8" font-family="Helvetica,Arial,sans-serif" font-size="14.00">Card</text>
</g>
<!-- Card&#45;&gt;Tokens &amp; Base -->
<g id="edge22" class="edge" data-name="Card-&gt;Fonts, Tokens, Base" data-comment="Card-&gt;Tokens &amp; Base">

<path fill="none" stroke="black" d="M751.23,-74.83C732.82,-65.29 708.14,-52.5 687.06,-41.56"/>
<polygon fill="black" stroke="black" points="688.87,-38.56 678.38,-37.06 685.65,-44.78 688.87,-38.56"/>
</g>
<!-- Confirm Dialog -->
<g id="node16" class="node" pointer-events="visible" data-name="Confirm Dialog">

<polygon fill="none" stroke="black" points="929.09,-108 824,-108 824,-72 929.09,-72 929.09,-108"/>
<text text-anchor="middle" x="876.54" y="-85.8" font-family="Helvetica,Arial,sans-serif" font-size="14.00">Confirm Dialog</text>
</g>
<!-- Confirm Dialog&#45;&gt;Tokens &amp; Base -->
<g id="edge23" class="edge" data-name="Confirm Dialog-&gt;Fonts, Tokens, Base" data-comment="Confirm Dialog-&gt;Tokens &amp; Base">

<path fill="none" stroke="black" d="M823.67,-73.12C790.7,-63.21 747.91,-50.36 712.31,-39.66"/>
<polygon fill="black" stroke="black" points="713.55,-36.38 702.97,-36.85 711.54,-43.08 713.55,-36.38"/>
</g>
<!-- Divider -->
<g id="node17" class="node" pointer-events="visible" data-name="Divider">

<polygon fill="none" stroke="black" points="1005.81,-108 947.28,-108 947.28,-72 1005.81,-72 1005.81,-108"/>
<text text-anchor="middle" x="976.54" y="-85.8" font-family="Helvetica,Arial,sans-serif" font-size="14.00">Divider</text>
</g>
<!-- Divider&#45;&gt;Tokens &amp; Base -->
<g id="edge24" class="edge" data-name="Divider-&gt;Fonts, Tokens, Base" data-comment="Divider-&gt;Tokens &amp; Base">

<path fill="none" stroke="black" d="M946.94,-74.94C944.13,-73.85 941.31,-72.85 938.54,-72 865.91,-49.59 780.11,-35.5 719.82,-27.53"/>
<polygon fill="black" stroke="black" points="720.36,-24.07 709.99,-26.26 719.46,-31.01 720.36,-24.07"/>
</g>
<!-- Modal -->
<g id="node18" class="node" pointer-events="visible" data-name="Modal">

<polygon fill="none" stroke="black" points="1077.54,-108 1023.54,-108 1023.54,-72 1077.54,-72 1077.54,-108"/>
<text text-anchor="middle" x="1050.54" y="-85.8" font-family="Helvetica,Arial,sans-serif" font-size="14.00">Modal</text>
</g>
<!-- Modal&#45;&gt;Tokens &amp; Base -->
<g id="edge27" class="edge" data-name="Modal-&gt;Fonts, Tokens, Base" data-comment="Modal-&gt;Tokens &amp; Base">

<path fill="none" stroke="black" d="M1023.36,-75.13C1020.43,-73.95 1017.46,-72.87 1014.54,-72 915.26,-42.21 795.86,-28.97 719.84,-23.22"/>
<polygon fill="black" stroke="black" points="720.22,-19.74 709.99,-22.5 719.71,-26.72 720.22,-19.74"/>
</g>
<!-- Side Panel -->
<g id="node19" class="node" pointer-events="visible" data-name="Side Panel">

<polygon fill="none" stroke="black" points="1171.54,-108 1095.55,-108 1095.55,-72 1171.54,-72 1171.54,-108"/>
<text text-anchor="middle" x="1133.54" y="-85.8" font-family="Helvetica,Arial,sans-serif" font-size="14.00">Side Panel</text>
</g>
<!-- Side Panel&#45;&gt;Tokens &amp; Base -->
<g id="edge28" class="edge" data-name="Side Panel-&gt;Fonts, Tokens, Base" data-comment="Side Panel-&gt;Tokens &amp; Base">

<path fill="none" stroke="black" d="M1095.29,-74.36C1092.35,-73.48 1089.42,-72.68 1086.54,-72 960.02,-41.96 808.91,-28.53 719.89,-22.84"/>
<polygon fill="black" stroke="black" points="720.25,-19.36 710.06,-22.23 719.82,-26.34 720.25,-19.36"/>
</g>
<!-- Spinner -->
<g id="node20" class="node" pointer-events="visible" data-name="Spinner">

<polygon fill="none" stroke="black" points="1249.1,-108 1189.99,-108 1189.99,-72 1249.1,-72 1249.1,-108"/>
<text text-anchor="middle" x="1219.54" y="-85.8" font-family="Helvetica,Arial,sans-serif" font-size="14.00">Spinner</text>
</g>
<!-- Spinner&#45;&gt;Tokens &amp; Base -->
<g id="edge29" class="edge" data-name="Spinner-&gt;Fonts, Tokens, Base" data-comment="Spinner-&gt;Tokens &amp; Base">

<path fill="none" stroke="black" d="M1189.64,-74.86C1186.61,-73.76 1183.55,-72.78 1180.54,-72 1020.2,-30.25 825.09,-20.89 719.79,-19.09"/>
<polygon fill="black" stroke="black" points="719.9,-15.6 709.84,-18.94 719.79,-22.59 719.9,-15.6"/>
</g>
<!-- Switch -->
<g id="node21" class="node" pointer-events="visible" data-name="Switch">

<polygon fill="none" stroke="black" points="1321.93,-108 1267.16,-108 1267.16,-72 1321.93,-72 1321.93,-108"/>
<text text-anchor="middle" x="1294.54" y="-85.8" font-family="Helvetica,Arial,sans-serif" font-size="14.00">Switch</text>
</g>
<!-- Switch&#45;&gt;Tokens &amp; Base -->
<g id="edge30" class="edge" data-name="Switch-&gt;Fonts, Tokens, Base" data-comment="Switch-&gt;Tokens &amp; Base">

<path fill="none" stroke="black" d="M1267.01,-74.81C1264.2,-73.72 1261.35,-72.76 1258.54,-72 1158.88,-45.1 860.91,-28.67 719.56,-22.19"/>
<polygon fill="black" stroke="black" points="720.09,-18.71 709.94,-21.75 719.77,-25.7 720.09,-18.71"/>
</g>
<!-- Tab -->
<g id="node22" class="node" pointer-events="visible" data-name="Tab">

<polygon fill="none" stroke="black" points="1393.54,-108 1339.54,-108 1339.54,-72 1393.54,-72 1393.54,-108"/>
<text text-anchor="middle" x="1366.54" y="-85.8" font-family="Helvetica,Arial,sans-serif" font-size="14.00">Tab</text>
</g>
<!-- Tab&#45;&gt;Tokens &amp; Base -->
<g id="edge31" class="edge" data-name="Tab-&gt;Fonts, Tokens, Base" data-comment="Tab-&gt;Tokens &amp; Base">

<path fill="none" stroke="black" d="M1339.42,-74.94C1336.48,-73.79 1333.48,-72.78 1330.54,-72 1217.03,-41.91 873.54,-26.8 719.6,-21.39"/>
<polygon fill="black" stroke="black" points="720.03,-17.9 709.92,-21.06 719.79,-24.9 720.03,-17.9"/>
</g>
<!-- Table -->
<g id="node23" class="node" pointer-events="visible" data-name="Table">

<polygon fill="none" stroke="black" points="1465.54,-108 1411.54,-108 1411.54,-72 1465.54,-72 1465.54,-108"/>
<text text-anchor="middle" x="1438.54" y="-85.8" font-family="Helvetica,Arial,sans-serif" font-size="14.00">Table</text>
</g>
<!-- Table&#45;&gt;Tokens &amp; Base -->
<g id="edge32" class="edge" data-name="Table-&gt;Fonts, Tokens, Base" data-comment="Table-&gt;Tokens &amp; Base">

<path fill="none" stroke="black" d="M1411.42,-74.91C1408.48,-73.77 1405.49,-72.77 1402.54,-72 1275.03,-38.7 885.17,-25.11 719.41,-20.74"/>
<polygon fill="black" stroke="black" points="719.94,-17.25 709.86,-20.49 719.76,-24.25 719.94,-17.25"/>
</g>
<!-- Text Pair -->
<g id="node24" class="node" pointer-events="visible" data-name="Text Pair">

<polygon fill="none" stroke="black" points="1551.25,-108 1483.84,-108 1483.84,-72 1551.25,-72 1551.25,-108"/>
<text text-anchor="middle" x="1517.54" y="-85.8" font-family="Helvetica,Arial,sans-serif" font-size="14.00">Text Pair</text>
</g>
<!-- Text Pair&#45;&gt;Tokens &amp; Base -->
<g id="edge33" class="edge" data-name="Text Pair-&gt;Fonts, Tokens, Base" data-comment="Text Pair-&gt;Tokens &amp; Base">

<path fill="none" stroke="black" d="M1483.58,-74.46C1480.56,-73.51 1477.52,-72.67 1474.54,-72 1332.01,-40.11 896.76,-25.54 719.68,-20.82"/>
<polygon fill="black" stroke="black" points="720,-17.33 709.91,-20.56 719.82,-24.33 720,-17.33"/>
</g>
<!-- Tooltip -->
<g id="node25" class="node" pointer-events="visible" data-name="Tooltip">

<polygon fill="none" stroke="black" points="1626.27,-108 1568.82,-108 1568.82,-72 1626.27,-72 1626.27,-108"/>
<text text-anchor="middle" x="1597.54" y="-85.8" font-family="Helvetica,Arial,sans-serif" font-size="14.00">Tooltip</text>
</g>
<!-- Tooltip&#45;&gt;Tokens &amp; Base -->
<g id="edge34" class="edge" data-name="Tooltip-&gt;Fonts, Tokens, Base" data-comment="Tooltip-&gt;Tokens &amp; Base">

<path fill="none" stroke="black" d="M1568.42,-74.43C1565.8,-73.48 1563.15,-72.65 1560.54,-72 1402.08,-32.51 910.21,-22.29 719.85,-19.77"/>
<polygon fill="black" stroke="black" points="720.13,-16.28 710.09,-19.65 720.04,-23.28 720.13,-16.28"/>
</g>
</g>
</svg>