<?xml version="1.0" standalone="no"?>
<svg xmlns="http://www.w3.org/2000/svg" xmlns:xlink="http://www.w3.org/1999/xlink" width="1757pt" height="260pt" viewBox="0.00 0.00 1757.16 260.00">
<g id="graph0" class="graph" transform="translate(4,256) scale(1)" data-name="dependencies">

<polygon fill="white" stroke="none" points="-4,4 -4,-256 1753.16,-256 1753.16,4 -4,4"/>
<!-- Fonts, Tokens, Base -->
<g id="node1" class="node" pointer-events="visible" data-name="Fonts, Tokens, Base">

<polygon fill="none" stroke="black" points="753.1,-36 623.99,-36 623.99,0 753.1,0 753.1,-36"/>
<text text-anchor="middle" x="688.54" y="-13.8" font-family="Helvetica,Arial,sans-serif" font-size="14.00">Fonts, Tokens, Base</text>
</g>
<!-- Accordion -->
<g id="node2" class="node" pointer-events="visible" data-name="Accordion">

<polygon fill="none" stroke="black" points="75.13,-180 -0.04,-180 -0.04,-144 75.13,-144 75.13,-180"/>
<text text-anchor="middle" x="37.54" y="-157.8" font-family="Helvetica,Arial,sans-serif" font-size="14.00">Accordion</text>
</g>
<!-- Accordion&#45;&gt;Fonts, Tokens, Base -->
<g id="edge1" class="edge" data-name="Accordion-&gt;Fonts, Tokens, Base">

<path fill="none" stroke="black" d="M51.29,-143.71C69.14,-122.67 102.42,-88 139.54,-72 222.56,-36.23 481.74,-24.39 612.08,-20.64"/>
<polygon fill="black" stroke="black" points="612.11,-24.15 622.01,-20.37 611.92,-17.15 612.11,-24.15"/>
</g>
<!-- Icon -->
<g id="node3" class="node" pointer-events="visible" data-name="Icon">

<polygon fill="none" stroke="black" points="253.54,-108 199.54,-108 199.54,-72 253.54,-72 253.54,-108"/>
<text text-anchor="middle" x="226.54" y="-85.8" font-family="Helvetica,Arial,sans-serif" font-size="14.00">Icon</text>
</g>
<!-- Accordion&#45;&gt;Icon -->
<g id="edge2" class="edge" data-name="Accordion-&gt;Icon">

<path fill="none" stroke="black" d="M75.34,-147C108.24,-134.82 155.71,-117.24 188.65,-105.04"/>
<polygon fill="black" stroke="black" points="189.64,-108.4 197.8,-101.65 187.2,-101.84 189.64,-108.4"/>
</g>
<!-- Icon&#45;&gt;Fonts, Tokens, Base -->
<g id="edge27" class="edge" data-name="Icon-&gt;Fonts, Tokens, Base">

<path fill="none" stroke="black" d="M253.99,-76.45C258.45,-74.75 263.08,-73.18 267.54,-72 385.49,-40.73 527.05,-27.74 612.3,-22.46"/>
<polygon fill="black" stroke="black" points="612.4,-25.96 622.18,-21.87 611.99,-18.97 612.4,-25.96"/>
</g>
<!-- Alert -->
<g id="node4" class="node" pointer-events="visible" data-name="Alert">

<polygon fill="none" stroke="black" points="147.54,-180 93.54,-180 93.54,-144 147.54,-144 147.54,-180"/>
<text text-anchor="middle" x="120.54" y="-157.8" font-family="Helvetica,Arial,sans-serif" font-size="14.00">Alert</text>
</g>
<!-- Alert&#45;&gt;Fonts, Tokens, Base -->
<g id="edge3" class="edge" data-name="Alert-&gt;Fonts, Tokens, Base">

<path fill="none" stroke="black" d="M126.01,-143.54C133.53,-122.67 149.23,-88.5 175.54,-72 246.53,-27.49 487.91,-19.73 612.6,-18.78"/>
<polygon fill="black" stroke="black" points="612.44,-22.28 622.42,-18.72 612.4,-15.28 612.44,-22.28"/>
</g>
<!-- Alert&#45;&gt;Icon -->
<g id="edge4" class="edge" data-name="Alert-&gt;Icon">

<path fill="none" stroke="black" d="M147.02,-143.52C160.27,-134.76 176.51,-124.04 190.84,-114.58"/>
<polygon fill="black" stroke="black" points="192.73,-117.53 199.14,-109.09 188.87,-111.68 192.73,-117.53"/>
</g>
<!-- Badge -->
<g id="node5" class="node" pointer-events="visible" data-name="Badge">

<polygon fill="none" stroke="black" points="219.54,-180 165.54,-180 165.54,-144 219.54,-144 219.54,-180"/>
<text text-anchor="middle" x="192.54" y="-157.8" font-family="Helvetica,Arial,sans-serif" font-size="14.00">Badge</text>
</g>
<!-- Badge&#45;&gt;Fonts, Tokens, Base -->
<g id="edge5" class="edge" data-name="Badge-&gt;Fonts, Tokens, Base">

<path fill="none" stroke="black" d="M185.84,-143.52C179.47,-123.6 173.18,-91.31 190.54,-72 218.19,-41.26 479.67,-26.94 612.25,-21.61"/>
<polygon fill="black" stroke="black" points="612.14,-25.12 621.99,-21.23 611.86,-18.12 612.14,-25.12"/>
</g>
<!-- Badge&#45;&gt;Icon -->
<g id="edge6" class="edge" data-name="Badge-&gt;Icon">

<path fill="none" stroke="black" d="M200.95,-143.7C204.66,-136.07 209.1,-126.92 213.24,-118.4"/>
<polygon fill="black" stroke="black" points="216.36,-119.99 217.58,-109.47 210.06,-116.93 216.36,-119.99"/>
</g>
<!-- Button -->
<g id="node6" class="node" pointer-events="visible" data-name="Button">

<polygon fill="none" stroke="black" points="439.66,-180 385.43,-180 385.43,-144 439.66,-144 439.66,-180"/>
<text text-anchor="middle" x="412.54" y="-157.8" font-family="Helvetica,Arial,sans-serif" font-size="14.00">Button</text>
</g>
<!-- Button&#45;&gt;Fonts, Tokens, Base -->
<g id="edge7" class="edge" data-name="Button-&gt;Fonts, Tokens, Base">

<path fill="none" stroke="black" d="M415.71,-143.78C420.36,-123.47 431.07,-90.2 453.54,-72 477.79,-52.38 553.54,-37.63 612.56,-28.74"/>
<polygon fill="black" stroke="black" points="612.86,-32.23 622.25,-27.31 611.84,-25.31 612.86,-32.23"/>
</g>
<!-- Button&#45;&gt;Icon -->
<g id="edge8" class="edge" data-name="Button-&gt;Icon">

<path fill="none" stroke="black" d="M385.1,-150.67C353.14,-138.64 300.16,-118.7 264.33,-105.22"/>
<polygon fill="black" stroke="black" points="265.81,-102.04 255.22,-101.79 263.34,-108.59 265.81,-102.04"/>
</g>
<!-- Tag -->
<g id="node7" class="node" pointer-events="visible" data-name="Tag">

<polygon fill="none" stroke="black" points="291.54,-180 237.54,-180 237.54,-144 291.54,-144 291.54,-180"/>
<text text-anchor="middle" x="264.54" y="-157.8" font-family="Helvetica,Arial,sans-serif" font-size="14.00">Tag</text>
</g>
<!-- Tag&#45;&gt;Fonts, Tokens, Base -->
<g id="edge9" class="edge" data-name="Tag-&gt;Fonts, Tokens, Base">

<path fill="none" stroke="black" d="M267.38,-143.81C271.74,-123.22 282.18,-89.33 305.54,-72 352.8,-36.94 514.94,-25.04 612.46,-21.03"/>
<polygon fill="black" stroke="black" points="612.36,-24.53 622.22,-20.65 612.09,-17.54 612.36,-24.53"/>
</g>
<!-- Tag&#45;&gt;Icon -->
<g id="edge10" class="edge" data-name="Tag-&gt;Icon">

<path fill="none" stroke="black" d="M255.15,-143.7C250.96,-135.98 245.93,-126.71 241.26,-118.11"/>
<polygon fill="black" stroke="black" points="244.4,-116.55 236.55,-109.43 238.25,-119.89 244.4,-116.55"/>
</g>
<!-- Button Group -->
<g id="node8" class="node" pointer-events="visible" data-name="Button Group">

<polygon fill="none" stroke="black" points="344.44,-252 250.65,-252 250.65,-216 344.44,-216 344.44,-252"/>
<text text-anchor="middle" x="297.54" y="-229.8" font-family="Helvetica,Arial,sans-serif" font-size="14.00">Button Group</text>
</g>
<!-- Button Group&#45;&gt;Fonts, Tokens, Base -->
<g id="edge11" class="edge" data-name="Button Group-&gt;Fonts, Tokens, Base">

<path fill="none" stroke="black" d="M301.8,-215.58C311,-181.89 336.11,-107.99 386.54,-72 421.96,-46.73 535.28,-32.12 612.57,-24.86"/>
<polygon fill="black" stroke="black" points="612.55,-28.38 622.19,-23.98 611.92,-21.41 612.55,-28.38"/>
</g>
<!-- Button Group&#45;&gt;Button -->
<g id="edge12" class="edge" data-name="Button Group-&gt;Button">

<path fill="none" stroke="black" d="M326.27,-215.52C341.14,-206.46 359.48,-195.3 375.42,-185.6"/>
<polygon fill="black" stroke="black" points="376.97,-188.75 383.69,-180.57 373.33,-182.78 376.97,-188.75"/>
</g>
<!-- Sidebar -->
<g id="node9" class="node" pointer-events="visible" data-name="Sidebar">

<polygon fill="none" stroke="black" points="420.81,-252 362.28,-252 362.28,-216 420.81,-216 420.81,-252"/>
<text text-anchor="middle" x="391.54" y="-229.8" font-family="Helvetica,Arial,sans-serif" font-size="14.00">Sidebar</text>
</g>
<!-- Sidebar&#45;&gt;Fonts, Tokens, Base -->
<g id="edge13" class="edge" data-name="Sidebar-&gt;Fonts, Tokens, Base">

<path fill="none" stroke="black" d="M383.94,-215.63C377.06,-197.46 369.07,-168.26 376.54,-144 387.94,-107.01 393.3,-93.41 425.54,-72 455.67,-52 546,-36.76 612.42,-27.87"/>
<polygon fill="black" stroke="black" points="612.73,-31.36 622.19,-26.59 611.82,-24.42 612.73,-31.36"/>
</g>
<!-- Sidebar&#45;&gt;Button -->
<g id="edge14" class="edge" data-name="Sidebar-&gt;Button">

<path fill="none" stroke="black" d="M396.74,-215.7C398.97,-208.24 401.65,-199.32 404.16,-190.97"/>
<polygon fill="black" stroke="black" points="407.46,-192.14 406.98,-181.55 400.75,-190.13 407.46,-192.14"/>
</g>
<!-- Navbar -->
<g id="node10" class="node" pointer-events="visible" data-name="Navbar">

<polygon fill="none" stroke="black" points="496.25,-252 438.84,-252 438.84,-216 496.25,-216 496.25,-252"/>
<text text-anchor="middle" x="467.54" y="-229.8" font-family="Helvetica,Arial,sans-serif" font-size="14.00">Navbar</text>
</g>
<!-- Navbar&#45;&gt;Fonts, Tokens, Base -->
<g id="edge15" class="edge" data-name="Navbar-&gt;Fonts, Tokens, Base">

<path fill="none" stroke="black" d="M468.27,-215.54C470.58,-182.78 480.24,-111.81 520.54,-72 545.07,-47.78 580.57,-34.61 612.62,-27.46"/>
<polygon fill="black" stroke="black" points="613.21,-30.91 622.3,-25.48 611.81,-24.05 613.21,-30.91"/>
</g>
<!-- Navbar&#45;&gt;Button -->
<g id="edge16" class="edge" data-name="Navbar-&gt;Button">

<path fill="none" stroke="black" d="M453.95,-215.7C447.62,-207.64 439.96,-197.89 432.96,-188.98"/>
<polygon fill="black" stroke="black" points="435.85,-187 426.92,-181.29 430.35,-191.32 435.85,-187"/>
</g>
<!-- Pagination -->
<g id="node11" class="node" pointer-events="visible" data-name="Pagination">

<polygon fill="none" stroke="black" points="590.43,-252 514.66,-252 514.66,-216 590.43,-216 590.43,-252"/>
<text text-anchor="middle" x="552.54" y="-229.8" font-family="Helvetica,Arial,sans-serif" font-size="14.00">Pagination</text>
</g>
<!-- Pagination&#45;&gt;Fonts, Tokens, Base -->
<g id="edge19" class="edge" data-name="Pagination-&gt;Fonts, Tokens, Base">

<path fill="none" stroke="black" d="M540.66,-215.72C534.53,-205.76 527.7,-192.73 524.54,-180 512.71,-132.27 514.48,-107.46 548.54,-72 565.72,-54.12 589.53,-42.21 612.66,-34.3"/>
<polygon fill="black" stroke="black" points="613.65,-37.65 622.12,-31.29 611.53,-30.98 613.65,-37.65"/>
</g>
<!-- Pagination&#45;&gt;Button -->
<g id="edge17" class="edge" data-name="Pagination-&gt;Button">

<path fill="none" stroke="black" d="M517.58,-215.52C497.07,-205.26 471.16,-192.31 450.2,-181.83"/>
<polygon fill="black" stroke="black" points="451.92,-178.77 441.41,-177.43 448.79,-185.03 451.92,-178.77"/>
</g>
<!-- Form -->
<g id="node12" class="node" pointer-events="visible" data-name="Form">

<polygon fill="none" stroke="black" points="587.54,-180 533.54,-180 533.54,-144 587.54,-144 587.54,-180"/>
<text text-anchor="middle" x="560.54" y="-157.8" font-family="Helvetica,Arial,sans-serif" font-size="14.00">Form</text>
</g>
<!-- Pagination&#45;&gt;Form -->
<g id="edge18" class="edge" data-name="Pagination-&gt;Form">

<path fill="none" stroke="black" d="M554.52,-215.7C555.36,-208.41 556.35,-199.73 557.28,-191.54"/>
<polygon fill="black" stroke="black" points="560.76,-191.94 558.42,-181.61 553.81,-191.15 560.76,-191.94"/>
</g>
<!-- Form&#45;&gt;Fonts, Tokens, Base -->
<g id="edge26" class="edge" data-name="Form-&gt;Fonts, Tokens, Base">

<path fill="none" stroke="black" d="M555.76,-143.6C551.55,-124.34 548.11,-93.21 562.54,-72 574.49,-54.46 593.46,-42.7 613.1,-34.83"/>
<polygon fill="black" stroke="black" points="614.1,-38.19 622.29,-31.47 611.69,-31.62 614.1,-38.19"/>
</g>
<!-- Avatar -->
<g id="node13" class="node" pointer-events="visible" data-name="Avatar">

<polygon fill="none" stroke="black" points="625.63,-108 571.46,-108 571.46,-72 625.63,-72 625.63,-108"/>
<text text-anchor="middle" x="598.54" y="-85.8" font-family="Helvetica,Arial,sans-serif" font-size="14.00">Avatar</text>
</g>
<!-- Avatar&#45;&gt;Fonts, Tokens, Base -->
<g id="edge20" class="edge" data-name="Avatar-&gt;Fonts, Tokens, Base">

<path fill="none" stroke="black" d="M620.79,-71.7C631.83,-63.11 645.34,-52.61 657.38,-43.24"/>
<polygon fill="black" stroke="black" points="659.3,-46.18 665.05,-37.28 655,-40.65 659.3,-46.18"/>
</g>
<!-- Breadcrumbs -->
<g id="node14" class="node" pointer-events="visible" data-name="Breadcrumbs">

<polygon fill="none" stroke="black" points="733.69,-108 643.4,-108 643.4,-72 733.69,-72 733.69,-108"/>
<text text-anchor="middle" x="688.54" y="-85.8" font-family="Helvetica,Arial,sans-serif" font-size="14.00">Breadcrumbs</text>
</g>
<!-- Breadcrumbs&#45;&gt;Fonts, Tokens, Base -->
<g id="edge21" class="edge" data-name="Breadcrumbs-&gt;Fonts, Tokens, Base">

<path fill="none" stroke="black" d="M688.54,-71.7C688.54,-64.41 688.54,-55.73 688.54,-47.54"/>
<polygon fill="black" stroke="black" points="692.05,-47.62 688.54,-37.62 685.05,-47.62 692.05,-47.62"/>
</g>
<!-- Card -->
<g id="node15" class="node" pointer-events="visible" data-name="Card">

<polygon fill="none" stroke="black" points="805.54,-108 751.54,-108 751.54,-72 805.54,-72 805.54,-108"/>
<text text-anchor="middle" x="778.54" y="-85.8" font-family="Helvetica,Arial,sans-serif" font-size="14.00">Card</text>
</g>
<!-- Card&#45;&gt;Fonts, Tokens, Base -->
<g id="edge22" class="edge" data-name="Card-&gt;Fonts, Tokens, Base">

<path fill="none" stroke="black" d="M756.3,-71.7C745.26,-63.11 731.75,-52.61 719.71,-43.24"/>
<polygon fill="black" stroke="black" points="722.09,-40.65 712.04,-37.28 717.79,-46.18 722.09,-40.65"/>
</g>
<!-- Confirm Dialog -->
<g id="node17" class="node" pointer-events="visible" data-name="Confirm Dialog">

<polygon fill="none" stroke="black" points="1052.09,-108 947,-108 947,-72 1052.09,-72 1052.09,-108"/>
<text text-anchor="middle" x="999.54" y="-85.8" font-family="Helvetica,Arial,sans-serif" font-size="14.00">Confirm Dialog</text>
</g><g id="node16" class="node" pointer-events="visible" data-name="Content-Header" data-comment="Confirm Dialog">

<polygon fill="none" stroke="black" points="929.45,-108 823.64,-108 823.64,-72 929.45,-72 929.45,-108"/>
<text text-anchor="middle" x="876.54" y="-85.8" font-family="Helvetica,Arial,sans-serif" font-size="14.00">Content-Header</text>
</g>
<!-- Confirm Dialog&#45;&gt;Fonts, Tokens, Base -->
<g id="edge24" class="edge" data-name="Confirm Dialog-&gt;Fonts, Tokens, Base">

<path fill="none" stroke="black" d="M946.7,-74.05C943.94,-73.34 941.21,-72.65 938.54,-72 880.45,-57.76 814.22,-43.82 764.53,-33.82"/>
<polygon fill="black" stroke="black" points="765.52,-30.45 755.03,-31.91 764.15,-37.31 765.52,-30.45"/>
</g><g id="edge23" class="edge" data-name="Content-Header-&gt;Fonts, Tokens, Base" data-comment="Confirm Dialog-&gt;Fonts, Tokens, Base">

<path fill="none" stroke="black" d="M829.59,-71.52C804.26,-62.08 772.79,-50.37 746,-40.39"/>
<polygon fill="black" stroke="black" points="747.24,-37.12 736.65,-36.91 744.8,-43.68 747.24,-37.12"/>
</g>
<!-- Divider -->
<g id="node18" class="node" pointer-events="visible" data-name="Divider">

<polygon fill="none" stroke="black" points="1128.81,-108 1070.28,-108 1070.28,-72 1128.81,-72 1128.81,-108"/>
<text text-anchor="middle" x="1099.54" y="-85.8" font-family="Helvetica,Arial,sans-serif" font-size="14.00">Divider</text>
</g>
<!-- Divider&#45;&gt;Fonts, Tokens, Base -->
<g id="edge25" class="edge" data-name="Divider-&gt;Fonts, Tokens, Base">

<path fill="none" stroke="black" d="M1069.97,-74.83C1067.16,-73.77 1064.32,-72.8 1061.54,-72 961.27,-43.07 841.09,-29.61 764.78,-23.58"/>
<polygon fill="black" stroke="black" points="765.13,-20.1 754.89,-22.82 764.59,-27.08 765.13,-20.1"/>
</g>
<!-- Modal -->
<g id="node19" class="node" pointer-events="visible" data-name="Modal">

<polygon fill="none" stroke="black" points="1200.54,-108 1146.54,-108 1146.54,-72 1200.54,-72 1200.54,-108"/>
<text text-anchor="middle" x="1173.54" y="-85.8" font-family="Helvetica,Arial,sans-serif" font-size="14.00">Modal</text>
</g>
<!-- Modal&#45;&gt;Fonts, Tokens, Base -->
<g id="edge28" class="edge" data-name="Modal-&gt;Fonts, Tokens, Base">

<path fill="none" stroke="black" d="M1146.38,-75.06C1143.45,-73.89 1140.47,-72.84 1137.54,-72 1010.02,-35.42 855.16,-24.04 764.65,-20.53"/>
<polygon fill="black" stroke="black" points="765.04,-17.04 754.91,-20.18 764.78,-24.04 765.04,-17.04"/>
</g>
<!-- Side Panel -->
<g id="node20" class="node" pointer-events="visible" data-name="Side Panel">

<polygon fill="none" stroke="black" points="1294.54,-108 1218.55,-108 1218.55,-72 1294.54,-72 1294.54,-108"/>
<text text-anchor="middle" x="1256.54" y="-85.8" font-family="Helvetica,Arial,sans-serif" font-size="14.00">Side Panel</text>
</g>
<!-- Side Panel&#45;&gt;Fonts, Tokens, Base -->
<g id="edge29" class="edge" data-name="Side Panel-&gt;Fonts, Tokens, Base">

<path fill="none" stroke="black" d="M1218.3,-74.3C1215.36,-73.44 1212.42,-72.66 1209.54,-72 1054.2,-36.57 867.39,-24.81 764.99,-20.92"/>
<polygon fill="black" stroke="black" points="765.17,-17.42 755.05,-20.56 764.92,-24.42 765.17,-17.42"/>
</g>
<!-- Spinner -->
<g id="node21" class="node" pointer-events="visible" data-name="Spinner">

<polygon fill="none" stroke="black" points="1372.1,-108 1312.99,-108 1312.99,-72 1372.1,-72 1372.1,-108"/>
<text text-anchor="middle" x="1342.54" y="-85.8" font-family="Helvetica,Arial,sans-serif" font-size="14.00">Spinner</text>
</g>
<!-- Spinner&#45;&gt;Fonts, Tokens, Base -->
<g id="edge30" class="edge" data-name="Spinner-&gt;Fonts, Tokens, Base">

<path fill="none" stroke="black" d="M1312.65,-74.82C1309.62,-73.73 1306.55,-72.76 1303.54,-72 1203.48,-46.61 905.72,-29.42 764.49,-22.47"/>
<polygon fill="black" stroke="black" points="765.04,-18.99 754.88,-22 764.7,-25.98 765.04,-18.99"/>
</g>
<!-- Switch -->
<g id="node22" class="node" pointer-events="visible" data-name="Switch">

<polygon fill="none" stroke="black" points="1444.93,-108 1390.16,-108 1390.16,-72 1444.93,-72 1444.93,-108"/>
<text text-anchor="middle" x="1417.54" y="-85.8" font-family="Helvetica,Arial,sans-serif" font-size="14.00">Switch</text>
</g>
<!-- Switch&#45;&gt;Fonts, Tokens, Base -->
<g id="edge31" class="edge" data-name="Switch-&gt;Fonts, Tokens, Base">

<path fill="none" stroke="black" d="M1390.02,-74.78C1387.21,-73.7 1384.35,-72.74 1381.54,-72 1266.89,-41.65 919.69,-26.66 764.69,-21.34"/>
<polygon fill="black" stroke="black" points="765.04,-17.85 754.93,-21.01 764.81,-24.84 765.04,-17.85"/>
</g>
<!-- Tab -->
<g id="node23" class="node" pointer-events="visible" data-name="Tab">

<polygon fill="none" stroke="black" points="1516.54,-108 1462.54,-108 1462.54,-72 1516.54,-72 1516.54,-108"/>
<text text-anchor="middle" x="1489.54" y="-85.8" font-family="Helvetica,Arial,sans-serif" font-size="14.00">Tab</text>
</g>
<!-- Tab&#45;&gt;Fonts, Tokens, Base -->
<g id="edge32" class="edge" data-name="Tab-&gt;Fonts, Tokens, Base">

<path fill="none" stroke="black" d="M1462.42,-74.91C1459.48,-73.77 1456.49,-72.77 1453.54,-72 1324.94,-38.45 931.6,-24.99 764.7,-20.7"/>
<polygon fill="black" stroke="black" points="765.16,-17.21 755.07,-20.45 764.98,-24.2 765.16,-17.21"/>
</g>
<!-- Table -->
<g id="node24" class="node" pointer-events="visible" data-name="Table">

<polygon fill="none" stroke="black" points="1588.54,-108 1534.54,-108 1534.54,-72 1588.54,-72 1588.54,-108"/>
<text text-anchor="middle" x="1561.54" y="-85.8" font-family="Helvetica,Arial,sans-serif" font-size="14.00">Table</text>
</g>
<!-- Table&#45;&gt;Fonts, Tokens, Base -->
<g id="edge33" class="edge" data-name="Table-&gt;Fonts, Tokens, Base">

<path fill="none" stroke="black" d="M1534.43,-74.9C1531.49,-73.76 1528.49,-72.76 1525.54,-72 1382.92,-35.25 942.99,-23.48 764.73,-20.17"/>
<polygon fill="black" stroke="black" points="764.95,-16.67 754.89,-19.99 764.82,-23.67 764.95,-16.67"/>
</g>
<!-- Text Pair -->
<g id="node25" class="node" pointer-events="visible" data-name="Text Pair">

<polygon fill="none" stroke="black" points="1674.25,-108 1606.84,-108 1606.84,-72 1674.25,-72 1674.25,-108"/>
<text text-anchor="middle" x="1640.54" y="-85.8" font-family="Helvetica,Arial,sans-serif" font-size="14.00">Text Pair</text>
</g>
<!-- Text Pair&#45;&gt;Fonts, Tokens, Base -->
<g id="edge34" class="edge" data-name="Text Pair-&gt;Fonts, Tokens, Base">

<path fill="none" stroke="black" d="M1606.59,-74.44C1603.57,-73.49 1600.52,-72.66 1597.54,-72 1439.73,-37.15 954.13,-24.16 765.03,-20.34"/>
<polygon fill="black" stroke="black" points="765.13,-16.84 755.06,-20.14 764.99,-23.84 765.13,-16.84"/>
</g>
<!-- Tooltip -->
<g id="node26" class="node" pointer-events="visible" data-name="Tooltip">

<polygon fill="none" stroke="black" points="1749.27,-108 1691.82,-108 1691.82,-72 1749.27,-72 1749.27,-108"/>
<text text-anchor="middle" x="1720.54" y="-85.8" font-family="Helvetica,Arial,sans-serif" font-size="14.00">Tooltip</text>
</g>
<!-- Tooltip&#45;&gt;Fonts, Tokens, Base -->
<!-- Tooltip&#45;&gt;Fonts, Tokens, Base -->
<!-- Tooltip&#45;&gt;Fonts, Tokens, Base -->
<g id="edge35" class="edge" data-name="Tooltip-&gt;Fonts, Tokens, Base">

<path fill="none" stroke="black" d="M1691.42,-74.41C1688.8,-73.47 1686.15,-72.64 1683.54,-72 1509.73,-29.11 966.54,-20.93 764.9,-19.37"/>
<polygon fill="black" stroke="black" points="765.08,-15.87 755.06,-19.29 765.03,-22.87 765.08,-15.87"/>
</g>


</g>
</svg>